<?xml version="1.0" standalone="no"?>
<!DOCTYPE svg PUBLIC "-//W3C//DTD SVG 1.1//EN" "http://www.w3.org/Graphics/SVG/1.1/DTD/svg11.dtd" >
<svg>
<metadata>
Created by FontForge 20090914 at Tue Oct 15 12:55:58 2019
 By www-data
&#194;&#169; 2015-2017 Apple Inc. All rights reserved.
</metadata>
<defs>
<font id="SFProDisplay-Heavy" horiz-adv-x="1714" >
  <font-face 
    font-family="SF Pro Display"
    font-weight="800"
    font-stretch="normal"
    units-per-em="2048"
    panose-1="0 0 9 0 0 0 0 0 0 0"
    ascent="1638"
    descent="-410"
    x-height="1089"
    cap-height="1443"
    bbox="-625 -573.003 2666 2206"
    underline-thickness="227"
    underline-position="-603"
    unicode-range="U+0020-U+1F189"
  />
<missing-glyph horiz-adv-x="2048" 
d="M100 -494v165h1848v-165h-1848zM100 -38v165h1848v-165h-1848zM100 418v165h1848v-165h-1848zM100 873v165h1848v-165h-1848zM100 1329v165h1848v-165h-1848zM100 1785v165h1848v-165h-1848z" />
    <glyph glyph-name="uni2460" unicode="&#x31;&#x20dd;" 
d="M1011 380h-239v489h-7l-157 -106v201l164 108h239v-692zM857 144c104 0 199.5 25.667 286.5 77s155.5 121.166 205.5 209.499s75 184.833 75 289.5s-25 201.167 -75 289.5s-118.5 158.166 -205.5 209.499s-182.5 77 -286.5 77s-199.5 -25.667 -286.5 -77
s-155.5 -121.166 -205.5 -209.499s-75 -184.833 -75 -289.5s25 -201.167 75 -289.5s118.5 -158.166 205.5 -209.499s182.5 -77 286.5 -77zM857 -57c-142.667 0 -273.5 34.333 -392.5 103s-212.833 162.5 -281.5 281.5s-103 249.833 -103 392.5s34.333 273.5 103 392.5
s162.5 212.833 281.5 281.5s249.833 103 392.5 103s273.5 -34.333 392.5 -103s212.667 -162.5 281 -281.5s102.5 -249.833 102.5 -392.5c0 -106.667 -20.167 -208 -60.5 -304s-95 -178.5 -164 -247.5s-151.5 -123.833 -247.5 -164.5s-197.333 -61 -304 -61z" />
    <glyph glyph-name="uni2461" unicode="&#x32;&#x20dd;" 
d="M790 832l-219.001 -0.000976562v2c0 73.333 26 133 78 179s122 69 210 69c81.333 0 147.5 -19.833 198.5 -59.5s76.5 -90.5 76.5 -152.5c0 -35.333 -10.833 -69.5 -32.5 -102.5s-55.5 -69.5 -101.5 -109.5l-94 -88v-8h238v-183h-557v146l240 218
c27.333 25.333 46.333 45.5 57 60.5s16 30.5 16 46.5c0 15.333 -4.83301 27.5 -14.5 36.5s-22.5 13.5 -38.5 13.5c-18 0 -32.167 -6.16699 -42.5 -18.5s-15.166 -28.166 -14.499 -47.499v-2zM856.999 143.999c104 0 199.5 25.667 286.5 77s155.5 121.166 205.5 209.499
s75 184.833 75 289.5s-25 201.167 -75 289.5s-118.5 158.166 -205.5 209.499s-182.5 77 -286.5 77s-199.5 -25.667 -286.5 -77s-155.5 -121.166 -205.5 -209.499s-75 -184.833 -75 -289.5s25 -201.167 75 -289.5s118.5 -158.166 205.5 -209.499s182.5 -77 286.5 -77z
M856.999 -57.001c-142.667 0 -273.5 34.333 -392.5 103s-212.833 162.5 -281.5 281.5s-103 249.833 -103 392.5s34.333 273.5 103 392.5s162.5 212.833 281.5 281.5s249.833 103 392.5 103s273.5 -34.333 392.5 -103s212.667 -162.5 281 -281.5s102.5 -249.833 102.5 -392.5
c0 -106.667 -20.167 -208 -60.5 -304s-95 -178.5 -164 -247.5s-151.5 -123.833 -247.5 -164.5s-197.333 -61 -304 -61z" />
    <glyph glyph-name="uni2462" unicode="&#x33;&#x20dd;" 
d="M784 644v168.999h66c20 0 36.167 5.16699 48.5 15.5s18.5 23.833 18.5 40.5c0 14.667 -6.16699 26.334 -18.5 35.001s-28.5 13 -48.5 13c-22.667 0 -40.834 -6.5 -54.501 -19.5s-20.5 -29.833 -20.5 -50.5h-216c3.33301 75.333 30 133.333 80 174s121.667 61 215 61
c86.667 -0.666992 155.834 -18 207.501 -52s77.834 -79.333 78.501 -136c0 -35.333 -13.167 -67 -39.5 -95s-56.5 -44.333 -90.5 -49v-11c40 -3.33301 74.333 -20 103 -50s43 -67.333 43 -112c0.666992 -64 -26.666 -114.667 -81.999 -152s-129 -56 -221 -56
c-90.667 0 -162.834 21.5 -216.501 64.5s-80.834 99.833 -81.501 170.5h216c0.666992 -19.333 8 -35 22 -47s33 -18 57 -18s42.833 4.66699 56.5 14s20.5 22 20.5 38c0 16.667 -6.66699 29.667 -20 39s-32 14 -56 14h-67zM857 143.999c104 0 199.5 25.667 286.5 77
s155.5 121.166 205.5 209.499s75 184.833 75 289.5s-25 201.167 -75 289.5s-118.5 158.166 -205.5 209.499s-182.5 77 -286.5 77s-199.5 -25.667 -286.5 -77s-155.5 -121.166 -205.5 -209.499s-75 -184.833 -75 -289.5s25 -201.167 75 -289.5s118.5 -158.166 205.5 -209.499
s182.5 -77 286.5 -77zM857 -57.001c-142.667 0 -273.5 34.333 -392.5 103s-212.833 162.5 -281.5 281.5s-103 249.833 -103 392.5s34.333 273.5 103 392.5s162.5 212.833 281.5 281.5s249.833 103 392.5 103s273.5 -34.333 392.5 -103s212.667 -162.5 281 -281.5
s102.5 -249.833 102.5 -392.5c0 -106.667 -20.167 -208 -60.5 -304s-95 -178.5 -164 -247.5s-151.5 -123.833 -247.5 -164.5s-197.333 -61 -304 -61z" />
    <glyph glyph-name="uni2463" unicode="&#x34;&#x20dd;" 
d="M753 1072h314v-417h98v-172h-98v-103h-191v103h-342v175c46.667 99.333 119.667 237.333 219 414zM733 655l143 0.000976562v279h-7c-54.667 -96.667 -100 -189.334 -136 -278.001v-1zM857 144.001c104 0 199.5 25.667 286.5 77s155.5 121.166 205.5 209.499
s75 184.833 75 289.5s-25 201.167 -75 289.5s-118.5 158.166 -205.5 209.499s-182.5 77 -286.5 77s-199.5 -25.667 -286.5 -77s-155.5 -121.166 -205.5 -209.499s-75 -184.833 -75 -289.5s25 -201.167 75 -289.5s118.5 -158.166 205.5 -209.499s182.5 -77 286.5 -77z
M857 -56.999c-142.667 0 -273.5 34.333 -392.5 103s-212.833 162.5 -281.5 281.5s-103 249.833 -103 392.5s34.333 273.5 103 392.5s162.5 212.833 281.5 281.5s249.833 103 392.5 103s273.5 -34.333 392.5 -103s212.667 -162.5 281 -281.5s102.5 -249.833 102.5 -392.5
c0 -106.667 -20.167 -208 -60.5 -304s-95 -178.5 -164 -247.5s-151.5 -123.833 -247.5 -164.5s-197.333 -61 -304 -61z" />
    <glyph glyph-name="uni2464" unicode="&#x35;&#x20dd;" 
d="M577 602h217.999c2.66699 -16.667 11 -29.834 25 -39.501s30.333 -14.5 49 -14.5c20.667 0 38.5 7.33301 53.5 22s22.5 33.334 22.5 56.001c0 20.667 -7.5 38.167 -22.5 52.5s-33.167 21.5 -54.5 21.5c-32 0 -54.667 -13 -68 -39h-211l26 418h505v-163h-331l-9 -129h11
c10.667 19.333 29.834 35.333 57.501 48s59.167 19 94.5 19c68 0 122.833 -19.833 164.5 -59.5s62.5 -93.5 62.5 -161.5c0 -78.667 -27 -141.167 -81 -187.5s-127.333 -69.5 -220 -69.5c-86 0 -156 21.167 -210 63.5s-81.333 96.5 -82 162.5zM856.999 144
c104 0 199.5 25.667 286.5 77s155.5 121.166 205.5 209.499s75 184.833 75 289.5s-25 201.167 -75 289.5s-118.5 158.166 -205.5 209.499s-182.5 77 -286.5 77s-199.5 -25.667 -286.5 -77s-155.5 -121.166 -205.5 -209.499s-75 -184.833 -75 -289.5s25 -201.167 75 -289.5
s118.5 -158.166 205.5 -209.499s182.5 -77 286.5 -77zM856.999 -57c-142.667 0 -273.5 34.333 -392.5 103s-212.833 162.5 -281.5 281.5s-103 249.833 -103 392.5s34.333 273.5 103 392.5s162.5 212.833 281.5 281.5s249.833 103 392.5 103s273.5 -34.333 392.5 -103
s212.667 -162.5 281 -281.5s102.5 -249.833 102.5 -392.5c0 -106.667 -20.167 -208 -60.5 -304s-95 -178.5 -164 -247.5s-151.5 -123.833 -247.5 -164.5s-197.333 -61 -304 -61z" />
    <glyph glyph-name="uni2465" unicode="&#x36;&#x20dd;" 
d="M1146 879l-212.002 0.000976562c-12.667 25.333 -34.667 38 -66 38c-32.667 0 -57.667 -16 -75 -48s-23.333 -72.667 -18 -122h8c26.667 57.333 78.334 86 155.001 86c66.667 0 120.334 -19 161.001 -57s61 -90 61 -156c0 -76.667 -27 -137.834 -81 -183.501
s-125.333 -68.5 -214 -68.5c-119.333 0 -207.333 44.667 -264 134c-36.667 59.333 -55 135 -55 227c0 112 28.333 198.833 85 260.5s135 92.5 235 92.5c76 0 140 -19.333 192 -58s81.333 -87 88 -145zM785.998 615.001c0 -22.667 7.33203 -41 21.999 -55s33 -21 55 -21
s40 6.83301 54 20.5s21 32.167 21 55.5c0 22.667 -7.16699 40.667 -21.5 54s-32.166 20 -53.499 20c-22.667 0 -41.167 -7 -55.5 -21s-21.5 -31.667 -21.5 -53zM856.997 144.001c104 0 199.5 25.667 286.5 77s155.5 121.166 205.5 209.499s75 184.833 75 289.5
s-25 201.167 -75 289.5s-118.5 158.166 -205.5 209.499s-182.5 77 -286.5 77s-199.5 -25.667 -286.5 -77s-155.5 -121.166 -205.5 -209.499s-75 -184.833 -75 -289.5s25 -201.167 75 -289.5s118.5 -158.166 205.5 -209.499s182.5 -77 286.5 -77zM856.997 -56.999
c-142.667 0 -273.5 34.333 -392.5 103s-212.833 162.5 -281.5 281.5s-103 249.833 -103 392.5s34.333 273.5 103 392.5s162.5 212.833 281.5 281.5s249.833 103 392.5 103s273.5 -34.333 392.5 -103s212.667 -162.5 281 -281.5s102.5 -249.833 102.5 -392.5
c0 -106.667 -20.167 -208 -60.5 -304s-95 -178.5 -164 -247.5s-151.5 -123.833 -247.5 -164.5s-197.333 -61 -304 -61z" />
    <glyph glyph-name="uni2466" unicode="&#x37;&#x20dd;" 
d="M577 1069h570v-184l-262 -508h-254l276 501v8h-330v183zM857 144c104 0 199.5 25.667 286.5 77s155.5 121.166 205.5 209.499s75 184.833 75 289.5s-25 201.167 -75 289.5s-118.5 158.166 -205.5 209.499s-182.5 77 -286.5 77s-199.5 -25.667 -286.5 -77
s-155.5 -121.166 -205.5 -209.499s-75 -184.833 -75 -289.5s25 -201.167 75 -289.5s118.5 -158.166 205.5 -209.499s182.5 -77 286.5 -77zM857 -57c-142.667 0 -273.5 34.333 -392.5 103s-212.833 162.5 -281.5 281.5s-103 249.833 -103 392.5s34.333 273.5 103 392.5
s162.5 212.833 281.5 281.5s249.833 103 392.5 103s273.5 -34.333 392.5 -103s212.667 -162.5 281 -281.5s102.5 -249.833 102.5 -392.5c0 -106.667 -20.167 -208 -60.5 -304s-95 -178.5 -164 -247.5s-151.5 -123.833 -247.5 -164.5s-197.333 -61 -304 -61z" />
    <glyph glyph-name="uni2467" unicode="&#x38;&#x20dd;" 
d="M857 520c22.667 0 41.334 7 56.001 21s22 31.667 22 53c0 22 -7.33301 40.167 -22 54.5s-33.334 21.5 -56.001 21.5s-41.5 -7.33301 -56.5 -22s-22.5 -32.667 -22.5 -54s7.5 -39 22.5 -53s33.833 -21 56.5 -21zM857 807c18.667 0 34 5.83301 46 17.5s18 26.167 18 43.5
s-6.16699 32 -18.5 44s-27.5 18 -45.5 18s-33.333 -6 -46 -18s-19 -26.667 -19 -44s6.16699 -31.833 18.5 -43.5s27.833 -17.5 46.5 -17.5zM856 368c-98.667 0 -176.669 18.668 -234.002 56.001s-86 88 -86 152c0 44.667 14.333 81.667 43 111s67.334 47 116.001 53v10
c-86.667 23.333 -130 71.666 -130 144.999c0 57.333 26.333 102.833 79 136.5s123.667 50.5 213 50.5s160.333 -16.833 213 -50.5s79 -79.167 79 -136.5c0 -74 -43.333 -122.333 -130 -145v-10c48.667 -6 87.334 -23.667 116.001 -53s43 -66 43 -110
c0 -64.667 -28.833 -115.667 -86.5 -153s-136.167 -56 -235.5 -56zM856.998 144.001c104 0 199.5 25.667 286.5 77s155.5 121.166 205.5 209.499s75 184.833 75 289.5s-25 201.167 -75 289.5s-118.5 158.166 -205.5 209.499s-182.5 77 -286.5 77s-199.5 -25.667 -286.5 -77
s-155.5 -121.166 -205.5 -209.499s-75 -184.833 -75 -289.5s25 -201.167 75 -289.5s118.5 -158.166 205.5 -209.499s182.5 -77 286.5 -77zM856.998 -56.999c-142.667 0 -273.5 34.333 -392.5 103s-212.833 162.5 -281.5 281.5s-103 249.833 -103 392.5
s34.333 273.5 103 392.5s162.5 212.833 281.5 281.5s249.833 103 392.5 103s273.5 -34.333 392.5 -103s212.667 -162.5 281 -281.5s102.5 -249.833 102.5 -392.5c0 -106.667 -20.167 -208 -60.5 -304s-95 -178.5 -164 -247.5s-151.5 -123.833 -247.5 -164.5
s-197.333 -61 -304 -61z" />
    <glyph glyph-name="uni2468" unicode="&#x39;&#x20dd;" 
d="M553 832c0 74 28.167 134.334 84.5 181.001s127.833 70 214.5 70c97.333 0 174.166 -30.333 230.499 -91s84.5 -148.667 84.5 -264c0 -114 -27.833 -202.5 -83.5 -265.5s-134.5 -94.5 -236.5 -94.5c-75.333 0 -139 19.5 -191 58.5s-81.333 87.5 -88 145.5h215
c12.667 -24.667 34.334 -37 65.001 -37c34 0 59.5 16.167 76.5 48.5s22.5 72.166 16.5 119.499h-7c-26 -57.333 -77.333 -86 -154 -86c-68 0 -122.833 19.333 -164.5 58s-62.5 91 -62.5 157zM929 836.001c0 22.667 -7 41 -21 55s-32 21 -54 21s-40.167 -7 -54.5 -21
s-21.5 -32.333 -21.5 -55s7.16699 -40.834 21.5 -54.501s32.5 -20.5 54.5 -20.5s40 6.83301 54 20.5s21 31.834 21 54.501zM857 144.001c104 0 199.5 25.667 286.5 77s155.5 121.166 205.5 209.499s75 184.833 75 289.5s-25 201.167 -75 289.5
s-118.5 158.166 -205.5 209.499s-182.5 77 -286.5 77s-199.5 -25.667 -286.5 -77s-155.5 -121.166 -205.5 -209.499s-75 -184.833 -75 -289.5s25 -201.167 75 -289.5s118.5 -158.166 205.5 -209.499s182.5 -77 286.5 -77zM857 -56.999c-142.667 0 -273.5 34.333 -392.5 103
s-212.833 162.5 -281.5 281.5s-103 249.833 -103 392.5s34.333 273.5 103 392.5s162.5 212.833 281.5 281.5s249.833 103 392.5 103s273.5 -34.333 392.5 -103s212.667 -162.5 281 -281.5s102.5 -249.833 102.5 -392.5c0 -106.667 -20.167 -208 -60.5 -304
s-95 -178.5 -164 -247.5s-151.5 -123.833 -247.5 -164.5s-197.333 -61 -304 -61z" />
    <glyph glyph-name="uni24B6" unicode="A&#x20dd;" 
d="M797 687h119l-55 225h-8zM733 407h-235l214 692h290l213 -692h-235l-27 114h-192zM857 144c104 0 199.5 25.667 286.5 77s155.5 121.166 205.5 209.499s75 184.833 75 289.5s-25 201.167 -75 289.5s-118.5 158.166 -205.5 209.499s-182.5 77 -286.5 77
s-199.5 -25.667 -286.5 -77s-155.5 -121.166 -205.5 -209.499s-75 -184.833 -75 -289.5s25 -201.167 75 -289.5s118.5 -158.166 205.5 -209.499s182.5 -77 286.5 -77zM857 -57c-142.667 0 -273.5 34.333 -392.5 103s-212.833 162.5 -281.5 281.5s-103 249.833 -103 392.5
s34.333 273.5 103 392.5s162.5 212.833 281.5 281.5s249.833 103 392.5 103s273.5 -34.333 392.5 -103s212.667 -162.5 281 -281.5s102.5 -249.833 102.5 -392.5c0 -106.667 -20.167 -208 -60.5 -304s-95 -178.5 -164 -247.5s-151.5 -123.833 -247.5 -164.5
s-197.333 -61 -304 -61z" />
    <glyph glyph-name="uni24B7" unicode="B&#x20dd;" 
d="M571 380l0.000976562 691.999h369c67.333 0 120.5 -15.167 159.5 -45.5s58.5 -71.833 58.5 -124.5c0 -39.333 -12.667 -72.666 -38 -99.999s-58.333 -44.333 -99 -51v-7c51.333 -6 91.5 -24.333 120.5 -55s43.5 -70.667 43.5 -120c0 -56 -21.833 -101.5 -65.5 -136.5
s-99.834 -52.5 -168.501 -52.5h-380zM787.001 928.999l-0.000976562 -131h69c58 0 87 22.333 87 67c0 19.333 -7.16699 34.833 -21.5 46.5s-33.166 17.5 -56.499 17.5h-78zM786 675.999l-0.000976562 -144h75c64 0 96 24.333 96 73c0 22 -7.66699 39.333 -23 52
s-36.666 19 -63.999 19h-84zM856.999 143.999c104 0 199.5 25.667 286.5 77s155.5 121.166 205.5 209.499s75 184.833 75 289.5s-25 201.167 -75 289.5s-118.5 158.166 -205.5 209.499s-182.5 77 -286.5 77s-199.5 -25.667 -286.5 -77s-155.5 -121.166 -205.5 -209.499
s-75 -184.833 -75 -289.5s25 -201.167 75 -289.5s118.5 -158.166 205.5 -209.499s182.5 -77 286.5 -77zM856.999 -57.001c-142.667 0 -273.5 34.333 -392.5 103s-212.833 162.5 -281.5 281.5s-103 249.833 -103 392.5s34.333 273.5 103 392.5s162.5 212.833 281.5 281.5
s249.833 103 392.5 103s273.5 -34.333 392.5 -103s212.667 -162.5 281 -281.5s102.5 -249.833 102.5 -392.5c0 -106.667 -20.167 -208 -60.5 -304s-95 -178.5 -164 -247.5s-151.5 -123.833 -247.5 -164.5s-197.333 -61 -304 -61z" />
    <glyph glyph-name="uni24B8" unicode="C&#x20dd;" 
d="M967 647l213.004 -0.000976562c-3.33301 -82 -34.5 -149 -93.5 -201s-135.167 -78 -228.5 -78c-100.667 0 -183.5 32 -248.5 96s-97.5 151 -97.5 261s32.5 197 97.5 261s147.833 96 248.5 96c93.333 0 169.666 -26.167 228.999 -78.5s90.666 -119.833 93.999 -202.5h-213
c-1.33301 26.667 -12.333 48.834 -33 66.501s-45.334 26.5 -74.001 26.5c-35.333 0 -63.5 -14.833 -84.5 -44.5s-31.5 -71.167 -31.5 -124.5c0 -54 10.333 -95.667 31 -125s49 -44 85 -44c28.667 0 53.167 8.66699 73.5 26s31.166 39 32.499 65zM857.004 143.999
c104 0 199.5 25.667 286.5 77s155.5 121.166 205.5 209.499s75 184.833 75 289.5s-25 201.167 -75 289.5s-118.5 158.166 -205.5 209.499s-182.5 77 -286.5 77s-199.5 -25.667 -286.5 -77s-155.5 -121.166 -205.5 -209.499s-75 -184.833 -75 -289.5s25 -201.167 75 -289.5
s118.5 -158.166 205.5 -209.499s182.5 -77 286.5 -77zM857.004 -57.001c-142.667 0 -273.5 34.333 -392.5 103s-212.833 162.5 -281.5 281.5s-103 249.833 -103 392.5s34.333 273.5 103 392.5s162.5 212.833 281.5 281.5s249.833 103 392.5 103s273.5 -34.333 392.5 -103
s212.667 -162.5 281 -281.5s102.5 -249.833 102.5 -392.5c0 -106.667 -20.167 -208 -60.5 -304s-95 -178.5 -164 -247.5s-151.5 -123.833 -247.5 -164.5s-197.333 -61 -304 -61z" />
    <glyph glyph-name="uni24B9" unicode="D&#x20dd;" 
d="M575 1072l320 -0.000976562c105.333 0 185.666 -29.833 240.999 -89.5s83 -145.5 83 -257.5c0 -111.333 -27.667 -196.666 -83 -255.999s-135.666 -89 -240.999 -89h-320v692zM799 893.999v-336.999h56c45.333 0 78 13.167 98 39.5s30 69.166 30 128.499
s-10.167 102.333 -30.5 129s-52.833 40 -97.5 40h-56zM857 144c104 0 199.5 25.667 286.5 77s155.5 121.166 205.5 209.499s75 184.833 75 289.5s-25 201.167 -75 289.5s-118.5 158.166 -205.5 209.499s-182.5 77 -286.5 77s-199.5 -25.667 -286.5 -77
s-155.5 -121.166 -205.5 -209.499s-75 -184.833 -75 -289.5s25 -201.167 75 -289.5s118.5 -158.166 205.5 -209.499s182.5 -77 286.5 -77zM857 -57c-142.667 0 -273.5 34.333 -392.5 103s-212.833 162.5 -281.5 281.5s-103 249.833 -103 392.5s34.333 273.5 103 392.5
s162.5 212.833 281.5 281.5s249.833 103 392.5 103s273.5 -34.333 392.5 -103s212.667 -162.5 281 -281.5s102.5 -249.833 102.5 -392.5c0 -106.667 -20.167 -208 -60.5 -304s-95 -178.5 -164 -247.5s-151.5 -123.833 -247.5 -164.5s-197.333 -61 -304 -61z" />
    <glyph glyph-name="uni24BA" unicode="E&#x20dd;" 
d="M1127 554v-174h-515v692h515v-174h-293v-98h274v-147h-274v-99h293zM857 144c104 0 199.5 25.667 286.5 77s155.5 121.166 205.5 209.499s75 184.833 75 289.5s-25 201.167 -75 289.5s-118.5 158.166 -205.5 209.499s-182.5 77 -286.5 77s-199.5 -25.667 -286.5 -77
s-155.5 -121.166 -205.5 -209.499s-75 -184.833 -75 -289.5s25 -201.167 75 -289.5s118.5 -158.166 205.5 -209.499s182.5 -77 286.5 -77zM857 -57c-142.667 0 -273.5 34.333 -392.5 103s-212.833 162.5 -281.5 281.5s-103 249.833 -103 392.5s34.333 273.5 103 392.5
s162.5 212.833 281.5 281.5s249.833 103 392.5 103s273.5 -34.333 392.5 -103s212.667 -162.5 281 -281.5s102.5 -249.833 102.5 -392.5c0 -106.667 -20.167 -208 -60.5 -304s-95 -178.5 -164 -247.5s-151.5 -123.833 -247.5 -164.5s-197.333 -61 -304 -61z" />
    <glyph glyph-name="uni24BB" unicode="F&#x20dd;" 
d="M855 380h-233v692h514v-178h-281v-104h255v-177h-255v-233zM857 144c104 0 199.5 25.667 286.5 77s155.5 121.166 205.5 209.499s75 184.833 75 289.5s-25 201.167 -75 289.5s-118.5 158.166 -205.5 209.499s-182.5 77 -286.5 77s-199.5 -25.667 -286.5 -77
s-155.5 -121.166 -205.5 -209.499s-75 -184.833 -75 -289.5s25 -201.167 75 -289.5s118.5 -158.166 205.5 -209.499s182.5 -77 286.5 -77zM857 -57c-142.667 0 -273.5 34.333 -392.5 103s-212.833 162.5 -281.5 281.5s-103 249.833 -103 392.5s34.333 273.5 103 392.5
s162.5 212.833 281.5 281.5s249.833 103 392.5 103s273.5 -34.333 392.5 -103s212.667 -162.5 281 -281.5s102.5 -249.833 102.5 -392.5c0 -106.667 -20.167 -208 -60.5 -304s-95 -178.5 -164 -247.5s-151.5 -123.833 -247.5 -164.5s-197.333 -61 -304 -61z" />
    <glyph glyph-name="uni24BC" unicode="G&#x20dd;" 
d="M969 616l-0.00195312 16.999h-109v137h322v-121c0 -80.667 -29.5 -147.667 -88.5 -201s-137.5 -80 -235.5 -80c-103.333 0 -186.833 32.833 -250.5 98.5s-95.5 151.834 -95.5 258.501s31.833 192.834 95.5 258.501s147.167 98.5 250.5 98.5c88 0 161.667 -23 221 -69
s93.666 -107 102.999 -183h-221c-3.33301 24 -13.666 43.167 -30.999 57.5s-40 21.5 -68 21.5c-35.333 0 -63.666 -16.833 -84.999 -50.5s-32 -78.167 -32 -133.5c0 -56.667 10.833 -102.834 32.5 -138.501s49.834 -53.5 84.501 -53.5c33.333 0 59.5 7.66699 78.5 23
s28.5 35.333 28.5 60zM856.998 143.999c104 0 199.5 25.667 286.5 77s155.5 121.166 205.5 209.499s75 184.833 75 289.5s-25 201.167 -75 289.5s-118.5 158.166 -205.5 209.499s-182.5 77 -286.5 77s-199.5 -25.667 -286.5 -77s-155.5 -121.166 -205.5 -209.499
s-75 -184.833 -75 -289.5s25 -201.167 75 -289.5s118.5 -158.166 205.5 -209.499s182.5 -77 286.5 -77zM856.998 -57.001c-142.667 0 -273.5 34.333 -392.5 103s-212.833 162.5 -281.5 281.5s-103 249.833 -103 392.5s34.333 273.5 103 392.5s162.5 212.833 281.5 281.5
s249.833 103 392.5 103s273.5 -34.333 392.5 -103s212.667 -162.5 281 -281.5s102.5 -249.833 102.5 -392.5c0 -106.667 -20.167 -208 -60.5 -304s-95 -178.5 -164 -247.5s-151.5 -123.833 -247.5 -164.5s-197.333 -61 -304 -61z" />
    <glyph glyph-name="uni24BD" unicode="H&#x20dd;" 
d="M1176 380h-217v249h-204v-249h-217v692h217v-255h204v255h217v-692zM857 144c104 0 199.5 25.667 286.5 77s155.5 121.166 205.5 209.499s75 184.833 75 289.5s-25 201.167 -75 289.5s-118.5 158.166 -205.5 209.499s-182.5 77 -286.5 77s-199.5 -25.667 -286.5 -77
s-155.5 -121.166 -205.5 -209.499s-75 -184.833 -75 -289.5s25 -201.167 75 -289.5s118.5 -158.166 205.5 -209.499s182.5 -77 286.5 -77zM857 -57c-142.667 0 -273.5 34.333 -392.5 103s-212.833 162.5 -281.5 281.5s-103 249.833 -103 392.5s34.333 273.5 103 392.5
s162.5 212.833 281.5 281.5s249.833 103 392.5 103s273.5 -34.333 392.5 -103s212.667 -162.5 281 -281.5s102.5 -249.833 102.5 -392.5c0 -106.667 -20.167 -208 -60.5 -304s-95 -178.5 -164 -247.5s-151.5 -123.833 -247.5 -164.5s-197.333 -61 -304 -61z" />
    <glyph glyph-name="uni24BE" unicode="I&#x20dd;" 
d="M985 380h-257v692h257v-692zM857 144c104 0 199.5 25.667 286.5 77s155.5 121.166 205.5 209.499s75 184.833 75 289.5s-25 201.167 -75 289.5s-118.5 158.166 -205.5 209.499s-182.5 77 -286.5 77s-199.5 -25.667 -286.5 -77s-155.5 -121.166 -205.5 -209.499
s-75 -184.833 -75 -289.5s25 -201.167 75 -289.5s118.5 -158.166 205.5 -209.499s182.5 -77 286.5 -77zM857 -57c-142.667 0 -273.5 34.333 -392.5 103s-212.833 162.5 -281.5 281.5s-103 249.833 -103 392.5s34.333 273.5 103 392.5s162.5 212.833 281.5 281.5
s249.833 103 392.5 103s273.5 -34.333 392.5 -103s212.667 -162.5 281 -281.5s102.5 -249.833 102.5 -392.5c0 -106.667 -20.167 -208 -60.5 -304s-95 -178.5 -164 -247.5s-151.5 -123.833 -247.5 -164.5s-197.333 -61 -304 -61z" />
    <glyph glyph-name="uni24BF" unicode="J&#x20dd;" 
d="M540 639l229.999 0.000976562c0 -51.333 20 -77 60 -77c37.333 0 56 26.333 56 79v416h239v-422c0 -86.667 -26 -155.334 -78 -206.001s-122 -76 -210 -76c-91.333 0 -163.666 25.833 -216.999 77.5s-80 121.167 -80 208.5zM856.999 144.001c104 0 199.5 25.667 286.5 77
s155.5 121.166 205.5 209.499s75 184.833 75 289.5s-25 201.167 -75 289.5s-118.5 158.166 -205.5 209.499s-182.5 77 -286.5 77s-199.5 -25.667 -286.5 -77s-155.5 -121.166 -205.5 -209.499s-75 -184.833 -75 -289.5s25 -201.167 75 -289.5s118.5 -158.166 205.5 -209.499
s182.5 -77 286.5 -77zM856.999 -56.999c-142.667 0 -273.5 34.333 -392.5 103s-212.833 162.5 -281.5 281.5s-103 249.833 -103 392.5s34.333 273.5 103 392.5s162.5 212.833 281.5 281.5s249.833 103 392.5 103s273.5 -34.333 392.5 -103s212.667 -162.5 281 -281.5
s102.5 -249.833 102.5 -392.5c0 -106.667 -20.167 -208 -60.5 -304s-95 -178.5 -164 -247.5s-151.5 -123.833 -247.5 -164.5s-197.333 -61 -304 -61z" />
    <glyph glyph-name="uni24C0" unicode="K&#x20dd;" 
d="M1200 1072l-211 -322l215 -370h-260l-130 231l-57 -70v-161h-209v692h209v-280h7l186 280h250zM857 144c104 0 199.5 25.667 286.5 77s155.5 121.166 205.5 209.499s75 184.833 75 289.5s-25 201.167 -75 289.5s-118.5 158.166 -205.5 209.499s-182.5 77 -286.5 77
s-199.5 -25.667 -286.5 -77s-155.5 -121.166 -205.5 -209.499s-75 -184.833 -75 -289.5s25 -201.167 75 -289.5s118.5 -158.166 205.5 -209.499s182.5 -77 286.5 -77zM857 -57c-142.667 0 -273.5 34.333 -392.5 103s-212.833 162.5 -281.5 281.5s-103 249.833 -103 392.5
s34.333 273.5 103 392.5s162.5 212.833 281.5 281.5s249.833 103 392.5 103s273.5 -34.333 392.5 -103s212.667 -162.5 281 -281.5s102.5 -249.833 102.5 -392.5c0 -106.667 -20.167 -208 -60.5 -304s-95 -178.5 -164 -247.5s-151.5 -123.833 -247.5 -164.5
s-197.333 -61 -304 -61z" />
    <glyph glyph-name="uni24C1" unicode="L&#x20dd;" 
d="M1145 590v-195h-509v692h242v-497h267zM857 144c104 0 199.5 25.667 286.5 77s155.5 121.166 205.5 209.499s75 184.833 75 289.5s-25 201.167 -75 289.5s-118.5 158.166 -205.5 209.499s-182.5 77 -286.5 77s-199.5 -25.667 -286.5 -77s-155.5 -121.166 -205.5 -209.499
s-75 -184.833 -75 -289.5s25 -201.167 75 -289.5s118.5 -158.166 205.5 -209.499s182.5 -77 286.5 -77zM857 -57c-142.667 0 -273.5 34.333 -392.5 103s-212.833 162.5 -281.5 281.5s-103 249.833 -103 392.5s34.333 273.5 103 392.5s162.5 212.833 281.5 281.5
s249.833 103 392.5 103s273.5 -34.333 392.5 -103s212.667 -162.5 281 -281.5s102.5 -249.833 102.5 -392.5c0 -106.667 -20.167 -208 -60.5 -304s-95 -178.5 -164 -247.5s-151.5 -123.833 -247.5 -164.5s-197.333 -61 -304 -61z" />
    <glyph glyph-name="uni24C2" unicode="M&#x20dd;" 
d="M671 380h-170v692h221l133 -416h6l133 416h220v-692h-170v398h-7l-119 -352h-124l-116 352h-7v-398zM857 144c104 0 199.5 25.667 286.5 77s155.5 121.166 205.5 209.499s75 184.833 75 289.5s-25 201.167 -75 289.5s-118.5 158.166 -205.5 209.499s-182.5 77 -286.5 77
s-199.5 -25.667 -286.5 -77s-155.5 -121.166 -205.5 -209.499s-75 -184.833 -75 -289.5s25 -201.167 75 -289.5s118.5 -158.166 205.5 -209.499s182.5 -77 286.5 -77zM857 -57c-142.667 0 -273.5 34.333 -392.5 103s-212.833 162.5 -281.5 281.5s-103 249.833 -103 392.5
s34.333 273.5 103 392.5s162.5 212.833 281.5 281.5s249.833 103 392.5 103s273.5 -34.333 392.5 -103s212.667 -162.5 281 -281.5s102.5 -249.833 102.5 -392.5c0 -106.667 -20.167 -208 -60.5 -304s-95 -178.5 -164 -247.5s-151.5 -123.833 -247.5 -164.5
s-197.333 -61 -304 -61z" />
    <glyph glyph-name="uni24C3" unicode="N&#x20dd;" 
d="M747 380h-201v692h162l251 -344h8v344h200v-692h-159l-254 350h-7v-350zM857 144c104 0 199.5 25.667 286.5 77s155.5 121.166 205.5 209.499s75 184.833 75 289.5s-25 201.167 -75 289.5s-118.5 158.166 -205.5 209.499s-182.5 77 -286.5 77s-199.5 -25.667 -286.5 -77
s-155.5 -121.166 -205.5 -209.499s-75 -184.833 -75 -289.5s25 -201.167 75 -289.5s118.5 -158.166 205.5 -209.499s182.5 -77 286.5 -77zM857 -57c-142.667 0 -273.5 34.333 -392.5 103s-212.833 162.5 -281.5 281.5s-103 249.833 -103 392.5s34.333 273.5 103 392.5
s162.5 212.833 281.5 281.5s249.833 103 392.5 103s273.5 -34.333 392.5 -103s212.667 -162.5 281 -281.5s102.5 -249.833 102.5 -392.5c0 -106.667 -20.167 -208 -60.5 -304s-95 -178.5 -164 -247.5s-151.5 -123.833 -247.5 -164.5s-197.333 -61 -304 -61z" />
    <glyph glyph-name="uni24C4" unicode="O&#x20dd;" 
d="M857 556c32.667 0 59.667 14.5 81 43.5s32 70.833 32 125.5s-10.667 96.5 -32 125.5s-48.333 43.5 -81 43.5s-59.667 -14.5 -81 -43.5s-32 -70.833 -32 -125.5s10.667 -96.5 32 -125.5s48.333 -43.5 81 -43.5zM857 368c-100.667 0 -183.5 31.833 -248.5 95.5
s-97.5 150.834 -97.5 261.501s32.5 197.834 97.5 261.501s147.833 95.5 248.5 95.5s183.5 -31.833 248.5 -95.5s97.5 -150.834 97.5 -261.501s-32.5 -197.834 -97.5 -261.501s-147.833 -95.5 -248.5 -95.5zM857 144c104 0 199.5 25.667 286.5 77
s155.5 121.166 205.5 209.499s75 184.833 75 289.5s-25 201.167 -75 289.5s-118.5 158.166 -205.5 209.499s-182.5 77 -286.5 77s-199.5 -25.667 -286.5 -77s-155.5 -121.166 -205.5 -209.499s-75 -184.833 -75 -289.5s25 -201.167 75 -289.5s118.5 -158.166 205.5 -209.499
s182.5 -77 286.5 -77zM857 -57c-142.667 0 -273.5 34.333 -392.5 103s-212.833 162.5 -281.5 281.5s-103 249.833 -103 392.5s34.333 273.5 103 392.5s162.5 212.833 281.5 281.5s249.833 103 392.5 103s273.5 -34.333 392.5 -103s212.667 -162.5 281 -281.5
s102.5 -249.833 102.5 -392.5c0 -106.667 -20.167 -208 -60.5 -304s-95 -178.5 -164 -247.5s-151.5 -123.833 -247.5 -164.5s-197.333 -61 -304 -61z" />
    <glyph glyph-name="uni24C5" unicode="P&#x20dd;" 
d="M934 1072c80.667 0 145.167 -24.168 193.5 -72.501s72.5 -112.166 72.5 -191.499c0 -78 -24.333 -140.5 -73 -187.5s-114 -70.5 -196 -70.5h-89v-170h-241v692h333zM973 807.999c0 59.333 -27.333 89 -82 89h-66v-177h66c54.667 0 82 29.333 82 88zM857 143.999
c104 0 199.5 25.667 286.5 77s155.5 121.166 205.5 209.499s75 184.833 75 289.5s-25 201.167 -75 289.5s-118.5 158.166 -205.5 209.499s-182.5 77 -286.5 77s-199.5 -25.667 -286.5 -77s-155.5 -121.166 -205.5 -209.499s-75 -184.833 -75 -289.5s25 -201.167 75 -289.5
s118.5 -158.166 205.5 -209.499s182.5 -77 286.5 -77zM857 -57.001c-142.667 0 -273.5 34.333 -392.5 103s-212.833 162.5 -281.5 281.5s-103 249.833 -103 392.5s34.333 273.5 103 392.5s162.5 212.833 281.5 281.5s249.833 103 392.5 103s273.5 -34.333 392.5 -103
s212.667 -162.5 281 -281.5s102.5 -249.833 102.5 -392.5c0 -106.667 -20.167 -208 -60.5 -304s-95 -178.5 -164 -247.5s-151.5 -123.833 -247.5 -164.5s-197.333 -61 -304 -61z" />
    <glyph glyph-name="uni24C6" unicode="Q&#x20dd;" 
d="M1186 324l-223 -0.000976562l-24 53c-26 -6 -53.333 -9 -82 -9c-100.667 0 -183.5 31.833 -248.5 95.5s-97.5 150.834 -97.5 261.501s32.5 197.834 97.5 261.501s147.833 95.5 248.5 95.5s183.5 -31.833 248.5 -95.5s97.5 -150.834 97.5 -261.501
c0 -116 -35.667 -206.333 -107 -271zM857 555.999c7.33301 0 14.333 1 21 3l-39 89h102l10 -14c12.667 24 19 54.333 19 91c0 54.667 -10.667 96.5 -32 125.5s-48.333 43.5 -81 43.5s-59.667 -14.5 -81 -43.5s-32 -70.833 -32 -125.5s10.667 -96.5 32 -125.5
s48.333 -43.5 81 -43.5zM857 143.999c104 0 199.5 25.667 286.5 77s155.5 121.166 205.5 209.499s75 184.833 75 289.5s-25 201.167 -75 289.5s-118.5 158.166 -205.5 209.499s-182.5 77 -286.5 77s-199.5 -25.667 -286.5 -77s-155.5 -121.166 -205.5 -209.499
s-75 -184.833 -75 -289.5s25 -201.167 75 -289.5s118.5 -158.166 205.5 -209.499s182.5 -77 286.5 -77zM857 -57.001c-142.667 0 -273.5 34.333 -392.5 103s-212.833 162.5 -281.5 281.5s-103 249.833 -103 392.5s34.333 273.5 103 392.5s162.5 212.833 281.5 281.5
s249.833 103 392.5 103s273.5 -34.333 392.5 -103s212.667 -162.5 281 -281.5s102.5 -249.833 102.5 -392.5c0 -106.667 -20.167 -208 -60.5 -304s-95 -178.5 -164 -247.5s-151.5 -123.833 -247.5 -164.5s-197.333 -61 -304 -61z" />
    <glyph glyph-name="uni24C7" unicode="R&#x20dd;" 
d="M893 1072c92 0 163.167 -20 213.5 -60s75.5 -96.333 75.5 -169c0 -48 -12 -88.833 -36 -122.5s-57.333 -57.167 -100 -70.5l151 -270h-241l-111 228h-68v-228h-211v692h327zM777 756h92c24.667 0 44.167 6.33301 58.5 19s21.5 30.667 21.5 54
c0 24 -6.83301 42.333 -20.5 55s-33.167 19 -58.5 19h-93v-147zM857 144c104 0 199.5 25.667 286.5 77s155.5 121.166 205.5 209.499s75 184.833 75 289.5s-25 201.167 -75 289.5s-118.5 158.166 -205.5 209.499s-182.5 77 -286.5 77s-199.5 -25.667 -286.5 -77
s-155.5 -121.166 -205.5 -209.499s-75 -184.833 -75 -289.5s25 -201.167 75 -289.5s118.5 -158.166 205.5 -209.499s182.5 -77 286.5 -77zM857 -57c-142.667 0 -273.5 34.333 -392.5 103s-212.833 162.5 -281.5 281.5s-103 249.833 -103 392.5s34.333 273.5 103 392.5
s162.5 212.833 281.5 281.5s249.833 103 392.5 103s273.5 -34.333 392.5 -103s212.667 -162.5 281 -281.5s102.5 -249.833 102.5 -392.5c0 -106.667 -20.167 -208 -60.5 -304s-95 -178.5 -164 -247.5s-151.5 -123.833 -247.5 -164.5s-197.333 -61 -304 -61z" />
    <glyph glyph-name="uni24C8" unicode="S&#x20dd;" 
d="M548 587l222.001 -0.000976562c2.66699 -16.667 12.167 -30 28.5 -40s37.166 -15 62.499 -15c26.667 0 47.667 4.83301 63 14.5s23 22.834 23 39.501c0 14 -7 24.5 -21 31.5s-42 13.833 -84 20.5l-76 12c-67.333 10 -119 32.333 -155 67s-54 79.667 -54 135
c0 69.333 27.167 124.833 81.5 166.5s126.833 62.5 217.5 62.5c84 0 152.667 -19 206 -57s82.666 -89.333 87.999 -154h-215c-7.33301 34 -34 51 -80 51c-22.667 0 -40.667 -4.5 -54 -13.5s-20 -20.833 -20 -35.5c0 -14 7.16699 -25 21.5 -33s40.166 -14.333 77.499 -19
l87 -14c133.333 -20 200 -87 200 -201c0 -72 -28.167 -129.333 -84.5 -172s-132.166 -64 -227.499 -64c-92.667 0 -166.167 19.167 -220.5 57.5s-83.166 91.833 -86.499 160.5zM857.001 143.999c104 0 199.5 25.667 286.5 77s155.5 121.166 205.5 209.499
s75 184.833 75 289.5s-25 201.167 -75 289.5s-118.5 158.166 -205.5 209.499s-182.5 77 -286.5 77s-199.5 -25.667 -286.5 -77s-155.5 -121.166 -205.5 -209.499s-75 -184.833 -75 -289.5s25 -201.167 75 -289.5s118.5 -158.166 205.5 -209.499s182.5 -77 286.5 -77z
M857.001 -57.001c-142.667 0 -273.5 34.333 -392.5 103s-212.833 162.5 -281.5 281.5s-103 249.833 -103 392.5s34.333 273.5 103 392.5s162.5 212.833 281.5 281.5s249.833 103 392.5 103s273.5 -34.333 392.5 -103s212.667 -162.5 281 -281.5s102.5 -249.833 102.5 -392.5
c0 -106.667 -20.167 -208 -60.5 -304s-95 -178.5 -164 -247.5s-151.5 -123.833 -247.5 -164.5s-197.333 -61 -304 -61z" />
    <glyph glyph-name="uni24C9" unicode="T&#x20dd;" 
d="M978 356h-242v501h-187v191h616v-191h-187v-501zM857 144c104 0 199.5 25.667 286.5 77s155.5 121.166 205.5 209.499s75 184.833 75 289.5s-25 201.167 -75 289.5s-118.5 158.166 -205.5 209.499s-182.5 77 -286.5 77s-199.5 -25.667 -286.5 -77
s-155.5 -121.166 -205.5 -209.499s-75 -184.833 -75 -289.5s25 -201.167 75 -289.5s118.5 -158.166 205.5 -209.499s182.5 -77 286.5 -77zM857 -57c-142.667 0 -273.5 34.333 -392.5 103s-212.833 162.5 -281.5 281.5s-103 249.833 -103 392.5s34.333 273.5 103 392.5
s162.5 212.833 281.5 281.5s249.833 103 392.5 103s273.5 -34.333 392.5 -103s212.667 -162.5 281 -281.5s102.5 -249.833 102.5 -392.5c0 -106.667 -20.167 -208 -60.5 -304s-95 -178.5 -164 -247.5s-151.5 -123.833 -247.5 -164.5s-197.333 -61 -304 -61z" />
    <glyph glyph-name="uni24CA" unicode="U&#x20dd;" 
d="M857 532c26 0 46.833 7.5 62.5 22.5s23.5 35.5 23.5 61.5v432h230v-454c0 -72 -29.167 -131.667 -87.5 -179s-134.5 -71 -228.5 -71s-170.167 23.667 -228.5 71s-87.5 107 -87.5 179v454h230v-432c0 -26 7.83301 -46.5 23.5 -61.5s36.5 -22.5 62.5 -22.5zM857 144
c104 0 199.5 25.667 286.5 77s155.5 121.166 205.5 209.499s75 184.833 75 289.5s-25 201.167 -75 289.5s-118.5 158.166 -205.5 209.499s-182.5 77 -286.5 77s-199.5 -25.667 -286.5 -77s-155.5 -121.166 -205.5 -209.499s-75 -184.833 -75 -289.5s25 -201.167 75 -289.5
s118.5 -158.166 205.5 -209.499s182.5 -77 286.5 -77zM857 -57c-142.667 0 -273.5 34.333 -392.5 103s-212.833 162.5 -281.5 281.5s-103 249.833 -103 392.5s34.333 273.5 103 392.5s162.5 212.833 281.5 281.5s249.833 103 392.5 103s273.5 -34.333 392.5 -103
s212.667 -162.5 281 -281.5s102.5 -249.833 102.5 -392.5c0 -106.667 -20.167 -208 -60.5 -304s-95 -178.5 -164 -247.5s-151.5 -123.833 -247.5 -164.5s-197.333 -61 -304 -61z" />
    <glyph glyph-name="uni24CB" unicode="V&#x20dd;" 
d="M695 348l-194 692h256l96 -493h8l96 493h255l-193 -692h-324zM857 144c104 0 199.5 25.667 286.5 77s155.5 121.166 205.5 209.499s75 184.833 75 289.5s-25 201.167 -75 289.5s-118.5 158.166 -205.5 209.499s-182.5 77 -286.5 77s-199.5 -25.667 -286.5 -77
s-155.5 -121.166 -205.5 -209.499s-75 -184.833 -75 -289.5s25 -201.167 75 -289.5s118.5 -158.166 205.5 -209.499s182.5 -77 286.5 -77zM857 -57c-142.667 0 -273.5 34.333 -392.5 103s-212.833 162.5 -281.5 281.5s-103 249.833 -103 392.5s34.333 273.5 103 392.5
s162.5 212.833 281.5 281.5s249.833 103 392.5 103s273.5 -34.333 392.5 -103s212.667 -162.5 281 -281.5s102.5 -249.833 102.5 -392.5c0 -106.667 -20.167 -208 -60.5 -304s-95 -178.5 -164 -247.5s-151.5 -123.833 -247.5 -164.5s-197.333 -61 -304 -61z" />
    <glyph glyph-name="uni24CC" unicode="W&#x20dd;" 
d="M853 754l-85 -398h-195l-145 692h198l62 -440h7l85 440h154l85 -440h7l62 440h197l-144 -692h-195l-86 398h-7zM857 144c104 0 199.5 25.667 286.5 77s155.5 121.166 205.5 209.499s75 184.833 75 289.5s-25 201.167 -75 289.5s-118.5 158.166 -205.5 209.499
s-182.5 77 -286.5 77s-199.5 -25.667 -286.5 -77s-155.5 -121.166 -205.5 -209.499s-75 -184.833 -75 -289.5s25 -201.167 75 -289.5s118.5 -158.166 205.5 -209.499s182.5 -77 286.5 -77zM857 -57c-142.667 0 -273.5 34.333 -392.5 103s-212.833 162.5 -281.5 281.5
s-103 249.833 -103 392.5s34.333 273.5 103 392.5s162.5 212.833 281.5 281.5s249.833 103 392.5 103s273.5 -34.333 392.5 -103s212.667 -162.5 281 -281.5s102.5 -249.833 102.5 -392.5c0 -106.667 -20.167 -208 -60.5 -304s-95 -178.5 -164 -247.5
s-151.5 -123.833 -247.5 -164.5s-197.333 -61 -304 -61z" />
    <glyph glyph-name="uni24CD" unicode="X&#x20dd;" 
d="M1201 1072l-207 -347l207 -345h-244l-100 215h-7l-98 -215h-255l213 346l-213 346h258l97 -216h7l100 216h242zM857 144c104 0 199.5 25.667 286.5 77s155.5 121.166 205.5 209.499s75 184.833 75 289.5s-25 201.167 -75 289.5s-118.5 158.166 -205.5 209.499
s-182.5 77 -286.5 77s-199.5 -25.667 -286.5 -77s-155.5 -121.166 -205.5 -209.499s-75 -184.833 -75 -289.5s25 -201.167 75 -289.5s118.5 -158.166 205.5 -209.499s182.5 -77 286.5 -77zM857 -57c-142.667 0 -273.5 34.333 -392.5 103s-212.833 162.5 -281.5 281.5
s-103 249.833 -103 392.5s34.333 273.5 103 392.5s162.5 212.833 281.5 281.5s249.833 103 392.5 103s273.5 -34.333 392.5 -103s212.667 -162.5 281 -281.5s102.5 -249.833 102.5 -392.5c0 -106.667 -20.167 -208 -60.5 -304s-95 -178.5 -164 -247.5
s-151.5 -123.833 -247.5 -164.5s-197.333 -61 -304 -61z" />
    <glyph glyph-name="uni24CE" unicode="Y&#x20dd;" 
d="M982 359h-251v205l-234 488h259l98 -265h7l97 265h259l-235 -487v-206zM857 144c104 0 199.5 25.667 286.5 77s155.5 121.166 205.5 209.499s75 184.833 75 289.5s-25 201.167 -75 289.5s-118.5 158.166 -205.5 209.499s-182.5 77 -286.5 77s-199.5 -25.667 -286.5 -77
s-155.5 -121.166 -205.5 -209.499s-75 -184.833 -75 -289.5s25 -201.167 75 -289.5s118.5 -158.166 205.5 -209.499s182.5 -77 286.5 -77zM857 -57c-142.667 0 -273.5 34.333 -392.5 103s-212.833 162.5 -281.5 281.5s-103 249.833 -103 392.5s34.333 273.5 103 392.5
s162.5 212.833 281.5 281.5s249.833 103 392.5 103s273.5 -34.333 392.5 -103s212.667 -162.5 281 -281.5s102.5 -249.833 102.5 -392.5c0 -106.667 -20.167 -208 -60.5 -304s-95 -178.5 -164 -247.5s-151.5 -123.833 -247.5 -164.5s-197.333 -61 -304 -61z" />
    <glyph glyph-name="uni24CF" unicode="Z&#x20dd;" 
d="M580 380v148l267 352v8h-272v184h557v-149l-269 -351v-9h279v-183h-562zM857 144c104 0 199.5 25.667 286.5 77s155.5 121.166 205.5 209.499s75 184.833 75 289.5s-25 201.167 -75 289.5s-118.5 158.166 -205.5 209.499s-182.5 77 -286.5 77s-199.5 -25.667 -286.5 -77
s-155.5 -121.166 -205.5 -209.499s-75 -184.833 -75 -289.5s25 -201.167 75 -289.5s118.5 -158.166 205.5 -209.499s182.5 -77 286.5 -77zM857 -57c-142.667 0 -273.5 34.333 -392.5 103s-212.833 162.5 -281.5 281.5s-103 249.833 -103 392.5s34.333 273.5 103 392.5
s162.5 212.833 281.5 281.5s249.833 103 392.5 103s273.5 -34.333 392.5 -103s212.667 -162.5 281 -281.5s102.5 -249.833 102.5 -392.5c0 -106.667 -20.167 -208 -60.5 -304s-95 -178.5 -164 -247.5s-151.5 -123.833 -247.5 -164.5s-197.333 -61 -304 -61z" />
    <glyph glyph-name="uni24EA" unicode="&#x23;&#x20dd;" 
d="M857 546c53.333 0 80 59.333 80 178c0 118 -26.667 177 -80 177c-54 0 -81 -59 -81 -177c0 -118.667 27 -178 81 -178zM854 368c-92.667 0 -166.167 31.667 -220.5 95s-81.5 150.333 -81.5 261c0 110 27.167 196.667 81.5 260s127.833 95 220.5 95s167 -31.667 223 -95
s84 -150 84 -260s-28 -196.833 -84 -260.5s-130.333 -95.5 -223 -95.5zM857 144c104 0 199.5 25.667 286.5 77s155.5 121.166 205.5 209.499s75 184.833 75 289.5s-25 201.167 -75 289.5s-118.5 158.166 -205.5 209.499s-182.5 77 -286.5 77s-199.5 -25.667 -286.5 -77
s-155.5 -121.166 -205.5 -209.499s-75 -184.833 -75 -289.5s25 -201.167 75 -289.5s118.5 -158.166 205.5 -209.499s182.5 -77 286.5 -77zM857 -57c-142.667 0 -273.5 34.333 -392.5 103s-212.833 162.5 -281.5 281.5s-103 249.833 -103 392.5s34.333 273.5 103 392.5
s162.5 212.833 281.5 281.5s249.833 103 392.5 103s273.5 -34.333 392.5 -103s212.667 -162.5 281 -281.5s102.5 -249.833 102.5 -392.5c0 -106.667 -20.167 -208 -60.5 -304s-95 -178.5 -164 -247.5s-151.5 -123.833 -247.5 -164.5s-197.333 -61 -304 -61z" />
    <glyph glyph-name="uni24FF" unicode="&#x30;&#x20dd;&#x25cf;" 
d="M856 524c-54.667 0 -82 66.667 -82 200c0 132.667 27.333 199 82 199s82 -66.333 82 -199c0 -133.333 -27.333 -200 -82 -200zM853 338c100.667 0 181.167 34.333 241.5 103s90.5 163 90.5 283c0 119.333 -30.167 213.333 -90.5 282s-140.833 103 -241.5 103
s-180.167 -34.167 -238.5 -102.5s-87.5 -162.5 -87.5 -282.5c0 -120.667 29.167 -215.167 87.5 -283.5s137.833 -102.5 238.5 -102.5zM857 -55c-104.667 0 -205 20.667 -301 62s-178.667 96.666 -248 165.999s-124.666 152 -165.999 248s-62 196.333 -62 301
s20.667 205 62 301s96.666 178.667 165.999 248s152 124.5 248 165.5s196.333 61.5 301 61.5c70 0 138.5 -9.33301 205.5 -28s128.833 -44.667 185.5 -78s109 -74 157 -122s88.667 -100.333 122 -157s59.333 -118.5 78 -185.5s28 -135.5 28 -205.5
c0 -104.667 -20.5 -205 -61.5 -301s-96.167 -178.667 -165.5 -248s-152 -124.666 -248 -165.999s-196.333 -62 -301 -62z" />
    <glyph glyph-name="uni278A" unicode="&#x31;&#x20dd;&#x25cf;" 
d="M1025 351v746h-260l-179 -116v-224l170 113h7v-519h262zM857 -55c-104.667 0 -205 20.667 -301 62s-178.667 96.666 -248 165.999s-124.666 152 -165.999 248s-62 196.333 -62 301s20.667 205 62 301s96.666 178.667 165.999 248s152 124.5 248 165.5
s196.333 61.5 301 61.5c70 0 138.5 -9.33301 205.5 -28s128.833 -44.667 185.5 -78s109 -74 157 -122s88.667 -100.333 122 -157s59.333 -118.5 78 -185.5s28 -135.5 28 -205.5c0 -104.667 -20.5 -205 -61.5 -301s-96.167 -178.667 -165.5 -248s-152 -124.666 -248 -165.999
s-196.333 -62 -301 -62z" />
    <glyph glyph-name="uni278B" unicode="&#x32;&#x20dd;&#x25cf;" 
d="M774 834l-0.000976562 2.99902c0 26.667 6.16699 47.667 18.5 63s29.5 23 51.5 23c19.333 0 34.833 -5.16699 46.5 -15.5s17.5 -24.166 17.5 -41.499c0 -20.667 -7.16699 -40.834 -21.5 -60.501s-40.5 -46.5 -78.5 -80.5l-247 -216v-160h602v203h-268v4l105 94
c52 44 89.5 83.833 112.5 119.5s34.5 74.5 34.5 116.5c0 62.667 -27.167 115.334 -81.5 158.001s-122.166 64 -203.499 64c-97.333 0 -174.5 -25 -231.5 -75s-85.5 -115.333 -85.5 -196v-3h229zM856.999 -55.001c-104.667 0 -205 20.667 -301 62
s-178.667 96.666 -248 165.999s-124.666 152 -165.999 248s-62 196.333 -62 301s20.667 205 62 301s96.666 178.667 165.999 248s152 124.5 248 165.5s196.333 61.5 301 61.5c70 0 138.5 -9.33301 205.5 -28s128.833 -44.667 185.5 -78s109 -74 157 -122
s88.667 -100.333 122 -157s59.333 -118.5 78 -185.5s28 -135.5 28 -205.5c0 -104.667 -20.5 -205 -61.5 -301s-96.167 -178.667 -165.5 -248s-152 -124.666 -248 -165.999s-196.333 -62 -301 -62z" />
    <glyph glyph-name="uni278C" unicode="&#x33;&#x20dd;&#x25cf;" 
d="M773 644h76.002c26 0 46.667 -5.5 62 -16.5s23 -25.833 23 -44.5s-7.5 -33.5 -22.5 -44.5s-35.5 -16.5 -61.5 -16.5c-26.667 0 -48.167 6.5 -64.5 19.5s-24.833 30.5 -25.5 52.5h-233c0.666992 -74.667 30.667 -135.834 90 -183.501s137 -71.5 233 -71.5
c98.667 0 178 20.5 238 61.5s90 96.167 90 165.5c-0.666992 46.667 -16.334 86.334 -47.001 119.001s-67.334 51 -110.001 55v8c36.667 5.33301 68.834 22.833 96.501 52.5s41.5 64.167 41.5 103.5c-0.666992 61.333 -29.167 110.833 -85.5 148.5s-130.5 56.5 -222.5 56.5
c-102 -0.666992 -180 -22.667 -234 -66s-83 -106 -87 -188h235c0 22.667 7.16699 40.667 21.5 54s34.5 20 60.5 20c20.667 0 37.667 -5.5 51 -16.5s20.333 -24.5 21 -40.5c0 -18 -6.83301 -32.333 -20.5 -43s-31.834 -16 -54.501 -16h-71v-169zM857.002 -55
c-104.667 0 -205 20.667 -301 62s-178.667 96.666 -248 165.999s-124.666 152 -165.999 248s-62 196.333 -62 301s20.667 205 62 301s96.666 178.667 165.999 248s152 124.5 248 165.5s196.333 61.5 301 61.5c70 0 138.5 -9.33301 205.5 -28s128.833 -44.667 185.5 -78
s109 -74 157 -122s88.667 -100.333 122 -157s59.333 -118.5 78 -185.5s28 -135.5 28 -205.5c0 -104.667 -20.5 -205 -61.5 -301s-96.167 -178.667 -165.5 -248s-152 -124.666 -248 -165.999s-196.333 -62 -301 -62z" />
    <glyph glyph-name="uni278D" unicode="&#x34;&#x20dd;&#x25cf;" 
d="M740 1097c-100.667 -176 -179 -324.333 -235 -445v-191h366v-110h212v110h103v191h-103v445h-343zM725 652v1c40 93.333 86.667 187.333 140 282h6v-283h-146zM857 -55c-104.667 0 -205 20.667 -301 62s-178.667 96.666 -248 165.999s-124.666 152 -165.999 248
s-62 196.333 -62 301s20.667 205 62 301s96.666 178.667 165.999 248s152 124.5 248 165.5s196.333 61.5 301 61.5c70 0 138.5 -9.33301 205.5 -28s128.833 -44.667 185.5 -78s109 -74 157 -122s88.667 -100.333 122 -157s59.333 -118.5 78 -185.5s28 -135.5 28 -205.5
c0 -104.667 -20.5 -205 -61.5 -301s-96.167 -178.667 -165.5 -248s-152 -124.666 -248 -165.999s-196.333 -62 -301 -62z" />
    <glyph glyph-name="uni278E" unicode="&#x35;&#x20dd;&#x25cf;" 
d="M549 593c0.666992 -73.333 30 -132.834 88 -178.501s134 -68.5 228 -68.5c100 0 179.167 24.833 237.5 74.5s87.5 117.834 87.5 204.501c0 73.333 -22.5 131.666 -67.5 174.999s-104.5 65 -178.5 65c-38.667 0 -72.667 -6.66699 -102 -20
s-49.666 -30.666 -60.999 -51.999h-8l9 139h355v174h-547l-27 -452h220c6.66699 14.667 17.5 26.834 32.5 36.501s31.833 14.5 50.5 14.5c26 0 47.167 -8.16699 63.5 -24.5s24.5 -37.833 24.5 -64.5s-8.5 -48.334 -25.5 -65.001s-37.833 -25 -62.5 -25
c-22.667 0 -42.334 6.16699 -59.001 18.5s-26.667 28.5 -30 48.5h-228zM857 -55.001c-104.667 0 -205 20.667 -301 62s-178.667 96.666 -248 165.999s-124.666 152 -165.999 248s-62 196.333 -62 301s20.667 205 62 301s96.666 178.667 165.999 248s152 124.5 248 165.5
s196.333 61.5 301 61.5c70 0 138.5 -9.33301 205.5 -28s128.833 -44.667 185.5 -78s109 -74 157 -122s88.667 -100.333 122 -157s59.333 -118.5 78 -185.5s28 -135.5 28 -205.5c0 -104.667 -20.5 -205 -61.5 -301s-96.167 -178.667 -165.5 -248s-152 -124.666 -248 -165.999
s-196.333 -62 -301 -62z" />
    <glyph glyph-name="uni278F" unicode="&#x36;&#x20dd;&#x25cf;" 
d="M1181 611c0 72 -21.001 127.5 -63.001 166.5s-99.333 58.5 -172 58.5c-40.667 0 -77 -8.16699 -109 -24.5s-56.333 -38.5 -73 -66.5l-6 -1c-3.33301 10 -5 21 -5 33c-0.666992 46 9.16602 83.5 29.499 112.5s46.5 43.5 78.5 43.5c34.667 0 61 -14.667 79 -44h225
c-7.33301 62.667 -39.166 115.167 -95.499 157.5s-125.166 63.5 -206.499 63.5c-106.667 0 -191 -33.833 -253 -101.5s-93 -161.167 -93 -280.5c0 -98 20 -180.333 60 -247c63.333 -95.333 158.333 -143 285 -143c94.667 0 171.5 25 230.5 75s88.5 116 88.5 198z
M769.999 606c0 26.667 8.16699 48.166 24.5 64.499s37.833 24.5 64.5 24.5c26 0 47.667 -8.16699 65 -24.5s26 -38.166 26 -65.499c0 -28 -8.33301 -50 -25 -66s-38.667 -24 -66 -24c-26.667 0 -48.167 8.16699 -64.5 24.5s-24.5 38.5 -24.5 66.5zM856.999 -55.001
c-104.667 0 -205 20.667 -301 62s-178.667 96.666 -248 165.999s-124.666 152 -165.999 248s-62 196.333 -62 301s20.667 205 62 301s96.666 178.667 165.999 248s152 124.5 248 165.5s196.333 61.5 301 61.5c70 0 138.5 -9.33301 205.5 -28s128.833 -44.667 185.5 -78
s109 -74 157 -122s88.667 -100.333 122 -157s59.333 -118.5 78 -185.5s28 -135.5 28 -205.5c0 -104.667 -20.5 -205 -61.5 -301s-96.167 -178.667 -165.5 -248s-152 -124.666 -248 -165.999s-196.333 -62 -301 -62z" />
    <glyph glyph-name="uni2790" unicode="&#x37;&#x20dd;&#x25cf;" 
d="M550 1095v-202h353v-4l-298 -541h279l281 545v202h-615zM857 -55c-104.667 0 -205 20.667 -301 62s-178.667 96.666 -248 165.999s-124.666 152 -165.999 248s-62 196.333 -62 301s20.667 205 62 301s96.666 178.667 165.999 248s152 124.5 248 165.5
s196.333 61.5 301 61.5c70 0 138.5 -9.33301 205.5 -28s128.833 -44.667 185.5 -78s109 -74 157 -122s88.667 -100.333 122 -157s59.333 -118.5 78 -185.5s28 -135.5 28 -205.5c0 -104.667 -20.5 -205 -61.5 -301s-96.167 -178.667 -165.5 -248s-152 -124.666 -248 -165.999
s-196.333 -62 -301 -62z" />
    <glyph glyph-name="uni2791" unicode="&#x38;&#x20dd;&#x25cf;" 
d="M856 800c-23.333 0 -42.333 7 -57 21s-22 32.333 -22 55c0 23.333 7.33301 42.166 22 56.499s33.667 21.5 57 21.5s42.333 -7.16699 57 -21.5s22 -33.166 22 -56.499c0 -22.667 -7.33301 -41 -22 -55s-33.667 -21 -57 -21zM856 495c-28 0 -50.5 8.16699 -67.5 24.5
s-25.5 37.833 -25.5 64.5c0 26 8.5 47.333 25.5 64s39.5 25 67.5 25c27.333 0 49.833 -8.33301 67.5 -25s26.5 -38 26.5 -64c0 -26.667 -8.83301 -48.167 -26.5 -64.5s-40.167 -24.5 -67.5 -24.5zM856 338c107.333 0 192.001 20.167 254.001 60.5s93 95.833 93 166.5
c0 47.333 -15.167 86.833 -45.5 118.5s-71.833 51.167 -124.5 58.5v4c92 26.667 138 79.334 138 158.001c0 62.667 -28.333 112.5 -85 149.5s-133.334 55.5 -230.001 55.5s-173.167 -18.333 -229.5 -55s-84.5 -86.667 -84.5 -150c0 -40.667 11 -73.834 33 -99.501
s57 -45.167 105 -58.5v-4c-52.667 -7.33301 -94.167 -26.833 -124.5 -58.5s-45.5 -71.167 -45.5 -118.5c0 -70.667 31 -126.167 93 -166.5s146.333 -60.5 253 -60.5zM857.001 -55c-104.667 0 -205 20.667 -301 62s-178.667 96.666 -248 165.999s-124.666 152 -165.999 248
s-62 196.333 -62 301s20.667 205 62 301s96.666 178.667 165.999 248s152 124.5 248 165.5s196.333 61.5 301 61.5c70 0 138.5 -9.33301 205.5 -28s128.833 -44.667 185.5 -78s109 -74 157 -122s88.667 -100.333 122 -157s59.333 -118.5 78 -185.5s28 -135.5 28 -205.5
c0 -104.667 -20.5 -205 -61.5 -301s-96.167 -178.667 -165.5 -248s-152 -124.666 -248 -165.999s-196.333 -62 -301 -62z" />
    <glyph glyph-name="uni2792" unicode="&#x39;&#x20dd;&#x25cf;" 
d="M935 841c0 -27.333 -8.16797 -48.999 -24.501 -64.999s-37.5 -24 -63.5 -24c-26.667 0 -48.5 8.16699 -65.5 24.5s-25.5 38.166 -25.5 65.499s8.33301 49.333 25 66s38.334 25 65.001 25c27.333 0 49 -8.16699 65 -24.5s24 -38.833 24 -67.5zM540.999 557.001
c7.33301 -63.333 39.001 -115.665 95.001 -156.998s125 -62 207 -62c107.333 0 191.666 33.5 252.999 100.5s92 159.833 92 278.5c0 125.333 -31.333 222.166 -94 290.499s-146 102.5 -250 102.5c-94 0 -170.667 -25 -230 -75s-89 -115.667 -89 -197
c0 -72.667 21 -128.834 63 -168.501s99.667 -59.5 173 -59.5c40.667 0 77 8.33301 109 25s56 38.667 72 66h6c6.66699 -52 0.5 -96 -18.5 -132s-47.5 -54 -85.5 -54c-35.333 0 -61 14 -77 42h-226zM857 -54.998c-104.667 0 -205 20.667 -301 62
s-178.667 96.666 -248 165.999s-124.666 152 -165.999 248s-62 196.333 -62 301s20.667 205 62 301s96.666 178.667 165.999 248s152 124.5 248 165.5s196.333 61.5 301 61.5c70 0 138.5 -9.33301 205.5 -28s128.833 -44.667 185.5 -78s109 -74 157 -122
s88.667 -100.333 122 -157s59.333 -118.5 78 -185.5s28 -135.5 28 -205.5c0 -104.667 -20.5 -205 -61.5 -301s-96.167 -178.667 -165.5 -248s-152 -124.666 -248 -165.999s-196.333 -62 -301 -62z" />
    <glyph glyph-name="uni1F130" unicode="A&#x20de;" 
d="M797 683h119l-55 225h-8zM733 403h-235l214 692h290l213 -692h-235l-27 114h-192zM367 1475h979c72.667 0 134.5 -25.167 185.5 -75.5s76.5 -111.166 76.5 -182.499v-990c0 -71.333 -25.5 -132.166 -76.5 -182.499s-112.833 -75.5 -185.5 -75.5h-979
c-72 0 -133.5 25.167 -184.5 75.5s-76.5 111.166 -76.5 182.499v990c0 71.333 25.5 132.166 76.5 182.499s112.5 75.5 184.5 75.5zM1401 1161c0 34.667 -12.333 63.834 -37 87.501s-55 35.5 -91 35.5h-833c-35.333 0 -65.333 -11.833 -90 -35.5s-37 -52.834 -37 -87.501
v-878c0 -34 12.5 -63 37.5 -87s54.833 -36 89.5 -36h833c35.333 0 65.5 12 90.5 36s37.5 53 37.5 87v878z" />
    <glyph glyph-name="uni1F131" unicode="B&#x20de;" 
d="M571 380l0.000976562 691.999h369c67.333 0 120.5 -15.167 159.5 -45.5s58.5 -71.833 58.5 -124.5c0 -39.333 -12.667 -72.666 -38 -99.999s-58.333 -44.333 -99 -51v-7c51.333 -6 91.5 -24.333 120.5 -55s43.5 -70.667 43.5 -120c0 -56 -21.833 -101.5 -65.5 -136.5
s-99.834 -52.5 -168.501 -52.5h-380zM787.001 928.999l-0.000976562 -131h69c58 0 87 22.333 87 67c0 19.333 -7.16699 34.833 -21.5 46.5s-33.166 17.5 -56.499 17.5h-78zM786 675.999l-0.000976562 -144h75c64 0 96 24.333 96 73c0 22 -7.66699 39.333 -23 52
s-36.666 19 -63.999 19h-84zM366.999 1475h979c72.667 0 134.5 -25.167 185.5 -75.5s76.5 -111.166 76.5 -182.499v-990c0 -71.333 -25.5 -132.166 -76.5 -182.499s-112.833 -75.5 -185.5 -75.5h-979c-72 0 -133.5 25.167 -184.5 75.5s-76.5 111.166 -76.5 182.499v990
c0 71.333 25.5 132.166 76.5 182.499s112.5 75.5 184.5 75.5zM1401 1161c0 34.667 -12.333 63.834 -37 87.501s-55 35.5 -91 35.5h-833c-35.333 0 -65.333 -11.833 -90 -35.5s-37 -52.834 -37 -87.501v-878c0 -34 12.5 -63 37.5 -87s54.833 -36 89.5 -36h833
c35.333 0 65.5 12 90.5 36s37.5 53 37.5 87v878z" />
    <glyph glyph-name="uni1F132" unicode="C&#x20de;" 
d="M967 647l213.004 -0.000976562c-3.33301 -82 -34.5 -149 -93.5 -201s-135.167 -78 -228.5 -78c-100.667 0 -183.5 32 -248.5 96s-97.5 151 -97.5 261s32.5 197 97.5 261s147.833 96 248.5 96c93.333 0 169.666 -26.167 228.999 -78.5s90.666 -119.833 93.999 -202.5h-213
c-1.33301 26.667 -12.333 48.834 -33 66.501s-45.334 26.5 -74.001 26.5c-35.333 0 -63.5 -14.833 -84.5 -44.5s-31.5 -71.167 -31.5 -124.5c0 -54 10.333 -95.667 31 -125s49 -44 85 -44c28.667 0 53.167 8.66699 73.5 26s31.166 39 32.499 65zM367.004 1475h979
c72.667 0 134.5 -25.167 185.5 -75.5s76.5 -111.166 76.5 -182.499v-990c0 -71.333 -25.5 -132.166 -76.5 -182.499s-112.833 -75.5 -185.5 -75.5h-979c-72 0 -133.5 25.167 -184.5 75.5s-76.5 111.166 -76.5 182.499v990c0 71.333 25.5 132.166 76.5 182.499
s112.5 75.5 184.5 75.5zM1401 1161c0 34.667 -12.333 63.834 -37 87.501s-55 35.5 -91 35.5h-833c-35.333 0 -65.333 -11.833 -90 -35.5s-37 -52.834 -37 -87.501v-878c0 -34 12.5 -63 37.5 -87s54.833 -36 89.5 -36h833c35.333 0 65.5 12 90.5 36s37.5 53 37.5 87v878z" />
    <glyph glyph-name="uni1F133" unicode="D&#x20de;" 
d="M567 1072l320 -0.000976562c105.333 0 185.833 -29.833 241.5 -89.5s83.5 -145.5 83.5 -257.5c0 -111.333 -27.833 -196.666 -83.5 -255.999s-136.167 -89 -241.5 -89h-320v692zM792 893.999v-336.999h55c45.333 0 78 13.167 98 39.5s30 69.166 30 128.499
s-10 102.333 -30 129s-52.667 40 -98 40h-55zM367 1475h979c72.667 0 134.5 -25.167 185.5 -75.5s76.5 -111.166 76.5 -182.499v-990c0 -71.333 -25.5 -132.166 -76.5 -182.499s-112.833 -75.5 -185.5 -75.5h-979c-72 0 -133.5 25.167 -184.5 75.5
s-76.5 111.166 -76.5 182.499v990c0 71.333 25.5 132.166 76.5 182.499s112.5 75.5 184.5 75.5zM1401 1161c0 34.667 -12.333 63.834 -37 87.501s-55 35.5 -91 35.5h-833c-35.333 0 -65.333 -11.833 -90 -35.5s-37 -52.834 -37 -87.501v-878c0 -34 12.5 -63 37.5 -87
s54.833 -36 89.5 -36h833c35.333 0 65.5 12 90.5 36s37.5 53 37.5 87v878z" />
    <glyph glyph-name="uni1F134" unicode="E&#x20de;" 
d="M1127 554v-174h-515v692h515v-174h-293v-98h274v-147h-274v-99h293zM367 1475h979c72.667 0 134.5 -25.167 185.5 -75.5s76.5 -111.166 76.5 -182.499v-990c0 -71.333 -25.5 -132.166 -76.5 -182.499s-112.833 -75.5 -185.5 -75.5h-979c-72 0 -133.5 25.167 -184.5 75.5
s-76.5 111.166 -76.5 182.499v990c0 71.333 25.5 132.166 76.5 182.499s112.5 75.5 184.5 75.5zM1401 1161c0 34.667 -12.333 63.834 -37 87.501s-55 35.5 -91 35.5h-833c-35.333 0 -65.333 -11.833 -90 -35.5s-37 -52.834 -37 -87.501v-878c0 -34 12.5 -63 37.5 -87
s54.833 -36 89.5 -36h833c35.333 0 65.5 12 90.5 36s37.5 53 37.5 87v878z" />
    <glyph glyph-name="uni1F135" unicode="F&#x20de;" 
d="M855 380h-233v692h514v-178h-281v-104h255v-177h-255v-233zM367 1475h979c72.667 0 134.5 -25.167 185.5 -75.5s76.5 -111.166 76.5 -182.499v-990c0 -71.333 -25.5 -132.166 -76.5 -182.499s-112.833 -75.5 -185.5 -75.5h-979c-72 0 -133.5 25.167 -184.5 75.5
s-76.5 111.166 -76.5 182.499v990c0 71.333 25.5 132.166 76.5 182.499s112.5 75.5 184.5 75.5zM1401 1161c0 34.667 -12.333 63.834 -37 87.501s-55 35.5 -91 35.5h-833c-35.333 0 -65.333 -11.833 -90 -35.5s-37 -52.834 -37 -87.501v-878c0 -34 12.5 -63 37.5 -87
s54.833 -36 89.5 -36h833c35.333 0 65.5 12 90.5 36s37.5 53 37.5 87v878z" />
    <glyph glyph-name="uni1F136" unicode="G&#x20de;" 
d="M969 616l-0.00195312 16.999h-109v137h322v-121c0 -80.667 -29.5 -147.667 -88.5 -201s-137.5 -80 -235.5 -80c-103.333 0 -186.833 32.833 -250.5 98.5s-95.5 151.834 -95.5 258.501s31.833 192.834 95.5 258.501s147.167 98.5 250.5 98.5c88 0 161.667 -23 221 -69
s93.666 -107 102.999 -183h-221c-3.33301 24 -13.666 43.167 -30.999 57.5s-40 21.5 -68 21.5c-35.333 0 -63.666 -16.833 -84.999 -50.5s-32 -78.167 -32 -133.5c0 -56.667 10.833 -102.834 32.5 -138.501s49.834 -53.5 84.501 -53.5c33.333 0 59.5 7.66699 78.5 23
s28.5 35.333 28.5 60zM366.998 1475h979c72.667 0 134.5 -25.167 185.5 -75.5s76.5 -111.166 76.5 -182.499v-990c0 -71.333 -25.5 -132.166 -76.5 -182.499s-112.833 -75.5 -185.5 -75.5h-979c-72 0 -133.5 25.167 -184.5 75.5s-76.5 111.166 -76.5 182.499v990
c0 71.333 25.5 132.166 76.5 182.499s112.5 75.5 184.5 75.5zM1401 1161c0 34.667 -12.333 63.834 -37 87.501s-55 35.5 -91 35.5h-833c-35.333 0 -65.333 -11.833 -90 -35.5s-37 -52.834 -37 -87.501v-878c0 -34 12.5 -63 37.5 -87s54.833 -36 89.5 -36h833
c35.333 0 65.5 12 90.5 36s37.5 53 37.5 87v878z" />
    <glyph glyph-name="uni1F137" unicode="H&#x20de;" 
d="M1176 380h-217v249h-204v-249h-217v692h217v-255h204v255h217v-692zM367 1475h979c72.667 0 134.5 -25.167 185.5 -75.5s76.5 -111.166 76.5 -182.499v-990c0 -71.333 -25.5 -132.166 -76.5 -182.499s-112.833 -75.5 -185.5 -75.5h-979c-72 0 -133.5 25.167 -184.5 75.5
s-76.5 111.166 -76.5 182.499v990c0 71.333 25.5 132.166 76.5 182.499s112.5 75.5 184.5 75.5zM1401 1161c0 34.667 -12.333 63.834 -37 87.501s-55 35.5 -91 35.5h-833c-35.333 0 -65.333 -11.833 -90 -35.5s-37 -52.834 -37 -87.501v-878c0 -34 12.5 -63 37.5 -87
s54.833 -36 89.5 -36h833c35.333 0 65.5 12 90.5 36s37.5 53 37.5 87v878z" />
    <glyph glyph-name="uni1F138" unicode="I&#x20de;" 
d="M985 380h-257v692h257v-692zM367 1475h979c72.667 0 134.5 -25.167 185.5 -75.5s76.5 -111.166 76.5 -182.499v-990c0 -71.333 -25.5 -132.166 -76.5 -182.499s-112.833 -75.5 -185.5 -75.5h-979c-72 0 -133.5 25.167 -184.5 75.5s-76.5 111.166 -76.5 182.499v990
c0 71.333 25.5 132.166 76.5 182.499s112.5 75.5 184.5 75.5zM1401 1161c0 34.667 -12.333 63.834 -37 87.501s-55 35.5 -91 35.5h-833c-35.333 0 -65.333 -11.833 -90 -35.5s-37 -52.834 -37 -87.501v-878c0 -34 12.5 -63 37.5 -87s54.833 -36 89.5 -36h833
c35.333 0 65.5 12 90.5 36s37.5 53 37.5 87v878z" />
    <glyph glyph-name="uni1F139" unicode="J&#x20de;" 
d="M540 639l229.999 0.000976562c0 -51.333 20 -77 60 -77c37.333 0 56 26.333 56 79v416h239v-422c0 -86.667 -26 -155.334 -78 -206.001s-122 -76 -210 -76c-91.333 0 -163.666 25.833 -216.999 77.5s-80 121.167 -80 208.5zM366.999 1475h979
c72.667 0 134.5 -25.167 185.5 -75.5s76.5 -111.166 76.5 -182.499v-990c0 -71.333 -25.5 -132.166 -76.5 -182.499s-112.833 -75.5 -185.5 -75.5h-979c-72 0 -133.5 25.167 -184.5 75.5s-76.5 111.166 -76.5 182.499v990c0 71.333 25.5 132.166 76.5 182.499
s112.5 75.5 184.5 75.5zM1401 1161c0 34.667 -12.333 63.834 -37 87.501s-55 35.5 -91 35.5h-833c-35.333 0 -65.333 -11.833 -90 -35.5s-37 -52.834 -37 -87.501v-878c0 -34 12.5 -63 37.5 -87s54.833 -36 89.5 -36h833c35.333 0 65.5 12 90.5 36s37.5 53 37.5 87v878z" />
    <glyph glyph-name="uni1F13A" unicode="K&#x20de;" 
d="M1200 1072l-211 -322l215 -370h-260l-130 231l-57 -70v-161h-209v692h209v-280h7l186 280h250zM367 1475h979c72.667 0 134.5 -25.167 185.5 -75.5s76.5 -111.166 76.5 -182.499v-990c0 -71.333 -25.5 -132.166 -76.5 -182.499s-112.833 -75.5 -185.5 -75.5h-979
c-72 0 -133.5 25.167 -184.5 75.5s-76.5 111.166 -76.5 182.499v990c0 71.333 25.5 132.166 76.5 182.499s112.5 75.5 184.5 75.5zM1401 1161c0 34.667 -12.333 63.834 -37 87.501s-55 35.5 -91 35.5h-833c-35.333 0 -65.333 -11.833 -90 -35.5s-37 -52.834 -37 -87.501
v-878c0 -34 12.5 -63 37.5 -87s54.833 -36 89.5 -36h833c35.333 0 65.5 12 90.5 36s37.5 53 37.5 87v878z" />
    <glyph glyph-name="uni1F13B" unicode="L&#x20de;" 
d="M1148 590v-195h-510v692h242v-497h268zM367 1475h979c72.667 0 134.5 -25.167 185.5 -75.5s76.5 -111.166 76.5 -182.499v-990c0 -71.333 -25.5 -132.166 -76.5 -182.499s-112.833 -75.5 -185.5 -75.5h-979c-72 0 -133.5 25.167 -184.5 75.5s-76.5 111.166 -76.5 182.499
v990c0 71.333 25.5 132.166 76.5 182.499s112.5 75.5 184.5 75.5zM1401 1161c0 34.667 -12.333 63.834 -37 87.501s-55 35.5 -91 35.5h-833c-35.333 0 -65.333 -11.833 -90 -35.5s-37 -52.834 -37 -87.501v-878c0 -34 12.5 -63 37.5 -87s54.833 -36 89.5 -36h833
c35.333 0 65.5 12 90.5 36s37.5 53 37.5 87v878z" />
    <glyph glyph-name="uni1F13C" unicode="M&#x20de;" 
d="M671 380h-170v692h221l133 -416h6l133 416h220v-692h-170v421h-7l-119 -375h-124l-116 375h-7v-421zM367 1475h979c72.667 0 134.5 -25.167 185.5 -75.5s76.5 -111.166 76.5 -182.499v-990c0 -71.333 -25.5 -132.166 -76.5 -182.499s-112.833 -75.5 -185.5 -75.5h-979
c-72 0 -133.5 25.167 -184.5 75.5s-76.5 111.166 -76.5 182.499v990c0 71.333 25.5 132.166 76.5 182.499s112.5 75.5 184.5 75.5zM1401 1161c0 34.667 -12.333 63.834 -37 87.501s-55 35.5 -91 35.5h-833c-35.333 0 -65.333 -11.833 -90 -35.5s-37 -52.834 -37 -87.501
v-878c0 -34 12.5 -63 37.5 -87s54.833 -36 89.5 -36h833c35.333 0 65.5 12 90.5 36s37.5 53 37.5 87v878z" />
    <glyph glyph-name="uni1F13D" unicode="N&#x20de;" 
d="M747 380h-201v692h161l253 -344h7v344h200v-692h-159l-254 350h-7v-350zM367 1475h979c72.667 0 134.5 -25.167 185.5 -75.5s76.5 -111.166 76.5 -182.499v-990c0 -71.333 -25.5 -132.166 -76.5 -182.499s-112.833 -75.5 -185.5 -75.5h-979
c-72 0 -133.5 25.167 -184.5 75.5s-76.5 111.166 -76.5 182.499v990c0 71.333 25.5 132.166 76.5 182.499s112.5 75.5 184.5 75.5zM1401 1161c0 34.667 -12.333 63.834 -37 87.501s-55 35.5 -91 35.5h-833c-35.333 0 -65.333 -11.833 -90 -35.5s-37 -52.834 -37 -87.501
v-878c0 -34 12.5 -63 37.5 -87s54.833 -36 89.5 -36h833c35.333 0 65.5 12 90.5 36s37.5 53 37.5 87v878z" />
    <glyph glyph-name="uni1F13E" unicode="O&#x20de;" 
d="M857 556c32.667 0 59.667 14.5 81 43.5s32 70.833 32 125.5s-10.667 96.5 -32 125.5s-48.333 43.5 -81 43.5s-59.667 -14.5 -81 -43.5s-32 -70.833 -32 -125.5s10.667 -96.5 32 -125.5s48.333 -43.5 81 -43.5zM857 368c-100.667 0 -183.5 31.833 -248.5 95.5
s-97.5 150.834 -97.5 261.501s32.5 197.834 97.5 261.501s147.833 95.5 248.5 95.5s183.5 -31.833 248.5 -95.5s97.5 -150.834 97.5 -261.501s-32.5 -197.834 -97.5 -261.501s-147.833 -95.5 -248.5 -95.5zM367 1475h979c72.667 0 134.5 -25.167 185.5 -75.5
s76.5 -111.166 76.5 -182.499v-990c0 -71.333 -25.5 -132.166 -76.5 -182.499s-112.833 -75.5 -185.5 -75.5h-979c-72 0 -133.5 25.167 -184.5 75.5s-76.5 111.166 -76.5 182.499v990c0 71.333 25.5 132.166 76.5 182.499s112.5 75.5 184.5 75.5zM1401 1161
c0 34.667 -12.333 63.834 -37 87.501s-55 35.5 -91 35.5h-833c-35.333 0 -65.333 -11.833 -90 -35.5s-37 -52.834 -37 -87.501v-878c0 -34 12.5 -63 37.5 -87s54.833 -36 89.5 -36h833c35.333 0 65.5 12 90.5 36s37.5 53 37.5 87v878z" />
    <glyph glyph-name="uni1F13F" unicode="P&#x20de;" 
d="M934 1072c80.667 0 145.167 -24.168 193.5 -72.501s72.5 -112.166 72.5 -191.499c0 -78 -24.333 -140.5 -73 -187.5s-114 -70.5 -196 -70.5h-89v-170h-241v692h333zM973 807.999c0 59.333 -27.333 89 -82 89h-66v-177h66c54.667 0 82 29.333 82 88zM367 1475h979
c72.667 0 134.5 -25.167 185.5 -75.5s76.5 -111.166 76.5 -182.499v-990c0 -71.333 -25.5 -132.166 -76.5 -182.499s-112.833 -75.5 -185.5 -75.5h-979c-72 0 -133.5 25.167 -184.5 75.5s-76.5 111.166 -76.5 182.499v990c0 71.333 25.5 132.166 76.5 182.499
s112.5 75.5 184.5 75.5zM1401 1161c0 34.667 -12.333 63.834 -37 87.501s-55 35.5 -91 35.5h-833c-35.333 0 -65.333 -11.833 -90 -35.5s-37 -52.834 -37 -87.501v-878c0 -34 12.5 -63 37.5 -87s54.833 -36 89.5 -36h833c35.333 0 65.5 12 90.5 36s37.5 53 37.5 87v878z" />
    <glyph glyph-name="uni1F140" unicode="Q&#x20de;" 
d="M1186 324l-223 -0.000976562l-24 53c-26 -6 -53.333 -9 -82 -9c-100.667 0 -183.5 31.833 -248.5 95.5s-97.5 150.834 -97.5 261.501s32.5 197.834 97.5 261.501s147.833 95.5 248.5 95.5s183.5 -31.833 248.5 -95.5s97.5 -150.834 97.5 -261.501
c0 -116 -35.667 -206.333 -107 -271zM857 555.999c7.33301 0 14.333 1 21 3l-39 89h102l10 -14c12.667 24 19 54.333 19 91c0 54.667 -10.667 96.5 -32 125.5s-48.333 43.5 -81 43.5s-59.667 -14.5 -81 -43.5s-32 -70.833 -32 -125.5s10.667 -96.5 32 -125.5
s48.333 -43.5 81 -43.5zM367 1475h979c72.667 0 134.5 -25.167 185.5 -75.5s76.5 -111.166 76.5 -182.499v-990c0 -71.333 -25.5 -132.166 -76.5 -182.499s-112.833 -75.5 -185.5 -75.5h-979c-72 0 -133.5 25.167 -184.5 75.5s-76.5 111.166 -76.5 182.499v990
c0 71.333 25.5 132.166 76.5 182.499s112.5 75.5 184.5 75.5zM1401 1161c0 34.667 -12.333 63.834 -37 87.501s-55 35.5 -91 35.5h-833c-35.333 0 -65.333 -11.833 -90 -35.5s-37 -52.834 -37 -87.501v-878c0 -34 12.5 -63 37.5 -87s54.833 -36 89.5 -36h833
c35.333 0 65.5 12 90.5 36s37.5 53 37.5 87v878z" />
    <glyph glyph-name="uni1F141" unicode="R&#x20de;" 
d="M893 1072c92 0 163.167 -20 213.5 -60s75.5 -96.333 75.5 -169c0 -48 -12 -88.833 -36 -122.5s-57.333 -57.167 -100 -70.5l151 -270h-241l-111 228h-68v-228h-211v692h327zM777 756h92c24.667 0 44.167 6.33301 58.5 19s21.5 30.667 21.5 54
c0 24 -6.83301 42.333 -20.5 55s-33.167 19 -58.5 19h-93v-147zM367 1475h979c72.667 0 134.5 -25.167 185.5 -75.5s76.5 -111.166 76.5 -182.499v-990c0 -71.333 -25.5 -132.166 -76.5 -182.499s-112.833 -75.5 -185.5 -75.5h-979c-72 0 -133.5 25.167 -184.5 75.5
s-76.5 111.166 -76.5 182.499v990c0 71.333 25.5 132.166 76.5 182.499s112.5 75.5 184.5 75.5zM1401 1161c0 34.667 -12.333 63.834 -37 87.501s-55 35.5 -91 35.5h-833c-35.333 0 -65.333 -11.833 -90 -35.5s-37 -52.834 -37 -87.501v-878c0 -34 12.5 -63 37.5 -87
s54.833 -36 89.5 -36h833c35.333 0 65.5 12 90.5 36s37.5 53 37.5 87v878z" />
    <glyph glyph-name="uni1F142" unicode="S&#x20de;" 
d="M548 587l222.001 -0.000976562c2.66699 -16.667 12.167 -30 28.5 -40s37.166 -15 62.499 -15c26.667 0 47.667 4.83301 63 14.5s23 22.834 23 39.501c0 14 -7 24.5 -21 31.5s-42 13.833 -84 20.5l-76 12c-67.333 10 -119 32.333 -155 67s-54 79.667 -54 135
c0 69.333 27.167 124.833 81.5 166.5s126.833 62.5 217.5 62.5c84 0 152.667 -19 206 -57s82.666 -89.333 87.999 -154h-215c-7.33301 34 -34 51 -80 51c-22.667 0 -40.667 -4.5 -54 -13.5s-20 -20.833 -20 -35.5c0 -14 7.16699 -25 21.5 -33s40.166 -14.333 77.499 -19
l87 -14c133.333 -20 200 -87 200 -201c0 -72 -28.167 -129.333 -84.5 -172s-132.166 -64 -227.499 -64c-92.667 0 -166.167 19.167 -220.5 57.5s-83.166 91.833 -86.499 160.5zM367.001 1475h979c72.667 0 134.5 -25.167 185.5 -75.5s76.5 -111.166 76.5 -182.499v-990
c0 -71.333 -25.5 -132.166 -76.5 -182.499s-112.833 -75.5 -185.5 -75.5h-979c-72 0 -133.5 25.167 -184.5 75.5s-76.5 111.166 -76.5 182.499v990c0 71.333 25.5 132.166 76.5 182.499s112.5 75.5 184.5 75.5zM1401 1161c0 34.667 -12.333 63.834 -37 87.501
s-55 35.5 -91 35.5h-833c-35.333 0 -65.333 -11.833 -90 -35.5s-37 -52.834 -37 -87.501v-878c0 -34 12.5 -63 37.5 -87s54.833 -36 89.5 -36h833c35.333 0 65.5 12 90.5 36s37.5 53 37.5 87v878z" />
    <glyph glyph-name="uni1F143" unicode="T&#x20de;" 
d="M978 360h-242v502h-187v191h616v-191h-187v-502zM367 1475h979c72.667 0 134.5 -25.167 185.5 -75.5s76.5 -111.166 76.5 -182.499v-990c0 -71.333 -25.5 -132.166 -76.5 -182.499s-112.833 -75.5 -185.5 -75.5h-979c-72 0 -133.5 25.167 -184.5 75.5
s-76.5 111.166 -76.5 182.499v990c0 71.333 25.5 132.166 76.5 182.499s112.5 75.5 184.5 75.5zM1401 1161c0 34.667 -12.333 63.834 -37 87.501s-55 35.5 -91 35.5h-833c-35.333 0 -65.333 -11.833 -90 -35.5s-37 -52.834 -37 -87.501v-878c0 -34 12.5 -63 37.5 -87
s54.833 -36 89.5 -36h833c35.333 0 65.5 12 90.5 36s37.5 53 37.5 87v878z" />
    <glyph glyph-name="uni1F144" unicode="U&#x20de;" 
d="M857 536c25.333 0 46 7.66699 62 23s24 35.666 24 60.999v433h230v-454c0 -72 -29.167 -131.667 -87.5 -179s-134.5 -71 -228.5 -71s-170.167 23.667 -228.5 71s-87.5 107 -87.5 179v454h230v-433c0 -25.333 7.83301 -45.666 23.5 -60.999s36.5 -23 62.5 -23zM367 1475
h979c72.667 0 134.5 -25.167 185.5 -75.5s76.5 -111.166 76.5 -182.499v-990c0 -71.333 -25.5 -132.166 -76.5 -182.499s-112.833 -75.5 -185.5 -75.5h-979c-72 0 -133.5 25.167 -184.5 75.5s-76.5 111.166 -76.5 182.499v990c0 71.333 25.5 132.166 76.5 182.499
s112.5 75.5 184.5 75.5zM1401 1161c0 34.667 -12.333 63.834 -37 87.501s-55 35.5 -91 35.5h-833c-35.333 0 -65.333 -11.833 -90 -35.5s-37 -52.834 -37 -87.501v-878c0 -34 12.5 -63 37.5 -87s54.833 -36 89.5 -36h833c35.333 0 65.5 12 90.5 36s37.5 53 37.5 87v878z" />
    <glyph glyph-name="uni1F145" unicode="V&#x20de;" 
d="M695 353l-194 692h256l96 -493h8l96 493h255l-193 -692h-324zM367 1475h979c72.667 0 134.5 -25.167 185.5 -75.5s76.5 -111.166 76.5 -182.499v-990c0 -71.333 -25.5 -132.166 -76.5 -182.499s-112.833 -75.5 -185.5 -75.5h-979c-72 0 -133.5 25.167 -184.5 75.5
s-76.5 111.166 -76.5 182.499v990c0 71.333 25.5 132.166 76.5 182.499s112.5 75.5 184.5 75.5zM1401 1161c0 34.667 -12.333 63.834 -37 87.501s-55 35.5 -91 35.5h-833c-35.333 0 -65.333 -11.833 -90 -35.5s-37 -52.834 -37 -87.501v-878c0 -34 12.5 -63 37.5 -87
s54.833 -36 89.5 -36h833c35.333 0 65.5 12 90.5 36s37.5 53 37.5 87v878z" />
    <glyph glyph-name="uni1F146" unicode="W&#x20de;" 
d="M853 758l-85 -398h-195l-145 693h198l62 -440h7l85 440h154l85 -440h7l62 440h197l-144 -693h-195l-86 398h-7zM367 1475h979c72.667 0 134.5 -25.167 185.5 -75.5s76.5 -111.166 76.5 -182.499v-990c0 -71.333 -25.5 -132.166 -76.5 -182.499
s-112.833 -75.5 -185.5 -75.5h-979c-72 0 -133.5 25.167 -184.5 75.5s-76.5 111.166 -76.5 182.499v990c0 71.333 25.5 132.166 76.5 182.499s112.5 75.5 184.5 75.5zM1401 1161c0 34.667 -12.333 63.834 -37 87.501s-55 35.5 -91 35.5h-833
c-35.333 0 -65.333 -11.833 -90 -35.5s-37 -52.834 -37 -87.501v-878c0 -34 12.5 -63 37.5 -87s54.833 -36 89.5 -36h833c35.333 0 65.5 12 90.5 36s37.5 53 37.5 87v878z" />
    <glyph glyph-name="uni1F147" unicode="X&#x20de;" 
d="M1201 1072l-207 -347l207 -345h-244l-100 215h-7l-98 -215h-255l213 346l-213 346h258l97 -216h7l100 216h242zM367 1475h979c72.667 0 134.5 -25.167 185.5 -75.5s76.5 -111.166 76.5 -182.499v-990c0 -71.333 -25.5 -132.166 -76.5 -182.499
s-112.833 -75.5 -185.5 -75.5h-979c-72 0 -133.5 25.167 -184.5 75.5s-76.5 111.166 -76.5 182.499v990c0 71.333 25.5 132.166 76.5 182.499s112.5 75.5 184.5 75.5zM1401 1161c0 34.667 -12.333 63.834 -37 87.501s-55 35.5 -91 35.5h-833
c-35.333 0 -65.333 -11.833 -90 -35.5s-37 -52.834 -37 -87.501v-878c0 -34 12.5 -63 37.5 -87s54.833 -36 89.5 -36h833c35.333 0 65.5 12 90.5 36s37.5 53 37.5 87v878z" />
    <glyph glyph-name="uni1F148" unicode="Y&#x20de;" 
d="M982 360h-251v206l-234 487h259l98 -265h7l97 265h259l-235 -487v-206zM367 1475h979c72.667 0 134.5 -25.167 185.5 -75.5s76.5 -111.166 76.5 -182.499v-990c0 -71.333 -25.5 -132.166 -76.5 -182.499s-112.833 -75.5 -185.5 -75.5h-979
c-72 0 -133.5 25.167 -184.5 75.5s-76.5 111.166 -76.5 182.499v990c0 71.333 25.5 132.166 76.5 182.499s112.5 75.5 184.5 75.5zM1401 1161c0 34.667 -12.333 63.834 -37 87.501s-55 35.5 -91 35.5h-833c-35.333 0 -65.333 -11.833 -90 -35.5s-37 -52.834 -37 -87.501
v-878c0 -34 12.5 -63 37.5 -87s54.833 -36 89.5 -36h833c35.333 0 65.5 12 90.5 36s37.5 53 37.5 87v878z" />
    <glyph glyph-name="uni1F149" unicode="Z&#x20de;" 
d="M580 380v148l267 352v8h-272v184h557v-149l-269 -351v-9h279v-183h-562zM367 1475h979c72.667 0 134.5 -25.167 185.5 -75.5s76.5 -111.166 76.5 -182.499v-990c0 -71.333 -25.5 -132.166 -76.5 -182.499s-112.833 -75.5 -185.5 -75.5h-979
c-72 0 -133.5 25.167 -184.5 75.5s-76.5 111.166 -76.5 182.499v990c0 71.333 25.5 132.166 76.5 182.499s112.5 75.5 184.5 75.5zM1401 1161c0 34.667 -12.333 63.834 -37 87.501s-55 35.5 -91 35.5h-833c-35.333 0 -65.333 -11.833 -90 -35.5s-37 -52.834 -37 -87.501
v-878c0 -34 12.5 -63 37.5 -87s54.833 -36 89.5 -36h833c35.333 0 65.5 12 90.5 36s37.5 53 37.5 87v878z" />
    <glyph glyph-name="uni1F150" unicode="A&#x20dd;&#x25cf;" 
d="M933 661h-152l72 288h7zM723 379l30 121h208l31 -121h253l-230 746h-316l-230 -746h254zM857 -55c-104.667 0 -205 20.667 -301 62s-178.667 96.666 -248 165.999s-124.666 152 -165.999 248s-62 196.333 -62 301s20.667 205 62 301s96.666 178.667 165.999 248
s152 124.5 248 165.5s196.333 61.5 301 61.5c70 0 138.5 -9.33301 205.5 -28s128.833 -44.667 185.5 -78s109 -74 157 -122s88.667 -100.333 122 -157s59.333 -118.5 78 -185.5s28 -135.5 28 -205.5c0 -104.667 -20.5 -205 -61.5 -301s-96.167 -178.667 -165.5 -248
s-152 -124.666 -248 -165.999s-196.333 -62 -301 -62z" />
    <glyph glyph-name="uni1F151" unicode="B&#x20dd;&#x25cf;" 
d="M542 351l409.999 -0.000976562c74 0 135 19.333 183 58s72 88.334 72 149.001c0 52 -15.167 94.167 -45.5 126.5s-73.5 52.5 -129.5 60.5v5c44.667 8.66699 79.834 27.5 105.501 56.5s38.5 64.5 38.5 106.5c0 57.333 -20.833 102.5 -62.5 135.5s-99.5 49.5 -173.5 49.5
h-398v-747zM773.999 941.999l86 -0.000976562c26.667 0 47.5 -6.16699 62.5 -18.5s22.5 -29.166 22.5 -50.499c0 -47.333 -31.667 -71 -95 -71h-76v140zM772.999 671.998h91c30.667 0 54.5 -6.83301 71.5 -20.5s25.5 -32.5 25.5 -56.5c0 -52.667 -35.333 -79 -106 -79h-82
v156zM856.999 -55.002c-104.667 0 -205 20.667 -301 62s-178.667 96.666 -248 165.999s-124.666 152 -165.999 248s-62 196.333 -62 301s20.667 205 62 301s96.666 178.667 165.999 248s152 124.5 248 165.5s196.333 61.5 301 61.5c70 0 138.5 -9.33301 205.5 -28
s128.833 -44.667 185.5 -78s109 -74 157 -122s88.667 -100.333 122 -157s59.333 -118.5 78 -185.5s28 -135.5 28 -205.5c0 -104.667 -20.5 -205 -61.5 -301s-96.167 -178.667 -165.5 -248s-152 -124.666 -248 -165.999s-196.333 -62 -301 -62z" />
    <glyph glyph-name="uni1F152" unicode="C&#x20dd;&#x25cf;" 
d="M974 639c-1.33301 -26.667 -12.833 -49.165 -34.5 -67.498s-47.5 -27.5 -77.5 -27.5c-38 0 -68 15.5 -90 46.5s-33 75.167 -33 132.5c0 56.667 11 100.5 33 131.5s52 46.5 90 46.5c30 0 56 -9.33301 78 -28s33.667 -41.667 35 -69h232
c-3.33301 89.333 -37 162.166 -101 218.499s-146.333 84.5 -247 84.5c-108 0 -197 -34.333 -267 -103s-105 -162.334 -105 -281.001s35 -212.5 105 -281.5s159 -103.5 267 -103.5c100 0 182 28 246 84s97.667 128.333 101 217h-232zM857 -54.998
c-104.667 0 -205 20.667 -301 62s-178.667 96.666 -248 165.999s-124.666 152 -165.999 248s-62 196.333 -62 301s20.667 205 62 301s96.666 178.667 165.999 248s152 124.5 248 165.5s196.333 61.5 301 61.5c70 0 138.5 -9.33301 205.5 -28s128.833 -44.667 185.5 -78
s109 -74 157 -122s88.667 -100.333 122 -157s59.333 -118.5 78 -185.5s28 -135.5 28 -205.5c0 -104.667 -20.5 -205 -61.5 -301s-96.167 -178.667 -165.5 -248s-152 -124.666 -248 -165.999s-196.333 -62 -301 -62z" />
    <glyph glyph-name="uni1F153" unicode="D&#x20dd;&#x25cf;" 
d="M543 1098v-747h345c115.333 0 202.833 31.5 262.5 94.5s89.5 155.833 89.5 278.5s-29.833 215.667 -89.5 279s-147.167 95 -262.5 95h-345zM783 915h60c50.667 0 87 -14.833 109 -44.5s33 -78.5 33 -146.5s-11 -116.667 -33 -146s-58.333 -44 -109 -44h-60v381zM857 -55
c-104.667 0 -205 20.667 -301 62s-178.667 96.666 -248 165.999s-124.666 152 -165.999 248s-62 196.333 -62 301s20.667 205 62 301s96.666 178.667 165.999 248s152 124.5 248 165.5s196.333 61.5 301 61.5c70 0 138.5 -9.33301 205.5 -28s128.833 -44.667 185.5 -78
s109 -74 157 -122s88.667 -100.333 122 -157s59.333 -118.5 78 -185.5s28 -135.5 28 -205.5c0 -104.667 -20.5 -205 -61.5 -301s-96.167 -178.667 -165.5 -248s-152 -124.666 -248 -165.999s-196.333 -62 -301 -62z" />
    <glyph glyph-name="uni1F154" unicode="E&#x20dd;&#x25cf;" 
d="M1146 527h-323v119h301v158h-301v117h323v177h-560v-747h560v176zM857 -55c-104.667 0 -205 20.667 -301 62s-178.667 96.666 -248 165.999s-124.666 152 -165.999 248s-62 196.333 -62 301s20.667 205 62 301s96.666 178.667 165.999 248s152 124.5 248 165.5
s196.333 61.5 301 61.5c70 0 138.5 -9.33301 205.5 -28s128.833 -44.667 185.5 -78s109 -74 157 -122s88.667 -100.333 122 -157s59.333 -118.5 78 -185.5s28 -135.5 28 -205.5c0 -104.667 -20.5 -205 -61.5 -301s-96.167 -178.667 -165.5 -248s-152 -124.666 -248 -165.999
s-196.333 -62 -301 -62z" />
    <glyph glyph-name="uni1F155" unicode="F&#x20dd;&#x25cf;" 
d="M853 351v250h272v191h-272v118h301v188h-558v-747h257zM857 -55c-104.667 0 -205 20.667 -301 62s-178.667 96.666 -248 165.999s-124.666 152 -165.999 248s-62 196.333 -62 301s20.667 205 62 301s96.666 178.667 165.999 248s152 124.5 248 165.5
s196.333 61.5 301 61.5c70 0 138.5 -9.33301 205.5 -28s128.833 -44.667 185.5 -78s109 -74 157 -122s88.667 -100.333 122 -157s59.333 -118.5 78 -185.5s28 -135.5 28 -205.5c0 -104.667 -20.5 -205 -61.5 -301s-96.167 -178.667 -165.5 -248s-152 -124.666 -248 -165.999
s-196.333 -62 -301 -62z" />
    <glyph glyph-name="uni1F156" unicode="G&#x20dd;&#x25cf;" 
d="M976 612c0 -26 -10 -47.5 -30 -64.5s-47.667 -25.5 -83 -25.5c-36.667 0 -66.5 18.5 -89.5 55.5s-34.5 85.5 -34.5 145.5c0 58.667 11.333 105.334 34 140.001s52.667 52 90 52c30 0 54.167 -6.83301 72.5 -20.5s28.833 -32.167 31.5 -55.5h241
c-10.667 80.667 -48 145.5 -112 194.5s-142.667 73.5 -236 73.5c-112 0 -202.333 -35.333 -271 -106s-103 -163.334 -103 -278.001c0 -115.333 34.333 -208.333 103 -279s158.667 -106 270 -106c104 0 188.167 29.333 252.5 88s96.5 131.667 96.5 219v130h-346v-153h114v-10
zM857 -55c-104.667 0 -205 20.667 -301 62s-178.667 96.666 -248 165.999s-124.666 152 -165.999 248s-62 196.333 -62 301s20.667 205 62 301s96.666 178.667 165.999 248s152 124.5 248 165.5s196.333 61.5 301 61.5c70 0 138.5 -9.33301 205.5 -28
s128.833 -44.667 185.5 -78s109 -74 157 -122s88.667 -100.333 122 -157s59.333 -118.5 78 -185.5s28 -135.5 28 -205.5c0 -104.667 -20.5 -205 -61.5 -301s-96.167 -178.667 -165.5 -248s-152 -124.666 -248 -165.999s-196.333 -62 -301 -62z" />
    <glyph glyph-name="uni1F157" unicode="H&#x20dd;&#x25cf;" 
d="M1201 351v747h-237v-272h-213v272h-238v-747h238v267h213v-267h237zM857 -55c-104.667 0 -205 20.667 -301 62s-178.667 96.666 -248 165.999s-124.666 152 -165.999 248s-62 196.333 -62 301s20.667 205 62 301s96.666 178.667 165.999 248s152 124.5 248 165.5
s196.333 61.5 301 61.5c70 0 138.5 -9.33301 205.5 -28s128.833 -44.667 185.5 -78s109 -74 157 -122s88.667 -100.333 122 -157s59.333 -118.5 78 -185.5s28 -135.5 28 -205.5c0 -104.667 -20.5 -205 -61.5 -301s-96.167 -178.667 -165.5 -248s-152 -124.666 -248 -165.999
s-196.333 -62 -301 -62z" />
    <glyph glyph-name="uni1F158" unicode="I&#x20dd;&#x25cf;" 
d="M998 351v747h-281v-747h281zM857 -55c-104.667 0 -205 20.667 -301 62s-178.667 96.666 -248 165.999s-124.666 152 -165.999 248s-62 196.333 -62 301s20.667 205 62 301s96.666 178.667 165.999 248s152 124.5 248 165.5s196.333 61.5 301 61.5
c70 0 138.5 -9.33301 205.5 -28s128.833 -44.667 185.5 -78s109 -74 157 -122s88.667 -100.333 122 -157s59.333 -118.5 78 -185.5s28 -135.5 28 -205.5c0 -104.667 -20.5 -205 -61.5 -301s-96.167 -178.667 -165.5 -248s-152 -124.666 -248 -165.999s-196.333 -62 -301 -62
z" />
    <glyph glyph-name="uni1F159" unicode="J&#x20dd;&#x25cf;" 
d="M512 636c0 -96 28.999 -172 86.999 -228s136 -84 234 -84c96.667 0 172.834 27.167 228.501 81.5s83.5 128.5 83.5 222.5v455h-262v-448c0 -53.333 -18.667 -80 -56 -80c-40.667 0 -61 27 -61 81h-254zM856.999 -55c-104.667 0 -205 20.667 -301 62
s-178.667 96.666 -248 165.999s-124.666 152 -165.999 248s-62 196.333 -62 301s20.667 205 62 301s96.666 178.667 165.999 248s152 124.5 248 165.5s196.333 61.5 301 61.5c70 0 138.5 -9.33301 205.5 -28s128.833 -44.667 185.5 -78s109 -74 157 -122
s88.667 -100.333 122 -157s59.333 -118.5 78 -185.5s28 -135.5 28 -205.5c0 -104.667 -20.5 -205 -61.5 -301s-96.167 -178.667 -165.5 -248s-152 -124.666 -248 -165.999s-196.333 -62 -301 -62z" />
    <glyph glyph-name="uni1F15A" unicode="K&#x20dd;&#x25cf;" 
d="M1226 1098h-275l-196 -287h-6v287h-230v-747h230v176l56 69l138 -245h287l-233 399zM857 -55c-104.667 0 -205 20.667 -301 62s-178.667 96.666 -248 165.999s-124.666 152 -165.999 248s-62 196.333 -62 301s20.667 205 62 301s96.666 178.667 165.999 248
s152 124.5 248 165.5s196.333 61.5 301 61.5c70 0 138.5 -9.33301 205.5 -28s128.833 -44.667 185.5 -78s109 -74 157 -122s88.667 -100.333 122 -157s59.333 -118.5 78 -185.5s28 -135.5 28 -205.5c0 -104.667 -20.5 -205 -61.5 -301s-96.167 -178.667 -165.5 -248
s-152 -124.666 -248 -165.999s-196.333 -62 -301 -62z" />
    <glyph glyph-name="uni1F15B" unicode="L&#x20dd;&#x25cf;" 
d="M1163 580h-287v533h-265v-747h552v214zM857 -55c-104.667 0 -205 20.667 -301 62s-178.667 96.666 -248 165.999s-124.666 152 -165.999 248s-62 196.333 -62 301s20.667 205 62 301s96.666 178.667 165.999 248s152 124.5 248 165.5s196.333 61.5 301 61.5
c70 0 138.5 -9.33301 205.5 -28s128.833 -44.667 185.5 -78s109 -74 157 -122s88.667 -100.333 122 -157s59.333 -118.5 78 -185.5s28 -135.5 28 -205.5c0 -104.667 -20.5 -205 -61.5 -301s-96.167 -178.667 -165.5 -248s-152 -124.666 -248 -165.999s-196.333 -62 -301 -62
z" />
    <glyph glyph-name="uni1F15C" unicode="M&#x20dd;&#x25cf;" 
d="M656 351v454h9l127 -403h127l131 402h9v-453h185v747h-239l-145 -450h-5l-145 450h-239v-747h185zM857 -55c-104.667 0 -205 20.667 -301 62s-178.667 96.666 -248 165.999s-124.666 152 -165.999 248s-62 196.333 -62 301s20.667 205 62 301s96.666 178.667 165.999 248
s152 124.5 248 165.5s196.333 61.5 301 61.5c70 0 138.5 -9.33301 205.5 -28s128.833 -44.667 185.5 -78s109 -74 157 -122s88.667 -100.333 122 -157s59.333 -118.5 78 -185.5s28 -135.5 28 -205.5c0 -104.667 -20.5 -205 -61.5 -301s-96.167 -178.667 -165.5 -248
s-152 -124.666 -248 -165.999s-196.333 -62 -301 -62z" />
    <glyph glyph-name="uni1F15D" unicode="N&#x20dd;&#x25cf;" 
d="M741 351v375h6l267 -375h179v747h-220v-370h-6l-266 370h-180v-747h220zM857 -55c-104.667 0 -205 20.667 -301 62s-178.667 96.666 -248 165.999s-124.666 152 -165.999 248s-62 196.333 -62 301s20.667 205 62 301s96.666 178.667 165.999 248s152 124.5 248 165.5
s196.333 61.5 301 61.5c70 0 138.5 -9.33301 205.5 -28s128.833 -44.667 185.5 -78s109 -74 157 -122s88.667 -100.333 122 -157s59.333 -118.5 78 -185.5s28 -135.5 28 -205.5c0 -104.667 -20.5 -205 -61.5 -301s-96.167 -178.667 -165.5 -248s-152 -124.666 -248 -165.999
s-196.333 -62 -301 -62z" />
    <glyph glyph-name="uni1F15E" unicode="O&#x20dd;&#x25cf;" 
d="M857 543c-35.333 0 -64.333 15.333 -87 46s-34 75.334 -34 134.001s11.333 103.167 34 133.5s51.667 45.5 87 45.5s64.166 -15.167 86.499 -45.5s33.5 -74.833 33.5 -133.5s-11.167 -103.334 -33.5 -134.001s-51.166 -46 -86.499 -46zM857 338
c108.667 0 198 34.167 268 102.5s105 162.5 105 282.5c0 119.333 -35 213.166 -105 281.499s-159.333 102.5 -268 102.5s-198 -34.167 -268 -102.5s-105 -162.166 -105 -281.499c0 -120 35 -214.167 105 -282.5s159.333 -102.5 268 -102.5zM857 -55
c-104.667 0 -205 20.667 -301 62s-178.667 96.666 -248 165.999s-124.666 152 -165.999 248s-62 196.333 -62 301s20.667 205 62 301s96.666 178.667 165.999 248s152 124.5 248 165.5s196.333 61.5 301 61.5c70 0 138.5 -9.33301 205.5 -28s128.833 -44.667 185.5 -78
s109 -74 157 -122s88.667 -100.333 122 -157s59.333 -118.5 78 -185.5s28 -135.5 28 -205.5c0 -104.667 -20.5 -205 -61.5 -301s-96.167 -178.667 -165.5 -248s-152 -124.666 -248 -165.999s-196.333 -62 -301 -62z" />
    <glyph glyph-name="uni1F15F" unicode="P&#x20dd;&#x25cf;" 
d="M933 1098h-359.002v-747h263v183h93c88.667 0 159.334 25.167 212.001 75.5s79 117.833 79 202.5c0 86.667 -26.167 156 -78.5 208s-122.166 78 -209.499 78zM977.998 812c0 -66 -30.999 -99 -92.999 -99h-72v200h72c29.333 0 52.166 -8.66699 68.499 -26
s24.5 -42.333 24.5 -75zM856.999 -55c-104.667 0 -205 20.667 -301 62s-178.667 96.666 -248 165.999s-124.666 152 -165.999 248s-62 196.333 -62 301s20.667 205 62 301s96.666 178.667 165.999 248s152 124.5 248 165.5s196.333 61.5 301 61.5
c70 0 138.5 -9.33301 205.5 -28s128.833 -44.667 185.5 -78s109 -74 157 -122s88.667 -100.333 122 -157s59.333 -118.5 78 -185.5s28 -135.5 28 -205.5c0 -104.667 -20.5 -205 -61.5 -301s-96.167 -178.667 -165.5 -248s-152 -124.666 -248 -165.999s-196.333 -62 -301 -62
z" />
    <glyph glyph-name="uni1F160" unicode="Q&#x20dd;&#x25cf;" 
d="M1214 291l-97.001 142c75.333 70 113 166.667 113 290c0 119.333 -35 213.166 -105 281.499s-159.333 102.5 -268 102.5s-198 -34.167 -268 -102.5s-105 -162.166 -105 -281.499c0 -120 35 -214.167 105 -282.5s159.333 -102.5 268 -102.5
c32.667 0 62.334 3.33301 89.001 10l24 -57h244zM856.999 543c-35.333 0 -64.332 15.332 -86.999 45.999s-34 75.334 -34 134.001s11.333 103.167 34 133.5s51.667 45.5 87 45.5s64.166 -15.167 86.499 -45.5s33.5 -74.833 33.5 -133.5c0 -39.333 -6 -71.333 -18 -96l-11 15
h-113l41 -97c-4 -1.33301 -10.333 -2 -19 -2zM857 -55.001c-104.667 0 -205 20.667 -301 62s-178.667 96.666 -248 165.999s-124.666 152 -165.999 248s-62 196.333 -62 301s20.667 205 62 301s96.666 178.667 165.999 248s152 124.5 248 165.5s196.333 61.5 301 61.5
c70 0 138.5 -9.33301 205.5 -28s128.833 -44.667 185.5 -78s109 -74 157 -122s88.667 -100.333 122 -157s59.333 -118.5 78 -185.5s28 -135.5 28 -205.5c0 -104.667 -20.5 -205 -61.5 -301s-96.167 -178.667 -165.5 -248s-152 -124.666 -248 -165.999s-196.333 -62 -301 -62
z" />
    <glyph glyph-name="uni1F161" unicode="R&#x20dd;&#x25cf;" 
d="M761 754v162.999h105c59.333 0 89 -27.333 89 -82c0 -25.333 -8 -45.166 -24 -59.499s-38 -21.5 -66 -21.5h-104zM890 1098l-353 -0.000976562v-747h233v244h67l118 -244h266l-162 289c46 16.667 81.5 43.167 106.5 79.5s37.5 79.5 37.5 129.5
c0 80.667 -27 142.334 -81 185.001s-131.333 64 -232 64zM857 -55.002c-104.667 0 -205 20.667 -301 62s-178.667 96.666 -248 165.999s-124.666 152 -165.999 248s-62 196.333 -62 301s20.667 205 62 301s96.666 178.667 165.999 248s152 124.5 248 165.5
s196.333 61.5 301 61.5c70 0 138.5 -9.33301 205.5 -28s128.833 -44.667 185.5 -78s109 -74 157 -122s88.667 -100.333 122 -157s59.333 -118.5 78 -185.5s28 -135.5 28 -205.5c0 -104.667 -20.5 -205 -61.5 -301s-96.167 -178.667 -165.5 -248s-152 -124.666 -248 -165.999
s-196.333 -62 -301 -62z" />
    <glyph glyph-name="uni1F162" unicode="S&#x20dd;&#x25cf;" 
d="M523 578c4 -74.667 35.165 -132.832 93.498 -174.499s137.833 -62.5 238.5 -62.5c102 0 183.667 23.167 245 69.5s92 108.166 92 185.499c0 125.333 -72.667 198 -218 218l-93 14c-39.333 6 -66.666 13.167 -81.999 21.5s-23 19.833 -23 34.5c0 16 7 28.667 21 38
s33.333 14 58 14c48 0 76.333 -18.333 85 -55h234c-6.66699 70 -38.667 125.667 -96 167s-131.333 62 -222 62c-98 0 -176.5 -22.5 -235.5 -67.5s-88.5 -104.833 -88.5 -179.5c0 -60 19.5 -108.667 58.5 -146s94.833 -61.666 167.5 -72.999l83 -13
c44.667 -6.66699 74.334 -13.834 89.001 -21.501s22 -19.167 22 -34.5c0 -16.667 -8.16699 -30.167 -24.5 -40.5s-38.5 -15.5 -66.5 -15.5c-26.667 0 -48.667 5.33301 -66 16s-27.333 25 -30 43h-242zM856.998 -54.998c-104.667 0 -205 20.667 -301 62
s-178.667 96.666 -248 165.999s-124.666 152 -165.999 248s-62 196.333 -62 301s20.667 205 62 301s96.666 178.667 165.999 248s152 124.5 248 165.5s196.333 61.5 301 61.5c70 0 138.5 -9.33301 205.5 -28s128.833 -44.667 185.5 -78s109 -74 157 -122
s88.667 -100.333 122 -157s59.333 -118.5 78 -185.5s28 -135.5 28 -205.5c0 -104.667 -20.5 -205 -61.5 -301s-96.167 -178.667 -165.5 -248s-152 -124.666 -248 -165.999s-196.333 -62 -301 -62z" />
    <glyph glyph-name="uni1F163" unicode="T&#x20dd;&#x25cf;" 
d="M989 327v538h201v209h-666v-209h201v-538h264zM857 -55c-104.667 0 -205 20.667 -301 62s-178.667 96.666 -248 165.999s-124.666 152 -165.999 248s-62 196.333 -62 301s20.667 205 62 301s96.666 178.667 165.999 248s152 124.5 248 165.5s196.333 61.5 301 61.5
c70 0 138.5 -9.33301 205.5 -28s128.833 -44.667 185.5 -78s109 -74 157 -122s88.667 -100.333 122 -157s59.333 -118.5 78 -185.5s28 -135.5 28 -205.5c0 -104.667 -20.5 -205 -61.5 -301s-96.167 -178.667 -165.5 -248s-152 -124.666 -248 -165.999s-196.333 -62 -301 -62
z" />
    <glyph glyph-name="uni1F164" unicode="U&#x20dd;&#x25cf;" 
d="M857 522c-26.667 0 -48.002 7.83301 -64.002 23.5s-24 36.167 -24 61.5v468h-254v-506c0 -76 31.333 -137.333 94 -184s145.334 -70 248.001 -70s185.334 23.333 248.001 70s94 108 94 184v506h-253v-468c0 -25.333 -8.16699 -45.833 -24.5 -61.5
s-37.833 -23.5 -64.5 -23.5zM856.998 -55c-104.667 0 -205 20.667 -301 62s-178.667 96.666 -248 165.999s-124.666 152 -165.999 248s-62 196.333 -62 301s20.667 205 62 301s96.666 178.667 165.999 248s152 124.5 248 165.5s196.333 61.5 301 61.5
c70 0 138.5 -9.33301 205.5 -28s128.833 -44.667 185.5 -78s109 -74 157 -122s88.667 -100.333 122 -157s59.333 -118.5 78 -185.5s28 -135.5 28 -205.5c0 -104.667 -20.5 -205 -61.5 -301s-96.167 -178.667 -165.5 -248s-152 -124.666 -248 -165.999s-196.333 -62 -301 -62
z" />
    <glyph glyph-name="uni1F165" unicode="V&#x20dd;&#x25cf;" 
d="M1031 320l209 746h-276l-104 -524h-7l-103 524h-276l209 -746h348zM857 -55c-104.667 0 -205 20.667 -301 62s-178.667 96.666 -248 165.999s-124.666 152 -165.999 248s-62 196.333 -62 301s20.667 205 62 301s96.666 178.667 165.999 248s152 124.5 248 165.5
s196.333 61.5 301 61.5c70 0 138.5 -9.33301 205.5 -28s128.833 -44.667 185.5 -78s109 -74 157 -122s88.667 -100.333 122 -157s59.333 -118.5 78 -185.5s28 -135.5 28 -205.5c0 -104.667 -20.5 -205 -61.5 -301s-96.167 -178.667 -165.5 -248s-152 -124.666 -248 -165.999
s-196.333 -62 -301 -62z" />
    <glyph glyph-name="uni1F166" unicode="W&#x20dd;&#x25cf;" 
d="M856 747h2l91 -420h216l156 747h-219l-65 -470h-7l-90 470h-166l-91 -470h-5l-66 470h-219l157 -747h215zM857 -55c-104.667 0 -205 20.667 -301 62s-178.667 96.666 -248 165.999s-124.666 152 -165.999 248s-62 196.333 -62 301s20.667 205 62 301
s96.666 178.667 165.999 248s152 124.5 248 165.5s196.333 61.5 301 61.5c70 0 138.5 -9.33301 205.5 -28s128.833 -44.667 185.5 -78s109 -74 157 -122s88.667 -100.333 122 -157s59.333 -118.5 78 -185.5s28 -135.5 28 -205.5c0 -104.667 -20.5 -205 -61.5 -301
s-96.167 -178.667 -165.5 -248s-152 -124.666 -248 -165.999s-196.333 -62 -301 -62z" />
    <glyph glyph-name="uni1F167" unicode="X&#x20dd;&#x25cf;" 
d="M1229 1098h-263l-105 -229h-8l-104 229h-279l228 -373l-229 -374h276l105 230h7l107 -230h264l-221 373zM857 -55c-104.667 0 -205 20.667 -301 62s-178.667 96.666 -248 165.999s-124.666 152 -165.999 248s-62 196.333 -62 301s20.667 205 62 301
s96.666 178.667 165.999 248s152 124.5 248 165.5s196.333 61.5 301 61.5c70 0 138.5 -9.33301 205.5 -28s128.833 -44.667 185.5 -78s109 -74 157 -122s88.667 -100.333 122 -157s59.333 -118.5 78 -185.5s28 -135.5 28 -205.5c0 -104.667 -20.5 -205 -61.5 -301
s-96.167 -178.667 -165.5 -248s-152 -124.666 -248 -165.999s-196.333 -62 -301 -62z" />
    <glyph glyph-name="uni1F168" unicode="Y&#x20dd;&#x25cf;" 
d="M720 331h275v222l254 525h-285l-105 -283h-4l-104 283h-286l255 -525v-222zM857 -55c-104.667 0 -205 20.667 -301 62s-178.667 96.666 -248 165.999s-124.666 152 -165.999 248s-62 196.333 -62 301s20.667 205 62 301s96.666 178.667 165.999 248s152 124.5 248 165.5
s196.333 61.5 301 61.5c70 0 138.5 -9.33301 205.5 -28s128.833 -44.667 185.5 -78s109 -74 157 -122s88.667 -100.333 122 -157s59.333 -118.5 78 -185.5s28 -135.5 28 -205.5c0 -104.667 -20.5 -205 -61.5 -301s-96.167 -178.667 -165.5 -248s-152 -124.666 -248 -165.999
s-196.333 -62 -301 -62z" />
    <glyph glyph-name="uni1F169" unicode="Z&#x20dd;&#x25cf;" 
d="M557 351h609v203h-289v7l278 374v163h-603v-204h280v-5l-275 -375v-163zM857 -55c-104.667 0 -205 20.667 -301 62s-178.667 96.666 -248 165.999s-124.666 152 -165.999 248s-62 196.333 -62 301s20.667 205 62 301s96.666 178.667 165.999 248s152 124.5 248 165.5
s196.333 61.5 301 61.5c70 0 138.5 -9.33301 205.5 -28s128.833 -44.667 185.5 -78s109 -74 157 -122s88.667 -100.333 122 -157s59.333 -118.5 78 -185.5s28 -135.5 28 -205.5c0 -104.667 -20.5 -205 -61.5 -301s-96.167 -178.667 -165.5 -248s-152 -124.666 -248 -165.999
s-196.333 -62 -301 -62z" />
    <glyph glyph-name="uni1F170" unicode="A&#x20de;&#x25a0;" 
d="M933 656h-152l72 288h7zM723 374l30 122h208l31 -122h253l-230 747h-316l-230 -747h254zM367 1475h979c72.667 0 134.5 -25.167 185.5 -75.5s76.5 -111.166 76.5 -182.499v-990c0 -71.333 -25.5 -132.166 -76.5 -182.499s-112.833 -75.5 -185.5 -75.5h-979
c-72 0 -133.5 25.167 -184.5 75.5s-76.5 111.166 -76.5 182.499v990c0 71.333 25.5 132.166 76.5 182.499s112.5 75.5 184.5 75.5z" />
    <glyph glyph-name="uni1F171" unicode="B&#x20de;&#x25a0;" 
d="M542 351l410 -0.000976562c74 0 135 19.333 183 58s72 88.334 72 149.001c0 52 -15.333 94.167 -46 126.5s-73.667 52.5 -129 60.5v5c44 8 79 26.5 105 55.5s39 64.833 39 107.5c0 58 -20.833 103.333 -62.5 136s-99.5 49 -173.5 49h-398v-747zM774 941.999
l86 -0.000976562c26.667 0 47.5 -6.16699 62.5 -18.5s22.5 -29.166 22.5 -50.499c0 -47.333 -31.667 -71 -95 -71h-76v140zM773 671.998h91c30.667 0 54.5 -6.83301 71.5 -20.5s25.5 -32.5 25.5 -56.5c0 -52.667 -35.333 -79 -106 -79h-82v156zM367 1475h979
c72.667 0 134.5 -25.167 185.5 -75.5s76.5 -111.166 76.5 -182.499v-990c0 -71.333 -25.5 -132.166 -76.5 -182.499s-112.833 -75.5 -185.5 -75.5h-979c-72 0 -133.5 25.167 -184.5 75.5s-76.5 111.166 -76.5 182.499v990c0 71.333 25.5 132.166 76.5 182.499
s112.5 75.5 184.5 75.5z" />
    <glyph glyph-name="uni1F172" unicode="C&#x20de;&#x25a0;" 
d="M974 639c-1.33301 -26.667 -12.833 -49.165 -34.5 -67.498s-47.5 -27.5 -77.5 -27.5c-38 0 -68 15.5 -90 46.5s-33 75.167 -33 132.5c0 56.667 11 100.5 33 131.5s52 46.5 90 46.5c30 0 56 -9.33301 78 -28s33.667 -41.667 35 -69h232
c-3.33301 89.333 -37 162.166 -101 218.499s-146.333 84.5 -247 84.5c-108 0 -197 -34.333 -267 -103s-105 -162.334 -105 -281.001s35 -212.5 105 -281.5s159 -103.5 267 -103.5c100 0 182 28 246 84s97.667 128.333 101 217h-232zM367 1475h979
c72.667 0 134.5 -25.167 185.5 -75.5s76.5 -111.166 76.5 -182.499v-990c0 -71.333 -25.5 -132.166 -76.5 -182.499s-112.833 -75.5 -185.5 -75.5h-979c-72 0 -133.5 25.167 -184.5 75.5s-76.5 111.166 -76.5 182.499v990c0 71.333 25.5 132.166 76.5 182.499
s112.5 75.5 184.5 75.5z" />
    <glyph glyph-name="uni1F173" unicode="D&#x20de;&#x25a0;" 
d="M537 1098v-747h346c115.333 0 202.666 31.667 261.999 95s89 156 89 278s-29.667 214.833 -89 278.5s-146.666 95.5 -261.999 95.5h-346zM777 915h61c50.667 0 87 -14.833 109 -44.5s33 -78.5 33 -146.5s-11 -116.667 -33 -146s-58.333 -44 -109 -44h-61v381zM367 1475
h979c72.667 0 134.5 -25.167 185.5 -75.5s76.5 -111.166 76.5 -182.499v-990c0 -71.333 -25.5 -132.166 -76.5 -182.499s-112.833 -75.5 -185.5 -75.5h-979c-72 0 -133.5 25.167 -184.5 75.5s-76.5 111.166 -76.5 182.499v990c0 71.333 25.5 132.166 76.5 182.499
s112.5 75.5 184.5 75.5z" />
    <glyph glyph-name="uni1F174" unicode="E&#x20de;&#x25a0;" 
d="M1146 527h-323v119h301v158h-301v117h323v177h-560v-747h560v176zM367 1475h979c72.667 0 134.5 -25.167 185.5 -75.5s76.5 -111.166 76.5 -182.499v-990c0 -71.333 -25.5 -132.166 -76.5 -182.499s-112.833 -75.5 -185.5 -75.5h-979c-72 0 -133.5 25.167 -184.5 75.5
s-76.5 111.166 -76.5 182.499v990c0 71.333 25.5 132.166 76.5 182.499s112.5 75.5 184.5 75.5z" />
    <glyph glyph-name="uni1F175" unicode="F&#x20de;&#x25a0;" 
d="M853 351v250h272v191h-272v118h301v188h-558v-747h257zM367 1475h979c72.667 0 134.5 -25.167 185.5 -75.5s76.5 -111.166 76.5 -182.499v-990c0 -71.333 -25.5 -132.166 -76.5 -182.499s-112.833 -75.5 -185.5 -75.5h-979c-72 0 -133.5 25.167 -184.5 75.5
s-76.5 111.166 -76.5 182.499v990c0 71.333 25.5 132.166 76.5 182.499s112.5 75.5 184.5 75.5z" />
    <glyph glyph-name="uni1F176" unicode="G&#x20de;&#x25a0;" 
d="M976 612c0 -26 -10 -47.5 -30 -64.5s-47.667 -25.5 -83 -25.5c-36.667 0 -66.5 18.5 -89.5 55.5s-34.5 85.5 -34.5 145.5c0 58.667 11.333 105.334 34 140.001s52.667 52 90 52c30 0 54.167 -6.83301 72.5 -20.5s28.833 -32.167 31.5 -55.5h241
c-10.667 80.667 -48 145.5 -112 194.5s-142.667 73.5 -236 73.5c-112 0 -202.333 -35.333 -271 -106s-103 -163.334 -103 -278.001c0 -115.333 34.333 -208.333 103 -279s158.667 -106 270 -106c104 0 188.167 29.333 252.5 88s96.5 131.667 96.5 219v130h-346v-153h114v-10
zM367 1475h979c72.667 0 134.5 -25.167 185.5 -75.5s76.5 -111.166 76.5 -182.499v-990c0 -71.333 -25.5 -132.166 -76.5 -182.499s-112.833 -75.5 -185.5 -75.5h-979c-72 0 -133.5 25.167 -184.5 75.5s-76.5 111.166 -76.5 182.499v990c0 71.333 25.5 132.166 76.5 182.499
s112.5 75.5 184.5 75.5z" />
    <glyph glyph-name="uni1F177" unicode="H&#x20de;&#x25a0;" 
d="M1201 351v747h-237v-272h-213v272h-238v-747h238v267h213v-267h237zM367 1475h979c72.667 0 134.5 -25.167 185.5 -75.5s76.5 -111.166 76.5 -182.499v-990c0 -71.333 -25.5 -132.166 -76.5 -182.499s-112.833 -75.5 -185.5 -75.5h-979c-72 0 -133.5 25.167 -184.5 75.5
s-76.5 111.166 -76.5 182.499v990c0 71.333 25.5 132.166 76.5 182.499s112.5 75.5 184.5 75.5z" />
    <glyph glyph-name="uni1F178" unicode="I&#x20de;&#x25a0;" 
d="M998 351v747h-281v-747h281zM367 1475h979c72.667 0 134.5 -25.167 185.5 -75.5s76.5 -111.166 76.5 -182.499v-990c0 -71.333 -25.5 -132.166 -76.5 -182.499s-112.833 -75.5 -185.5 -75.5h-979c-72 0 -133.5 25.167 -184.5 75.5s-76.5 111.166 -76.5 182.499v990
c0 71.333 25.5 132.166 76.5 182.499s112.5 75.5 184.5 75.5z" />
    <glyph glyph-name="uni1F179" unicode="J&#x20de;&#x25a0;" 
d="M512 636c0 -95.333 28.8311 -171.167 86.498 -227.5s135.834 -84.5 234.501 -84.5c96.667 0 172.834 27 228.501 81s83.5 128.333 83.5 223v455h-262v-448c0 -53.333 -18.667 -80 -56 -80c-40.667 0 -61 27 -61 81h-254zM366.998 1475h979
c72.667 0 134.5 -25.167 185.5 -75.5s76.5 -111.166 76.5 -182.499v-990c0 -71.333 -25.5 -132.166 -76.5 -182.499s-112.833 -75.5 -185.5 -75.5h-979c-72 0 -133.5 25.167 -184.5 75.5s-76.5 111.166 -76.5 182.499v990c0 71.333 25.5 132.166 76.5 182.499
s112.5 75.5 184.5 75.5z" />
    <glyph glyph-name="uni1F17A" unicode="K&#x20de;&#x25a0;" 
d="M1226 1098h-275l-196 -287h-6v287h-230v-747h230v176l56 69l138 -245h287c-8 11.333 -46.833 77.833 -116.5 199.5s-108.5 188.167 -116.5 199.5zM367 1475h979c72.667 0 134.5 -25.167 185.5 -75.5s76.5 -111.166 76.5 -182.499v-990
c0 -71.333 -25.5 -132.166 -76.5 -182.499s-112.833 -75.5 -185.5 -75.5h-979c-72 0 -133.5 25.167 -184.5 75.5s-76.5 111.166 -76.5 182.499v990c0 71.333 25.5 132.166 76.5 182.499s112.5 75.5 184.5 75.5z" />
    <glyph glyph-name="uni1F17B" unicode="L&#x20de;&#x25a0;" 
d="M1165 580h-286v533h-266v-747h552v214zM367 1475h979c72.667 0 134.5 -25.167 185.5 -75.5s76.5 -111.166 76.5 -182.499v-990c0 -71.333 -25.5 -132.166 -76.5 -182.499s-112.833 -75.5 -185.5 -75.5h-979c-72 0 -133.5 25.167 -184.5 75.5s-76.5 111.166 -76.5 182.499
v990c0 71.333 25.5 132.166 76.5 182.499s112.5 75.5 184.5 75.5z" />
    <glyph glyph-name="uni1F17C" unicode="M&#x20de;&#x25a0;" 
d="M656 351v454h9l127 -403h127l131 402h9v-453h185v747h-239l-145 -450h-5l-145 450h-239v-747h185zM367 1475h979c72.667 0 134.5 -25.167 185.5 -75.5s76.5 -111.166 76.5 -182.499v-990c0 -71.333 -25.5 -132.166 -76.5 -182.499s-112.833 -75.5 -185.5 -75.5h-979
c-72 0 -133.5 25.167 -184.5 75.5s-76.5 111.166 -76.5 182.499v990c0 71.333 25.5 132.166 76.5 182.499s112.5 75.5 184.5 75.5z" />
    <glyph glyph-name="uni1F17D" unicode="N&#x20de;&#x25a0;" 
d="M741 351v375h6l267 -375h179v747h-220v-370h-6l-266 370h-180v-747h220zM367 1475h979c72.667 0 134.5 -25.167 185.5 -75.5s76.5 -111.166 76.5 -182.499v-990c0 -71.333 -25.5 -132.166 -76.5 -182.499s-112.833 -75.5 -185.5 -75.5h-979
c-72 0 -133.5 25.167 -184.5 75.5s-76.5 111.166 -76.5 182.499v990c0 71.333 25.5 132.166 76.5 182.499s112.5 75.5 184.5 75.5z" />
    <glyph glyph-name="uni1F17E" unicode="O&#x20de;&#x25a0;" 
d="M857 543c-35.333 0 -64.333 15.333 -87 46s-34 75.334 -34 134.001s11.333 103.167 34 133.5s51.667 45.5 87 45.5s64.166 -15.167 86.499 -45.5s33.5 -74.833 33.5 -133.5s-11.167 -103.334 -33.5 -134.001s-51.166 -46 -86.499 -46zM857 338
c108.667 0 198 34.167 268 102.5s105 162.5 105 282.5c0 119.333 -35 213.166 -105 281.499s-159.333 102.5 -268 102.5s-198 -34.167 -268 -102.5s-105 -162.166 -105 -281.499c0 -120 35 -214.167 105 -282.5s159.333 -102.5 268 -102.5zM367 1475h979
c72.667 0 134.5 -25.167 185.5 -75.5s76.5 -111.166 76.5 -182.499v-990c0 -71.333 -25.5 -132.166 -76.5 -182.499s-112.833 -75.5 -185.5 -75.5h-979c-72 0 -133.5 25.167 -184.5 75.5s-76.5 111.166 -76.5 182.499v990c0 71.333 25.5 132.166 76.5 182.499
s112.5 75.5 184.5 75.5z" />
    <glyph glyph-name="uni1F17F" unicode="P&#x20de;&#x25a0;" 
d="M933 1098h-358.999v-747h263v183h93c89.333 0 160.166 25.167 212.499 75.5s78.5 117.833 78.5 202.5c0 86.667 -26 156 -78 208s-122 78 -210 78zM978.001 812c0 -66 -30.999 -99 -92.999 -99h-72v200h72c29.333 0 52.166 -8.66699 68.499 -26s24.5 -42.333 24.5 -75z
M367.002 1475h979c72.667 0 134.5 -25.167 185.5 -75.5s76.5 -111.166 76.5 -182.499v-990c0 -71.333 -25.5 -132.166 -76.5 -182.499s-112.833 -75.5 -185.5 -75.5h-979c-72 0 -133.5 25.167 -184.5 75.5s-76.5 111.166 -76.5 182.499v990
c0 71.333 25.5 132.166 76.5 182.499s112.5 75.5 184.5 75.5z" />
    <glyph glyph-name="uni1F180" unicode="Q&#x20de;&#x25a0;" 
d="M1214 291l-97.001 142c75.333 70 113 166.667 113 290c0 119.333 -35 213.166 -105 281.499s-159.333 102.5 -268 102.5s-198 -34.167 -268 -102.5s-105 -162.166 -105 -281.499c0 -120 35 -214.167 105 -282.5s159.333 -102.5 268 -102.5
c32.667 0 62.334 3.33301 89.001 10l24 -57h244zM856.999 543c-35.333 0 -64.332 15.332 -86.999 45.999s-34 75.334 -34 134.001s11.333 103.167 34 133.5s51.667 45.5 87 45.5s64.166 -15.167 86.499 -45.5s33.5 -74.833 33.5 -133.5c0 -39.333 -6 -71.333 -18 -96l-11 15
h-113l41 -97c-4 -1.33301 -10.333 -2 -19 -2zM367 1475h979c72.667 0 134.5 -25.167 185.5 -75.5s76.5 -111.166 76.5 -182.499v-990c0 -71.333 -25.5 -132.166 -76.5 -182.499s-112.833 -75.5 -185.5 -75.5h-979c-72 0 -133.5 25.167 -184.5 75.5
s-76.5 111.166 -76.5 182.499v990c0 71.333 25.5 132.166 76.5 182.499s112.5 75.5 184.5 75.5z" />
    <glyph glyph-name="uni1F181" unicode="R&#x20de;&#x25a0;" 
d="M761 754v162.999h105c59.333 0 89 -27.333 89 -82c0 -25.333 -8 -45.166 -24 -59.499s-38 -21.5 -66 -21.5h-104zM890 1098h-352.999v-747h233v244h67l118 -244h266l-162 289c45.333 16 80.666 42.167 105.999 78.5s38 79.833 38 130.5c0 80 -27 141.5 -81 184.5
s-131.333 64.5 -232 64.5zM367.001 1475h979c72.667 0 134.5 -25.167 185.5 -75.5s76.5 -111.166 76.5 -182.499v-990c0 -71.333 -25.5 -132.166 -76.5 -182.499s-112.833 -75.5 -185.5 -75.5h-979c-72 0 -133.5 25.167 -184.5 75.5s-76.5 111.166 -76.5 182.499v990
c0 71.333 25.5 132.166 76.5 182.499s112.5 75.5 184.5 75.5z" />
    <glyph glyph-name="uni1F182" unicode="S&#x20de;&#x25a0;" 
d="M523 578c4 -74.667 35.165 -132.832 93.498 -174.499s137.833 -62.5 238.5 -62.5c102 0 183.667 23.167 245 69.5s92 108.166 92 185.499c0 125.333 -72.667 198 -218 218l-93 14c-39.333 6 -66.666 13.167 -81.999 21.5s-23 19.833 -23 34.5c0 16 7 28.667 21 38
s33.333 14 58 14c48 0 76.333 -18.333 85 -55h234c-6.66699 70 -38.667 125.667 -96 167s-131.333 62 -222 62c-98 0 -176.5 -22.5 -235.5 -67.5s-88.5 -104.833 -88.5 -179.5c0 -60 19.5 -108.667 58.5 -146s94.833 -61.666 167.5 -72.999l83 -13
c44.667 -6.66699 74.334 -13.834 89.001 -21.501s22 -19.167 22 -34.5c0 -16.667 -8.16699 -30.167 -24.5 -40.5s-38.5 -15.5 -66.5 -15.5c-26.667 0 -48.667 5.33301 -66 16s-27.333 25 -30 43h-242zM366.998 1475h979c72.667 0 134.5 -25.167 185.5 -75.5
s76.5 -111.166 76.5 -182.499v-990c0 -71.333 -25.5 -132.166 -76.5 -182.499s-112.833 -75.5 -185.5 -75.5h-979c-72 0 -133.5 25.167 -184.5 75.5s-76.5 111.166 -76.5 182.499v990c0 71.333 25.5 132.166 76.5 182.499s112.5 75.5 184.5 75.5z" />
    <glyph glyph-name="uni1F183" unicode="T&#x20de;&#x25a0;" 
d="M989 332v538h201v209h-666v-209h201v-538h264zM367 1475h979c72.667 0 134.5 -25.167 185.5 -75.5s76.5 -111.166 76.5 -182.499v-990c0 -71.333 -25.5 -132.166 -76.5 -182.499s-112.833 -75.5 -185.5 -75.5h-979c-72 0 -133.5 25.167 -184.5 75.5
s-76.5 111.166 -76.5 182.499v990c0 71.333 25.5 132.166 76.5 182.499s112.5 75.5 184.5 75.5z" />
    <glyph glyph-name="uni1F184" unicode="U&#x20de;&#x25a0;" 
d="M857 527c-26.667 0 -48.002 7.83301 -64.002 23.5s-24 36.167 -24 61.5v468h-254v-506c0 -76 31.333 -137.333 94 -184s145.334 -70 248.001 -70s185.334 23.333 248.001 70s94 108 94 184v506h-253v-468c0 -26 -8.16699 -46.667 -24.5 -62s-37.833 -23 -64.5 -23z
M366.998 1475h979c72.667 0 134.5 -25.167 185.5 -75.5s76.5 -111.166 76.5 -182.499v-990c0 -71.333 -25.5 -132.166 -76.5 -182.499s-112.833 -75.5 -185.5 -75.5h-979c-72 0 -133.5 25.167 -184.5 75.5s-76.5 111.166 -76.5 182.499v990
c0 71.333 25.5 132.166 76.5 182.499s112.5 75.5 184.5 75.5z" />
    <glyph glyph-name="uni1F185" unicode="V&#x20de;&#x25a0;" 
d="M1031 325l209 746h-276l-104 -525h-7l-103 525h-276l209 -746h348zM367 1475h979c72.667 0 134.5 -25.167 185.5 -75.5s76.5 -111.166 76.5 -182.499v-990c0 -71.333 -25.5 -132.166 -76.5 -182.499s-112.833 -75.5 -185.5 -75.5h-979c-72 0 -133.5 25.167 -184.5 75.5
s-76.5 111.166 -76.5 182.499v990c0 71.333 25.5 132.166 76.5 182.499s112.5 75.5 184.5 75.5z" />
    <glyph glyph-name="uni1F186" unicode="W&#x20de;&#x25a0;" 
d="M856 752h2l91 -420h216l156 747h-219l-65 -471h-7l-90 471h-166l-91 -471h-5l-66 471h-219l157 -747h215zM367 1475h979c72.667 0 134.5 -25.167 185.5 -75.5s76.5 -111.166 76.5 -182.499v-990c0 -71.333 -25.5 -132.166 -76.5 -182.499s-112.833 -75.5 -185.5 -75.5
h-979c-72 0 -133.5 25.167 -184.5 75.5s-76.5 111.166 -76.5 182.499v990c0 71.333 25.5 132.166 76.5 182.499s112.5 75.5 184.5 75.5z" />
    <glyph glyph-name="uni1F187" unicode="X&#x20de;&#x25a0;" 
d="M1229 1098h-263l-105 -229h-8l-104 229h-279l228 -373l-229 -374h276l105 230h7l107 -230h264l-221 373zM367 1475h979c72.667 0 134.5 -25.167 185.5 -75.5s76.5 -111.166 76.5 -182.499v-990c0 -71.333 -25.5 -132.166 -76.5 -182.499s-112.833 -75.5 -185.5 -75.5
h-979c-72 0 -133.5 25.167 -184.5 75.5s-76.5 111.166 -76.5 182.499v990c0 71.333 25.5 132.166 76.5 182.499s112.5 75.5 184.5 75.5z" />
    <glyph glyph-name="uni1F188" unicode="Y&#x20de;&#x25a0;" 
d="M720 332h275v222l254 525h-285l-105 -283h-4l-104 283h-286l255 -525v-222zM367 1475h979c72.667 0 134.5 -25.167 185.5 -75.5s76.5 -111.166 76.5 -182.499v-990c0 -71.333 -25.5 -132.166 -76.5 -182.499s-112.833 -75.5 -185.5 -75.5h-979
c-72 0 -133.5 25.167 -184.5 75.5s-76.5 111.166 -76.5 182.499v990c0 71.333 25.5 132.166 76.5 182.499s112.5 75.5 184.5 75.5z" />
    <glyph glyph-name="uni1F189" unicode="Z&#x20de;&#x25a0;" 
d="M557 351h609v203h-289v7l278 374v163h-603v-204h280v-5l-275 -375v-163zM367 1475h979c72.667 0 134.5 -25.167 185.5 -75.5s76.5 -111.166 76.5 -182.499v-990c0 -71.333 -25.5 -132.166 -76.5 -182.499s-112.833 -75.5 -185.5 -75.5h-979
c-72 0 -133.5 25.167 -184.5 75.5s-76.5 111.166 -76.5 182.499v990c0 71.333 25.5 132.166 76.5 182.499s112.5 75.5 184.5 75.5z" />
    <glyph glyph-name="plus.uc.whitecircle" unicode="&#x2b;&#x20dd;" 
d="M960 625v-207h-207v207h-202v198h202v206h207v-206h203v-198h-203zM857 144c104 0 199.5 25.667 286.5 77s155.5 121.166 205.5 209.499s75 184.833 75 289.5s-25 201.167 -75 289.5s-118.5 158.166 -205.5 209.499s-182.5 77 -286.5 77s-199.5 -25.667 -286.5 -77
s-155.5 -121.166 -205.5 -209.499s-75 -184.833 -75 -289.5s25 -201.167 75 -289.5s118.5 -158.166 205.5 -209.499s182.5 -77 286.5 -77zM857 -57c-142.667 0 -273.5 34.333 -392.5 103s-212.833 162.5 -281.5 281.5s-103 249.833 -103 392.5s34.333 273.5 103 392.5
s162.5 212.833 281.5 281.5s249.833 103 392.5 103s273.5 -34.333 392.5 -103s212.667 -162.5 281 -281.5s102.5 -249.833 102.5 -392.5c0 -106.667 -20.167 -208 -60.5 -304s-95 -178.5 -164 -247.5s-151.5 -123.833 -247.5 -164.5s-197.333 -61 -304 -61z" />
    <glyph glyph-name="minus.uc.whitecircle" unicode="&#x2212;&#x20dd;" 
d="M1127 620h-540v207h540v-207zM857 144c104 0 199.5 25.667 286.5 77s155.5 121.166 205.5 209.499s75 184.833 75 289.5s-25 201.167 -75 289.5s-118.5 158.166 -205.5 209.499s-182.5 77 -286.5 77s-199.5 -25.667 -286.5 -77s-155.5 -121.166 -205.5 -209.499
s-75 -184.833 -75 -289.5s25 -201.167 75 -289.5s118.5 -158.166 205.5 -209.499s182.5 -77 286.5 -77zM857 -57c-142.667 0 -273.5 34.333 -392.5 103s-212.833 162.5 -281.5 281.5s-103 249.833 -103 392.5s34.333 273.5 103 392.5s162.5 212.833 281.5 281.5
s249.833 103 392.5 103s273.5 -34.333 392.5 -103s212.667 -162.5 281 -281.5s102.5 -249.833 102.5 -392.5c0 -106.667 -20.167 -208 -60.5 -304s-95 -178.5 -164 -247.5s-151.5 -123.833 -247.5 -164.5s-197.333 -61 -304 -61z" />
    <glyph glyph-name="multiply.uc.whitecircle" unicode="&#xd7;&#x20dd;" 
d="M856 870l157 155l148 -147l-157 -155l157 -155l-148 -144l-157 154l-158 -154l-145 144l157 155l-157 157l145 145zM857 144c104 0 199.5 25.667 286.5 77s155.5 121.166 205.5 209.499s75 184.833 75 289.5s-25 201.167 -75 289.5s-118.5 158.166 -205.5 209.499
s-182.5 77 -286.5 77s-199.5 -25.667 -286.5 -77s-155.5 -121.166 -205.5 -209.499s-75 -184.833 -75 -289.5s25 -201.167 75 -289.5s118.5 -158.166 205.5 -209.499s182.5 -77 286.5 -77zM857 -57c-142.667 0 -273.5 34.333 -392.5 103s-212.833 162.5 -281.5 281.5
s-103 249.833 -103 392.5s34.333 273.5 103 392.5s162.5 212.833 281.5 281.5s249.833 103 392.5 103s273.5 -34.333 392.5 -103s212.667 -162.5 281 -281.5s102.5 -249.833 102.5 -392.5c0 -106.667 -20.167 -208 -60.5 -304s-95 -178.5 -164 -247.5
s-151.5 -123.833 -247.5 -164.5s-197.333 -61 -304 -61z" />
    <glyph glyph-name="divide.uc.whitecircle" unicode="&#xf7;&#x20dd;" 
d="M1127 646h-540v156h540v-156zM750 955c0 27.333 10.167 50 30.5 68s45.833 27 76.5 27s56.334 -9 77.001 -27s31 -40.667 31 -68c0 -26.667 -10.333 -48.834 -31 -66.501s-46.334 -26.5 -77.001 -26.5s-56.167 8.83301 -76.5 26.5s-30.5 39.834 -30.5 66.501zM750 493
c0 27.333 10.167 49.833 30.5 67.5s45.833 26.5 76.5 26.5s56.334 -8.83301 77.001 -26.5s31 -40.167 31 -67.5s-10.333 -49.833 -31 -67.5s-46.334 -26.5 -77.001 -26.5s-56.167 8.83301 -76.5 26.5s-30.5 40.167 -30.5 67.5zM857 144c104 0 199.5 25.667 286.5 77
s155.5 121.166 205.5 209.499s75 184.833 75 289.5s-25 201.167 -75 289.5s-118.5 158.166 -205.5 209.499s-182.5 77 -286.5 77s-199.5 -25.667 -286.5 -77s-155.5 -121.166 -205.5 -209.499s-75 -184.833 -75 -289.5s25 -201.167 75 -289.5s118.5 -158.166 205.5 -209.499
s182.5 -77 286.5 -77zM857 -57c-142.667 0 -273.5 34.333 -392.5 103s-212.833 162.5 -281.5 281.5s-103 249.833 -103 392.5s34.333 273.5 103 392.5s162.5 212.833 281.5 281.5s249.833 103 392.5 103s273.5 -34.333 392.5 -103s212.667 -162.5 281 -281.5
s102.5 -249.833 102.5 -392.5c0 -106.667 -20.167 -208 -60.5 -304s-95 -178.5 -164 -247.5s-151.5 -123.833 -247.5 -164.5s-197.333 -61 -304 -61z" />
    <glyph glyph-name="equal.uc.whitecircle" unicode="&#x3d;&#x20dd;" 
d="M1146 494h-578v179h578v-179zM1146 772h-578v179h578v-179zM857 144c104 0 199.5 25.667 286.5 77s155.5 121.166 205.5 209.499s75 184.833 75 289.5s-25 201.167 -75 289.5s-118.5 158.166 -205.5 209.499s-182.5 77 -286.5 77s-199.5 -25.667 -286.5 -77
s-155.5 -121.166 -205.5 -209.499s-75 -184.833 -75 -289.5s25 -201.167 75 -289.5s118.5 -158.166 205.5 -209.499s182.5 -77 286.5 -77zM857 -57c-142.667 0 -273.5 34.333 -392.5 103s-212.833 162.5 -281.5 281.5s-103 249.833 -103 392.5s34.333 273.5 103 392.5
s162.5 212.833 281.5 281.5s249.833 103 392.5 103s273.5 -34.333 392.5 -103s212.667 -162.5 281 -281.5s102.5 -249.833 102.5 -392.5c0 -106.667 -20.167 -208 -60.5 -304s-95 -178.5 -164 -247.5s-151.5 -123.833 -247.5 -164.5s-197.333 -61 -304 -61z" />
    <glyph glyph-name="greater.uc.whitecircle" unicode="&#x3e;&#x20dd;" 
d="M1155 784v-123l-542 -255v215l256 100v9l-256 90v222zM857 144c104 0 199.5 25.667 286.5 77s155.5 121.166 205.5 209.499s75 184.833 75 289.5s-25 201.167 -75 289.5s-118.5 158.166 -205.5 209.499s-182.5 77 -286.5 77s-199.5 -25.667 -286.5 -77
s-155.5 -121.166 -205.5 -209.499s-75 -184.833 -75 -289.5s25 -201.167 75 -289.5s118.5 -158.166 205.5 -209.499s182.5 -77 286.5 -77zM857 -57c-142.667 0 -273.5 34.333 -392.5 103s-212.833 162.5 -281.5 281.5s-103 249.833 -103 392.5s34.333 273.5 103 392.5
s162.5 212.833 281.5 281.5s249.833 103 392.5 103s273.5 -34.333 392.5 -103s212.667 -162.5 281 -281.5s102.5 -249.833 102.5 -392.5c0 -106.667 -20.167 -208 -60.5 -304s-95 -178.5 -164 -247.5s-151.5 -123.833 -247.5 -164.5s-197.333 -61 -304 -61z" />
    <glyph glyph-name="less.uc.whitecircle" unicode="&#x3c;&#x20dd;" 
d="M559 661v123l542 258v-222l-257 -90v-9l257 -100v-215zM857 144c104 0 199.5 25.667 286.5 77s155.5 121.166 205.5 209.499s75 184.833 75 289.5s-25 201.167 -75 289.5s-118.5 158.166 -205.5 209.499s-182.5 77 -286.5 77s-199.5 -25.667 -286.5 -77
s-155.5 -121.166 -205.5 -209.499s-75 -184.833 -75 -289.5s25 -201.167 75 -289.5s118.5 -158.166 205.5 -209.499s182.5 -77 286.5 -77zM857 -57c-142.667 0 -273.5 34.333 -392.5 103s-212.833 162.5 -281.5 281.5s-103 249.833 -103 392.5s34.333 273.5 103 392.5
s162.5 212.833 281.5 281.5s249.833 103 392.5 103s273.5 -34.333 392.5 -103s212.667 -162.5 281 -281.5s102.5 -249.833 102.5 -392.5c0 -106.667 -20.167 -208 -60.5 -304s-95 -178.5 -164 -247.5s-151.5 -123.833 -247.5 -164.5s-197.333 -61 -304 -61z" />
    <glyph glyph-name="numbersign.whitecircle" unicode="&#x30;&#x20dd;" 
d="M1155 767h-93l-14 -76h94l-29 -150h-97l-33 -163h-160l31 163h-72l-32 -163h-161l33 163h-92l30 150h92l16 76h-95l28 151h94l30 153h161l-31 -153h74l28 153h162l-29 -153h93zM816 781l-23 -113h105l21 113h-103zM857 144c104 0 199.5 25.667 286.5 77
s155.5 121.166 205.5 209.499s75 184.833 75 289.5s-25 201.167 -75 289.5s-118.5 158.166 -205.5 209.499s-182.5 77 -286.5 77s-199.5 -25.667 -286.5 -77s-155.5 -121.166 -205.5 -209.499s-75 -184.833 -75 -289.5s25 -201.167 75 -289.5s118.5 -158.166 205.5 -209.499
s182.5 -77 286.5 -77zM857 -57c-142.667 0 -273.5 34.333 -392.5 103s-212.833 162.5 -281.5 281.5s-103 249.833 -103 392.5s34.333 273.5 103 392.5s162.5 212.833 281.5 281.5s249.833 103 392.5 103s273.5 -34.333 392.5 -103s212.667 -162.5 281 -281.5
s102.5 -249.833 102.5 -392.5c0 -106.667 -20.167 -208 -60.5 -304s-95 -178.5 -164 -247.5s-151.5 -123.833 -247.5 -164.5s-197.333 -61 -304 -61z" />
    <glyph glyph-name="uni25BC.whitecircle" unicode="&#x25bc;&#x20dd;" 
d="M1192 947l-335 -581l-335 581h670zM857 144c104 0 199.5 25.667 286.5 77s155.5 121.166 205.5 209.499s75 184.833 75 289.5s-25 201.167 -75 289.5s-118.5 158.166 -205.5 209.499s-182.5 77 -286.5 77s-199.5 -25.667 -286.5 -77s-155.5 -121.166 -205.5 -209.499
s-75 -184.833 -75 -289.5s25 -201.167 75 -289.5s118.5 -158.166 205.5 -209.499s182.5 -77 286.5 -77zM857 -57c-142.667 0 -273.5 34.333 -392.5 103s-212.833 162.5 -281.5 281.5s-103 249.833 -103 392.5s34.333 273.5 103 392.5s162.5 212.833 281.5 281.5
s249.833 103 392.5 103s273.5 -34.333 392.5 -103s212.667 -162.5 281 -281.5s102.5 -249.833 102.5 -392.5c0 -106.667 -20.167 -208 -60.5 -304s-95 -178.5 -164 -247.5s-151.5 -123.833 -247.5 -164.5s-197.333 -61 -304 -61z" />
    <glyph glyph-name="uni25B2.whitecircle" unicode="&#x25b2;&#x20dd;" 
d="M1192 500h-670l335 581zM857 144c104 0 199.5 25.667 286.5 77s155.5 121.166 205.5 209.499s75 184.833 75 289.5s-25 201.167 -75 289.5s-118.5 158.166 -205.5 209.499s-182.5 77 -286.5 77s-199.5 -25.667 -286.5 -77s-155.5 -121.166 -205.5 -209.499
s-75 -184.833 -75 -289.5s25 -201.167 75 -289.5s118.5 -158.166 205.5 -209.499s182.5 -77 286.5 -77zM857 -57c-142.667 0 -273.5 34.333 -392.5 103s-212.833 162.5 -281.5 281.5s-103 249.833 -103 392.5s34.333 273.5 103 392.5s162.5 212.833 281.5 281.5
s249.833 103 392.5 103s273.5 -34.333 392.5 -103s212.667 -162.5 281 -281.5s102.5 -249.833 102.5 -392.5c0 -106.667 -20.167 -208 -60.5 -304s-95 -178.5 -164 -247.5s-151.5 -123.833 -247.5 -164.5s-197.333 -61 -304 -61z" />
    <glyph glyph-name="uni25C0.whitecircle" unicode="&#x25c0;&#x20dd;" 
d="M1077 392l-582 335l582 335v-670zM857 144c104 0 199.5 25.667 286.5 77s155.5 121.166 205.5 209.499s75 184.833 75 289.5s-25 201.167 -75 289.5s-118.5 158.166 -205.5 209.499s-182.5 77 -286.5 77s-199.5 -25.667 -286.5 -77s-155.5 -121.166 -205.5 -209.499
s-75 -184.833 -75 -289.5s25 -201.167 75 -289.5s118.5 -158.166 205.5 -209.499s182.5 -77 286.5 -77zM857 -57c-142.667 0 -273.5 34.333 -392.5 103s-212.833 162.5 -281.5 281.5s-103 249.833 -103 392.5s34.333 273.5 103 392.5s162.5 212.833 281.5 281.5
s249.833 103 392.5 103s273.5 -34.333 392.5 -103s212.667 -162.5 281 -281.5s102.5 -249.833 102.5 -392.5c0 -106.667 -20.167 -208 -60.5 -304s-95 -178.5 -164 -247.5s-151.5 -123.833 -247.5 -164.5s-197.333 -61 -304 -61z" />
    <glyph glyph-name="uni25B6.whitecircle" unicode="&#x25b6;&#x20dd;" 
d="M637 392v670l581 -335zM857 144c104 0 199.5 25.667 286.5 77s155.5 121.166 205.5 209.499s75 184.833 75 289.5s-25 201.167 -75 289.5s-118.5 158.166 -205.5 209.499s-182.5 77 -286.5 77s-199.5 -25.667 -286.5 -77s-155.5 -121.166 -205.5 -209.499
s-75 -184.833 -75 -289.5s25 -201.167 75 -289.5s118.5 -158.166 205.5 -209.499s182.5 -77 286.5 -77zM857 -57c-142.667 0 -273.5 34.333 -392.5 103s-212.833 162.5 -281.5 281.5s-103 249.833 -103 392.5s34.333 273.5 103 392.5s162.5 212.833 281.5 281.5
s249.833 103 392.5 103s273.5 -34.333 392.5 -103s212.667 -162.5 281 -281.5s102.5 -249.833 102.5 -392.5c0 -106.667 -20.167 -208 -60.5 -304s-95 -178.5 -164 -247.5s-151.5 -123.833 -247.5 -164.5s-197.333 -61 -304 -61z" />
    <glyph glyph-name="question.whitecircle" unicode="&#x3f;&#x20dd;" 
d="M723 464c0 30.667 11.167 54.5 33.5 71.5s53.833 25.5 94.5 25.5c39.333 0 70.5 -8.66699 93.5 -26s34.5 -41 34.5 -71c0 -30.667 -11.167 -54.334 -33.5 -71.001s-53.833 -25 -94.5 -25s-72.167 8.33301 -94.5 25s-33.5 40.334 -33.5 71.001zM743 604
c-2 8 -3 18.3359 -3 31.0029c-0.666992 60.667 27 108.667 83 144c30.667 19.333 52 35.166 64 47.499s18 25.166 18 38.499c0 14.667 -4.66699 26.167 -14 34.5s-21.333 12.5 -36 12.5c-14 0 -25.833 -5.16699 -35.5 -15.5s-15.167 -23.166 -16.5 -38.499h-205
c-0.666992 73.333 23.5 128.666 72.5 165.999s117.833 56 206.5 56c77.333 0 139.833 -18.5 187.5 -55.5s71.5 -87.167 71.5 -150.5c0 -37.333 -8.16699 -68.833 -24.5 -94.5s-41.5 -49.167 -75.5 -70.5c-42 -26.667 -68.333 -45.334 -79 -56.001s-16 -24.667 -16 -42v-7
h-198zM857 144.003c104 0 199.5 25.667 286.5 77s155.5 121.166 205.5 209.499s75 184.833 75 289.5s-25 201.167 -75 289.5s-118.5 158.166 -205.5 209.499s-182.5 77 -286.5 77s-199.5 -25.667 -286.5 -77s-155.5 -121.166 -205.5 -209.499s-75 -184.833 -75 -289.5
s25 -201.167 75 -289.5s118.5 -158.166 205.5 -209.499s182.5 -77 286.5 -77zM857 -56.9971c-142.667 0 -273.5 34.333 -392.5 103s-212.833 162.5 -281.5 281.5s-103 249.833 -103 392.5s34.333 273.5 103 392.5s162.5 212.833 281.5 281.5s249.833 103 392.5 103
s273.5 -34.333 392.5 -103s212.667 -162.5 281 -281.5s102.5 -249.833 102.5 -392.5c0 -106.667 -20.167 -208 -60.5 -304s-95 -178.5 -164 -247.5s-151.5 -123.833 -247.5 -164.5s-197.333 -61 -304 -61z" />
    <glyph glyph-name="exclam.whitecircle" unicode="&#x21;&#x20dd;" 
d="M734 464c0 30.667 11.333 54.5 34 71.5s54.334 25.5 95.001 25.5c40 0 71.167 -8.66699 93.5 -26s33.5 -41 33.5 -71c0 -30.667 -11.167 -54.334 -33.5 -71.001s-53.5 -25 -93.5 -25c-40.667 0 -72.334 8.33301 -95.001 25s-34 40.334 -34 71.001zM737 1072h251l-27 -458
h-198zM857 144c104 0 199.5 25.667 286.5 77s155.5 121.166 205.5 209.499s75 184.833 75 289.5s-25 201.167 -75 289.5s-118.5 158.166 -205.5 209.499s-182.5 77 -286.5 77s-199.5 -25.667 -286.5 -77s-155.5 -121.166 -205.5 -209.499s-75 -184.833 -75 -289.5
s25 -201.167 75 -289.5s118.5 -158.166 205.5 -209.499s182.5 -77 286.5 -77zM857 -57c-142.667 0 -273.5 34.333 -392.5 103s-212.833 162.5 -281.5 281.5s-103 249.833 -103 392.5s34.333 273.5 103 392.5s162.5 212.833 281.5 281.5s249.833 103 392.5 103
s273.5 -34.333 392.5 -103s212.667 -162.5 281 -281.5s102.5 -249.833 102.5 -392.5c0 -106.667 -20.167 -208 -60.5 -304s-95 -178.5 -164 -247.5s-151.5 -123.833 -247.5 -164.5s-197.333 -61 -304 -61z" />
    <glyph glyph-name="uni2717.whitecircle" unicode="&#x2717;&#x20dd;" 
d="M860 862l209 207l138 -138l-207 -208l207 -208l-138 -139l-209 207l-209 -208l-138 138l209 210l-208 208l138 139zM857 144c104 0 199.5 25.667 286.5 77s155.5 121.166 205.5 209.499s75 184.833 75 289.5s-25 201.167 -75 289.5s-118.5 158.166 -205.5 209.499
s-182.5 77 -286.5 77s-199.5 -25.667 -286.5 -77s-155.5 -121.166 -205.5 -209.499s-75 -184.833 -75 -289.5s25 -201.167 75 -289.5s118.5 -158.166 205.5 -209.499s182.5 -77 286.5 -77zM857 -57c-142.667 0 -273.5 34.333 -392.5 103s-212.833 162.5 -281.5 281.5
s-103 249.833 -103 392.5s34.333 273.5 103 392.5s162.5 212.833 281.5 281.5s249.833 103 392.5 103s273.5 -34.333 392.5 -103s212.667 -162.5 281 -281.5s102.5 -249.833 102.5 -392.5c0 -106.667 -20.167 -208 -60.5 -304s-95 -178.5 -164 -247.5
s-151.5 -123.833 -247.5 -164.5s-197.333 -61 -304 -61z" />
    <glyph glyph-name="uni2713.whitecircle" unicode="&#x2713;&#x20dd;" 
d="M1287 890l-541 -528l-323 318l144 141l183 -182l397 397zM857 144c104 0 199.5 25.667 286.5 77s155.5 121.166 205.5 209.499s75 184.833 75 289.5s-25 201.167 -75 289.5s-118.5 158.166 -205.5 209.499s-182.5 77 -286.5 77s-199.5 -25.667 -286.5 -77
s-155.5 -121.166 -205.5 -209.499s-75 -184.833 -75 -289.5s25 -201.167 75 -289.5s118.5 -158.166 205.5 -209.499s182.5 -77 286.5 -77zM857 -57c-142.667 0 -273.5 34.333 -392.5 103s-212.833 162.5 -281.5 281.5s-103 249.833 -103 392.5s34.333 273.5 103 392.5
s162.5 212.833 281.5 281.5s249.833 103 392.5 103s273.5 -34.333 392.5 -103s212.667 -162.5 281 -281.5s102.5 -249.833 102.5 -392.5c0 -106.667 -20.167 -208 -60.5 -304s-95 -178.5 -164 -247.5s-151.5 -123.833 -247.5 -164.5s-197.333 -61 -304 -61z" />
    <glyph glyph-name="zero.whitesquare" unicode="&#x30;&#x20de;" 
d="M857 546c53.333 0 80 59.333 80 178c0 118 -26.667 177 -80 177c-54 0 -81 -59 -81 -177c0 -118.667 27 -178 81 -178zM854 368c-92.667 0 -166.167 31.667 -220.5 95s-81.5 150.333 -81.5 261c0 110 27.167 196.667 81.5 260s127.833 95 220.5 95s167 -31.667 223 -95
s84 -150 84 -260s-28 -196.833 -84 -260.5s-130.333 -95.5 -223 -95.5zM367 1475h979c72.667 0 134.5 -25.167 185.5 -75.5s76.5 -111.166 76.5 -182.499v-990c0 -71.333 -25.5 -132.166 -76.5 -182.499s-112.833 -75.5 -185.5 -75.5h-979c-72 0 -133.5 25.167 -184.5 75.5
s-76.5 111.166 -76.5 182.499v990c0 71.333 25.5 132.166 76.5 182.499s112.5 75.5 184.5 75.5zM1401 1161c0 34.667 -12.333 63.834 -37 87.501s-55 35.5 -91 35.5h-833c-35.333 0 -65.333 -11.833 -90 -35.5s-37 -52.834 -37 -87.501v-878c0 -34 12.5 -63 37.5 -87
s54.833 -36 89.5 -36h833c35.333 0 65.5 12 90.5 36s37.5 53 37.5 87v878z" />
    <glyph glyph-name="one.whitesquare" unicode="&#x31;&#x20de;" 
d="M1013 380h-238v489h-8l-157 -106v201l165 108h238v-692zM367 1475h979c72.667 0 134.5 -25.167 185.5 -75.5s76.5 -111.166 76.5 -182.499v-990c0 -71.333 -25.5 -132.166 -76.5 -182.499s-112.833 -75.5 -185.5 -75.5h-979c-72 0 -133.5 25.167 -184.5 75.5
s-76.5 111.166 -76.5 182.499v990c0 71.333 25.5 132.166 76.5 182.499s112.5 75.5 184.5 75.5zM1401 1161c0 34.667 -12.333 63.834 -37 87.501s-55 35.5 -91 35.5h-833c-35.333 0 -65.333 -11.833 -90 -35.5s-37 -52.834 -37 -87.501v-878c0 -34 12.5 -63 37.5 -87
s54.833 -36 89.5 -36h833c35.333 0 65.5 12 90.5 36s37.5 53 37.5 87v878z" />
    <glyph glyph-name="two.whitesquare" unicode="&#x32;&#x20de;" 
d="M790 832l-219.001 -0.00195312v2c0 73.333 26 133 78 179s122 69 210 69c81.333 0 147.5 -19.833 198.5 -59.5s76.5 -90.5 76.5 -152.5c0 -35.333 -10.667 -69.166 -32 -101.499s-55.333 -69.166 -102 -110.499l-94 -88v-8h238v-183h-557v146l240 218
c27.333 25.333 46.333 45.5 57 60.5s16 30.5 16 46.5c0 15.333 -4.83301 27.5 -14.5 36.5s-22.5 13.5 -38.5 13.5c-18 0 -32.167 -6 -42.5 -18s-15.166 -28 -14.499 -48v-2zM366.999 1475h979c72.667 0 134.5 -25.167 185.5 -75.5s76.5 -111.166 76.5 -182.499v-990
c0 -71.333 -25.5 -132.166 -76.5 -182.499s-112.833 -75.5 -185.5 -75.5h-979c-72 0 -133.5 25.167 -184.5 75.5s-76.5 111.166 -76.5 182.499v990c0 71.333 25.5 132.166 76.5 182.499s112.5 75.5 184.5 75.5zM1401 1161c0 34.667 -12.333 63.834 -37 87.501
s-55 35.5 -91 35.5h-833c-35.333 0 -65.333 -11.833 -90 -35.5s-37 -52.834 -37 -87.501v-878c0 -34 12.5 -63 37.5 -87s54.833 -36 89.5 -36h833c35.333 0 65.5 12 90.5 36s37.5 53 37.5 87v878z" />
    <glyph glyph-name="three.whitesquare" unicode="&#x33;&#x20de;" 
d="M784 644v168.999h66c20 0 36.167 5.16699 48.5 15.5s18.5 23.833 18.5 40.5c0 14.667 -6.16699 26.334 -18.5 35.001s-28.5 13 -48.5 13c-22.667 0 -40.834 -6.5 -54.501 -19.5s-20.5 -29.833 -20.5 -50.5h-216c3.33301 75.333 30 133.333 80 174s121.667 61 215 61
c86.667 -0.666992 155.834 -18 207.501 -52s77.834 -79.333 78.501 -136c0 -35.333 -13.167 -67 -39.5 -95s-56.5 -44.333 -90.5 -49v-11c40 -3.33301 74.333 -20 103 -50s43 -67.333 43 -112c0.666992 -64 -26.666 -114.667 -81.999 -152s-129 -56 -221 -56
c-90.667 0 -162.834 21.5 -216.501 64.5s-80.834 99.833 -81.501 170.5h216c0.666992 -19.333 8 -35 22 -47s33 -18 57 -18s42.833 4.66699 56.5 14s20.5 22 20.5 38c0 16.667 -6.66699 29.667 -20 39s-32 14 -56 14h-67zM367 1475h979c72.667 0 134.5 -25.167 185.5 -75.5
s76.5 -111.166 76.5 -182.499v-990c0 -71.333 -25.5 -132.166 -76.5 -182.499s-112.833 -75.5 -185.5 -75.5h-979c-72 0 -133.5 25.167 -184.5 75.5s-76.5 111.166 -76.5 182.499v990c0 71.333 25.5 132.166 76.5 182.499s112.5 75.5 184.5 75.5zM1401 1161
c0 34.667 -12.333 63.834 -37 87.501s-55 35.5 -91 35.5h-833c-35.333 0 -65.333 -11.833 -90 -35.5s-37 -52.834 -37 -87.501v-878c0 -34 12.5 -63 37.5 -87s54.833 -36 89.5 -36h833c35.333 0 65.5 12 90.5 36s37.5 53 37.5 87v878z" />
    <glyph glyph-name="four.whitesquare" unicode="&#x34;&#x20de;" 
d="M758 1072h314.001v-417h97v-172h-97v-103h-191v103h-343v175c53.333 112 126.666 250 219.999 414zM737.001 655h144v279h-7c-53.333 -94 -99 -186.667 -137 -278v-1zM367.001 1475h979c72.667 0 134.5 -25.167 185.5 -75.5s76.5 -111.166 76.5 -182.499v-990
c0 -71.333 -25.5 -132.166 -76.5 -182.499s-112.833 -75.5 -185.5 -75.5h-979c-72 0 -133.5 25.167 -184.5 75.5s-76.5 111.166 -76.5 182.499v990c0 71.333 25.5 132.166 76.5 182.499s112.5 75.5 184.5 75.5zM1401 1161c0 34.667 -12.333 63.834 -37 87.501
s-55 35.5 -91 35.5h-833c-35.333 0 -65.333 -11.833 -90 -35.5s-37 -52.834 -37 -87.501v-878c0 -34 12.5 -63 37.5 -87s54.833 -36 89.5 -36h833c35.333 0 65.5 12 90.5 36s37.5 53 37.5 87v878z" />
    <glyph glyph-name="five.whitesquare" unicode="&#x35;&#x20de;" 
d="M577 602h217.999c2.66699 -16.667 11 -29.834 25 -39.501s30.333 -14.5 49 -14.5c20.667 0 38.5 7.33301 53.5 22s22.5 33.334 22.5 56.001c0 20.667 -7.5 38.167 -22.5 52.5s-33.167 21.5 -54.5 21.5c-32 0 -54.667 -13 -68 -39h-211l26 418h505v-163h-331l-9 -129h11
c10.667 19.333 29.834 35.333 57.501 48s59.167 19 94.5 19c68 0 122.833 -19.833 164.5 -59.5s62.5 -93.5 62.5 -161.5c0 -78.667 -27 -141.167 -81 -187.5s-127.333 -69.5 -220 -69.5c-86 0 -156 21.167 -210 63.5s-81.333 96.5 -82 162.5zM366.999 1475h979
c72.667 0 134.5 -25.167 185.5 -75.5s76.5 -111.166 76.5 -182.499v-990c0 -71.333 -25.5 -132.166 -76.5 -182.499s-112.833 -75.5 -185.5 -75.5h-979c-72 0 -133.5 25.167 -184.5 75.5s-76.5 111.166 -76.5 182.499v990c0 71.333 25.5 132.166 76.5 182.499
s112.5 75.5 184.5 75.5zM1401 1161c0 34.667 -12.333 63.834 -37 87.501s-55 35.5 -91 35.5h-833c-35.333 0 -65.333 -11.833 -90 -35.5s-37 -52.834 -37 -87.501v-878c0 -34 12.5 -63 37.5 -87s54.833 -36 89.5 -36h833c35.333 0 65.5 12 90.5 36s37.5 53 37.5 87v878z" />
    <glyph glyph-name="six.whitesquare" unicode="&#x36;&#x20de;" 
d="M1148 879h-211c-14 25.333 -36.333 38 -67 38c-32 0 -56.833 -16.167 -74.5 -48.5s-23.834 -72.833 -18.501 -121.5h8c27.333 57.333 79 86 155 86c66.667 0 120.334 -19 161.001 -57s61 -90 61 -156c0 -76.667 -27 -137.834 -81 -183.501s-125.333 -68.5 -214 -68.5
c-120 0 -207.667 44.667 -263 134c-37.333 58.667 -56 134.334 -56 227.001c0 111.333 28.5 198 85.5 260s135.167 93 234.5 93c76 0 140 -19.333 192 -58s81.333 -87 88 -145zM789 615c0 -22.667 7.16699 -41 21.5 -55s32.5 -21 54.5 -21s40.167 6.83301 54.5 20.5
s21.5 32.167 21.5 55.5c0 22 -7.33301 39.833 -22 53.5s-32.667 20.5 -54 20.5c-22 0 -40.167 -6.83301 -54.5 -20.5s-21.5 -31.5 -21.5 -53.5zM367 1475h979c72.667 0 134.5 -25.167 185.5 -75.5s76.5 -111.166 76.5 -182.499v-990
c0 -71.333 -25.5 -132.166 -76.5 -182.499s-112.833 -75.5 -185.5 -75.5h-979c-72 0 -133.5 25.167 -184.5 75.5s-76.5 111.166 -76.5 182.499v990c0 71.333 25.5 132.166 76.5 182.499s112.5 75.5 184.5 75.5zM1401 1161c0 34.667 -12.333 63.834 -37 87.501
s-55 35.5 -91 35.5h-833c-35.333 0 -65.333 -11.833 -90 -35.5s-37 -52.834 -37 -87.501v-878c0 -34 12.5 -63 37.5 -87s54.833 -36 89.5 -36h833c35.333 0 65.5 12 90.5 36s37.5 53 37.5 87v878z" />
    <glyph glyph-name="seven.whitesquare" unicode="&#x37;&#x20de;" 
d="M574 1072h570v-185l-261 -507h-254l275 500v9h-330v183zM367 1475h979c72.667 0 134.5 -25.167 185.5 -75.5s76.5 -111.166 76.5 -182.499v-990c0 -71.333 -25.5 -132.166 -76.5 -182.499s-112.833 -75.5 -185.5 -75.5h-979c-72 0 -133.5 25.167 -184.5 75.5
s-76.5 111.166 -76.5 182.499v990c0 71.333 25.5 132.166 76.5 182.499s112.5 75.5 184.5 75.5zM1401 1161c0 34.667 -12.333 63.834 -37 87.501s-55 35.5 -91 35.5h-833c-35.333 0 -65.333 -11.833 -90 -35.5s-37 -52.834 -37 -87.501v-878c0 -34 12.5 -63 37.5 -87
s54.833 -36 89.5 -36h833c35.333 0 65.5 12 90.5 36s37.5 53 37.5 87v878z" />
    <glyph glyph-name="eight.whitesquare" unicode="&#x38;&#x20de;" 
d="M857 520c22.667 0 41.334 7 56.001 21s22 31.667 22 53c0 22 -7.33301 40.167 -22 54.5s-33.334 21.5 -56.001 21.5s-41.5 -7.33301 -56.5 -22s-22.5 -32.667 -22.5 -54s7.5 -39 22.5 -53s33.833 -21 56.5 -21zM857 807c18.667 0 34 5.83301 46 17.5s18 26.167 18 43.5
s-6.16699 32 -18.5 44s-27.5 18 -45.5 18s-33.333 -6 -46 -18s-19 -26.667 -19 -44s6.16699 -31.833 18.5 -43.5s27.833 -17.5 46.5 -17.5zM856 368c-98.667 0 -176.669 18.668 -234.002 56.001s-86 88 -86 152c0 44.667 14.333 81.667 43 111s67.334 47 116.001 53v10
c-86.667 23.333 -130 71.666 -130 144.999c0 57.333 26.333 102.833 79 136.5s123.667 50.5 213 50.5s160.333 -16.833 213 -50.5s79 -79.167 79 -136.5c0 -74 -43.333 -122.333 -130 -145v-10c48.667 -6 87.334 -23.667 116.001 -53s43 -66 43 -110
c0 -64.667 -28.833 -115.667 -86.5 -153s-136.167 -56 -235.5 -56zM366.998 1475h979c72.667 0 134.5 -25.167 185.5 -75.5s76.5 -111.166 76.5 -182.499v-990c0 -71.333 -25.5 -132.166 -76.5 -182.499s-112.833 -75.5 -185.5 -75.5h-979c-72 0 -133.5 25.167 -184.5 75.5
s-76.5 111.166 -76.5 182.499v990c0 71.333 25.5 132.166 76.5 182.499s112.5 75.5 184.5 75.5zM1401 1161c0 34.667 -12.333 63.834 -37 87.501s-55 35.5 -91 35.5h-833c-35.333 0 -65.333 -11.833 -90 -35.5s-37 -52.834 -37 -87.501v-878c0 -34 12.5 -63 37.5 -87
s54.833 -36 89.5 -36h833c35.333 0 65.5 12 90.5 36s37.5 53 37.5 87v878z" />
    <glyph glyph-name="nine.whitesquare" unicode="&#x39;&#x20de;" 
d="M551 832c0 73.333 28.001 133.5 84.001 180.5s127.333 70.5 214 70.5c97.333 0 174.333 -30.5 231 -91.5s85 -148.833 85 -263.5c0 -114 -28 -202.5 -84 -265.5s-134.667 -94.5 -236 -94.5c-76 0 -139.833 19.333 -191.5 58s-80.834 87.334 -87.501 146.001h214
c13.333 -24.667 35 -37 65 -37c34 0 59.667 16.167 77 48.5s23 72.166 17 119.499h-8c-26 -57.333 -77 -86 -153 -86c-68 0 -122.833 19.333 -164.5 58s-62.5 91 -62.5 157zM927.001 836c0 22.667 -7.16797 40.998 -21.501 54.998s-32.5 21 -54.5 21
c-21.333 0 -39.166 -7 -53.499 -21s-21.5 -32.333 -21.5 -55c0 -23.333 7 -41.666 21 -54.999s32.333 -20 55 -20c22 0 40 6.83301 54 20.5s21 31.834 21 54.501zM367 1475h979c72.667 0 134.5 -25.167 185.5 -75.5s76.5 -111.166 76.5 -182.499v-990
c0 -71.333 -25.5 -132.166 -76.5 -182.499s-112.833 -75.5 -185.5 -75.5h-979c-72 0 -133.5 25.167 -184.5 75.5s-76.5 111.166 -76.5 182.499v990c0 71.333 25.5 132.166 76.5 182.499s112.5 75.5 184.5 75.5zM1401 1161c0 34.667 -12.333 63.834 -37 87.501
s-55 35.5 -91 35.5h-833c-35.333 0 -65.333 -11.833 -90 -35.5s-37 -52.834 -37 -87.501v-878c0 -34 12.5 -63 37.5 -87s54.833 -36 89.5 -36h833c35.333 0 65.5 12 90.5 36s37.5 53 37.5 87v878z" />
    <glyph glyph-name="plus.uc.whitesquare" unicode="&#x2b;&#x20de;" 
d="M960 625v-207h-207v207h-202v198h202v206h207v-206h203v-198h-203zM367 1475h979c72.667 0 134.5 -25.167 185.5 -75.5s76.5 -111.166 76.5 -182.499v-990c0 -71.333 -25.5 -132.166 -76.5 -182.499s-112.833 -75.5 -185.5 -75.5h-979c-72 0 -133.5 25.167 -184.5 75.5
s-76.5 111.166 -76.5 182.499v990c0 71.333 25.5 132.166 76.5 182.499s112.5 75.5 184.5 75.5zM1401 1161c0 34.667 -12.333 63.834 -37 87.501s-55 35.5 -91 35.5h-833c-35.333 0 -65.333 -11.833 -90 -35.5s-37 -52.834 -37 -87.501v-878c0 -34 12.5 -63 37.5 -87
s54.833 -36 89.5 -36h833c35.333 0 65.5 12 90.5 36s37.5 53 37.5 87v878z" />
    <glyph glyph-name="minus.uc.whitesquare" unicode="&#x2212;&#x20de;" 
d="M1127 620h-540v207h540v-207zM367 1475h979c72.667 0 134.5 -25.167 185.5 -75.5s76.5 -111.166 76.5 -182.499v-990c0 -71.333 -25.5 -132.166 -76.5 -182.499s-112.833 -75.5 -185.5 -75.5h-979c-72 0 -133.5 25.167 -184.5 75.5s-76.5 111.166 -76.5 182.499v990
c0 71.333 25.5 132.166 76.5 182.499s112.5 75.5 184.5 75.5zM1401 1161c0 34.667 -12.333 63.834 -37 87.501s-55 35.5 -91 35.5h-833c-35.333 0 -65.333 -11.833 -90 -35.5s-37 -52.834 -37 -87.501v-878c0 -34 12.5 -63 37.5 -87s54.833 -36 89.5 -36h833
c35.333 0 65.5 12 90.5 36s37.5 53 37.5 87v878z" />
    <glyph glyph-name="multiply.uc.whitesquare" unicode="&#xd7;&#x20de;" 
d="M856 870l158 156l146 -146l-157 -156l157 -156l-146 -145l-158 156l-158 -156l-146 145l158 156l-158 156l146 146zM367 1475h979c72.667 0 134.5 -25.167 185.5 -75.5s76.5 -111.166 76.5 -182.499v-990c0 -71.333 -25.5 -132.166 -76.5 -182.499
s-112.833 -75.5 -185.5 -75.5h-979c-72 0 -133.5 25.167 -184.5 75.5s-76.5 111.166 -76.5 182.499v990c0 71.333 25.5 132.166 76.5 182.499s112.5 75.5 184.5 75.5zM1401 1161c0 34.667 -12.333 63.834 -37 87.501s-55 35.5 -91 35.5h-833
c-35.333 0 -65.333 -11.833 -90 -35.5s-37 -52.834 -37 -87.501v-878c0 -34 12.5 -63 37.5 -87s54.833 -36 89.5 -36h833c35.333 0 65.5 12 90.5 36s37.5 53 37.5 87v878z" />
    <glyph glyph-name="divide.uc.whitesquare" unicode="&#xf7;&#x20de;" 
d="M1127 646h-540v156h540v-156zM750 955c0 27.333 10.167 50 30.5 68s45.833 27 76.5 27s56.334 -9 77.001 -27s31 -40.667 31 -68c0 -26.667 -10.333 -48.834 -31 -66.501s-46.334 -26.5 -77.001 -26.5s-56.167 8.83301 -76.5 26.5s-30.5 39.834 -30.5 66.501zM750 493
c0 27.333 10.167 49.833 30.5 67.5s45.833 26.5 76.5 26.5s56.334 -8.83301 77.001 -26.5s31 -40.167 31 -67.5s-10.333 -49.833 -31 -67.5s-46.334 -26.5 -77.001 -26.5s-56.167 8.83301 -76.5 26.5s-30.5 40.167 -30.5 67.5zM367 1475h979
c72.667 0 134.5 -25.167 185.5 -75.5s76.5 -111.166 76.5 -182.499v-990c0 -71.333 -25.5 -132.166 -76.5 -182.499s-112.833 -75.5 -185.5 -75.5h-979c-72 0 -133.5 25.167 -184.5 75.5s-76.5 111.166 -76.5 182.499v990c0 71.333 25.5 132.166 76.5 182.499
s112.5 75.5 184.5 75.5zM1401 1161c0 34.667 -12.333 63.834 -37 87.501s-55 35.5 -91 35.5h-833c-35.333 0 -65.333 -11.833 -90 -35.5s-37 -52.834 -37 -87.501v-878c0 -34 12.5 -63 37.5 -87s54.833 -36 89.5 -36h833c35.333 0 65.5 12 90.5 36s37.5 53 37.5 87v878z" />
    <glyph glyph-name="equal.uc.whitesquare" unicode="&#x3d;&#x20de;" 
d="M1146 494h-578v179h578v-179zM1146 772h-578v179h578v-179zM367 1475h979c72.667 0 134.5 -25.167 185.5 -75.5s76.5 -111.166 76.5 -182.499v-990c0 -71.333 -25.5 -132.166 -76.5 -182.499s-112.833 -75.5 -185.5 -75.5h-979c-72 0 -133.5 25.167 -184.5 75.5
s-76.5 111.166 -76.5 182.499v990c0 71.333 25.5 132.166 76.5 182.499s112.5 75.5 184.5 75.5zM1401 1161c0 34.667 -12.333 63.834 -37 87.501s-55 35.5 -91 35.5h-833c-35.333 0 -65.333 -11.833 -90 -35.5s-37 -52.834 -37 -87.501v-878c0 -34 12.5 -63 37.5 -87
s54.833 -36 89.5 -36h833c35.333 0 65.5 12 90.5 36s37.5 53 37.5 87v878z" />
    <glyph glyph-name="greater.uc.whitesquare" unicode="&#x3e;&#x20de;" 
d="M1155 784v-123l-542 -255v215l256 100v9l-256 90v222zM367 1475h979c72.667 0 134.5 -25.167 185.5 -75.5s76.5 -111.166 76.5 -182.499v-990c0 -71.333 -25.5 -132.166 -76.5 -182.499s-112.833 -75.5 -185.5 -75.5h-979c-72 0 -133.5 25.167 -184.5 75.5
s-76.5 111.166 -76.5 182.499v990c0 71.333 25.5 132.166 76.5 182.499s112.5 75.5 184.5 75.5zM1401 1161c0 34.667 -12.333 63.834 -37 87.501s-55 35.5 -91 35.5h-833c-35.333 0 -65.333 -11.833 -90 -35.5s-37 -52.834 -37 -87.501v-878c0 -34 12.5 -63 37.5 -87
s54.833 -36 89.5 -36h833c35.333 0 65.5 12 90.5 36s37.5 53 37.5 87v878z" />
    <glyph glyph-name="less.uc.whitesquare" unicode="&#x3c;&#x20de;" 
d="M559 661v123l542 258v-222l-257 -90v-9l257 -100v-215zM367 1475h979c72.667 0 134.5 -25.167 185.5 -75.5s76.5 -111.166 76.5 -182.499v-990c0 -71.333 -25.5 -132.166 -76.5 -182.499s-112.833 -75.5 -185.5 -75.5h-979c-72 0 -133.5 25.167 -184.5 75.5
s-76.5 111.166 -76.5 182.499v990c0 71.333 25.5 132.166 76.5 182.499s112.5 75.5 184.5 75.5zM1401 1161c0 34.667 -12.333 63.834 -37 87.501s-55 35.5 -91 35.5h-833c-35.333 0 -65.333 -11.833 -90 -35.5s-37 -52.834 -37 -87.501v-878c0 -34 12.5 -63 37.5 -87
s54.833 -36 89.5 -36h833c35.333 0 65.5 12 90.5 36s37.5 53 37.5 87v878z" />
    <glyph glyph-name="numbersign.whitesquare" unicode="&#x23;&#x20de;" 
d="M1155 767h-93l-14 -76h94l-29 -150h-97l-33 -163h-160l31 163h-72l-32 -163h-161l33 163h-92l30 150h92l16 76h-95l28 151h94l30 153h161l-31 -153h74l28 153h162l-29 -153h93zM816 781l-23 -113h105l21 113h-103zM367 1475h979c72.667 0 134.5 -25.167 185.5 -75.5
s76.5 -111.166 76.5 -182.499v-990c0 -71.333 -25.5 -132.166 -76.5 -182.499s-112.833 -75.5 -185.5 -75.5h-979c-72 0 -133.5 25.167 -184.5 75.5s-76.5 111.166 -76.5 182.499v990c0 71.333 25.5 132.166 76.5 182.499s112.5 75.5 184.5 75.5zM1401 1161
c0 34.667 -12.333 63.834 -37 87.501s-55 35.5 -91 35.5h-833c-35.333 0 -65.333 -11.833 -90 -35.5s-37 -52.834 -37 -87.501v-878c0 -34 12.5 -63 37.5 -87s54.833 -36 89.5 -36h833c35.333 0 65.5 12 90.5 36s37.5 53 37.5 87v878z" />
    <glyph glyph-name="uni25BC.whitesquare" unicode="&#x25bc;&#x20de;" 
d="M1192 947l-335 -581l-335 581h670zM367 1475h979c72.667 0 134.5 -25.167 185.5 -75.5s76.5 -111.166 76.5 -182.499v-990c0 -71.333 -25.5 -132.166 -76.5 -182.499s-112.833 -75.5 -185.5 -75.5h-979c-72 0 -133.5 25.167 -184.5 75.5s-76.5 111.166 -76.5 182.499v990
c0 71.333 25.5 132.166 76.5 182.499s112.5 75.5 184.5 75.5zM1401 1161c0 34.667 -12.333 63.834 -37 87.501s-55 35.5 -91 35.5h-833c-35.333 0 -65.333 -11.833 -90 -35.5s-37 -52.834 -37 -87.501v-878c0 -34 12.5 -63 37.5 -87s54.833 -36 89.5 -36h833
c35.333 0 65.5 12 90.5 36s37.5 53 37.5 87v878z" />
    <glyph glyph-name="uni25B2.whitesquare" unicode="&#x25b2;&#x20de;" 
d="M1192 500h-670l335 581zM367 1475h979c72.667 0 134.5 -25.167 185.5 -75.5s76.5 -111.166 76.5 -182.499v-990c0 -71.333 -25.5 -132.166 -76.5 -182.499s-112.833 -75.5 -185.5 -75.5h-979c-72 0 -133.5 25.167 -184.5 75.5s-76.5 111.166 -76.5 182.499v990
c0 71.333 25.5 132.166 76.5 182.499s112.5 75.5 184.5 75.5zM1401 1161c0 34.667 -12.333 63.834 -37 87.501s-55 35.5 -91 35.5h-833c-35.333 0 -65.333 -11.833 -90 -35.5s-37 -52.834 -37 -87.501v-878c0 -34 12.5 -63 37.5 -87s54.833 -36 89.5 -36h833
c35.333 0 65.5 12 90.5 36s37.5 53 37.5 87v878z" />
    <glyph glyph-name="uni25C0.whitesquare" unicode="&#x25c0;&#x20de;" 
d="M1077 392l-582 335l582 335v-670zM367 1475h979c72.667 0 134.5 -25.167 185.5 -75.5s76.5 -111.166 76.5 -182.499v-990c0 -71.333 -25.5 -132.166 -76.5 -182.499s-112.833 -75.5 -185.5 -75.5h-979c-72 0 -133.5 25.167 -184.5 75.5s-76.5 111.166 -76.5 182.499v990
c0 71.333 25.5 132.166 76.5 182.499s112.5 75.5 184.5 75.5zM1401 1161c0 34.667 -12.333 63.834 -37 87.501s-55 35.5 -91 35.5h-833c-35.333 0 -65.333 -11.833 -90 -35.5s-37 -52.834 -37 -87.501v-878c0 -34 12.5 -63 37.5 -87s54.833 -36 89.5 -36h833
c35.333 0 65.5 12 90.5 36s37.5 53 37.5 87v878z" />
    <glyph glyph-name="uni25B6.whitesquare" unicode="&#x25b6;&#x20de;" 
d="M637 392v670l581 -335zM367 1475h979c72.667 0 134.5 -25.167 185.5 -75.5s76.5 -111.166 76.5 -182.499v-990c0 -71.333 -25.5 -132.166 -76.5 -182.499s-112.833 -75.5 -185.5 -75.5h-979c-72 0 -133.5 25.167 -184.5 75.5s-76.5 111.166 -76.5 182.499v990
c0 71.333 25.5 132.166 76.5 182.499s112.5 75.5 184.5 75.5zM1401 1161c0 34.667 -12.333 63.834 -37 87.501s-55 35.5 -91 35.5h-833c-35.333 0 -65.333 -11.833 -90 -35.5s-37 -52.834 -37 -87.501v-878c0 -34 12.5 -63 37.5 -87s54.833 -36 89.5 -36h833
c35.333 0 65.5 12 90.5 36s37.5 53 37.5 87v878z" />
    <glyph glyph-name="question.whitesquare" unicode="&#x3f;&#x20de;" 
d="M723 464c0 30.667 11.167 54.5 33.5 71.5s53.833 25.5 94.5 25.5c39.333 0 70.5 -8.66699 93.5 -26s34.5 -41 34.5 -71c0 -30.667 -11.167 -54.334 -33.5 -71.001s-53.833 -25 -94.5 -25s-72.167 8.33301 -94.5 25s-33.5 40.334 -33.5 71.001zM598 858
c-0.666992 73.333 23.5 128.669 72.5 166.002s117.833 56 206.5 56c77.333 0 139.833 -18.5 187.5 -55.5s71.5 -87.167 71.5 -150.5c0 -37.333 -8.16699 -68.833 -24.5 -94.5s-41.5 -49.167 -75.5 -70.5c-42 -26.667 -68.333 -45.334 -79 -56.001s-16 -24.667 -16 -42v-7
h-198c-2 8 -3 18.333 -3 31c-0.666992 60.667 27 108.667 83 144c30.667 19.333 52 35.166 64 47.499s18 25.166 18 38.499c0 14.667 -4.66699 26.167 -14 34.5s-21.333 12.5 -36 12.5c-14 0 -25.833 -5.16699 -35.5 -15.5s-15.167 -23.166 -16.5 -38.499h-205zM367 1475
h979c72.667 0 134.5 -25.167 185.5 -75.5s76.5 -111.166 76.5 -182.499v-990c0 -71.333 -25.5 -132.166 -76.5 -182.499s-112.833 -75.5 -185.5 -75.5h-979c-72 0 -133.5 25.167 -184.5 75.5s-76.5 111.166 -76.5 182.499v990c0 71.333 25.5 132.166 76.5 182.499
s112.5 75.5 184.5 75.5zM1401 1161c0 34.667 -12.333 63.834 -37 87.501s-55 35.5 -91 35.5h-833c-35.333 0 -65.333 -11.833 -90 -35.5s-37 -52.834 -37 -87.501v-878c0 -34 12.5 -63 37.5 -87s54.833 -36 89.5 -36h833c35.333 0 65.5 12 90.5 36s37.5 53 37.5 87v878z" />
    <glyph glyph-name="exclam.whitesquare" unicode="&#x21;&#x20de;" 
d="M734 464c0 30.667 11.333 54.5 34 71.5s54.334 25.5 95.001 25.5c40 0 71.167 -8.66699 93.5 -26s33.5 -41 33.5 -71c0 -30.667 -11.167 -54.334 -33.5 -71.001s-53.5 -25 -93.5 -25c-40.667 0 -72.334 8.33301 -95.001 25s-34 40.334 -34 71.001zM737 1072h251l-27 -458
h-198zM367 1475h979c72.667 0 134.5 -25.167 185.5 -75.5s76.5 -111.166 76.5 -182.499v-990c0 -71.333 -25.5 -132.166 -76.5 -182.499s-112.833 -75.5 -185.5 -75.5h-979c-72 0 -133.5 25.167 -184.5 75.5s-76.5 111.166 -76.5 182.499v990
c0 71.333 25.5 132.166 76.5 182.499s112.5 75.5 184.5 75.5zM1401 1161c0 34.667 -12.333 63.834 -37 87.501s-55 35.5 -91 35.5h-833c-35.333 0 -65.333 -11.833 -90 -35.5s-37 -52.834 -37 -87.501v-878c0 -34 12.5 -63 37.5 -87s54.833 -36 89.5 -36h833
c35.333 0 65.5 12 90.5 36s37.5 53 37.5 87v878z" />
    <glyph glyph-name="uni2717.whitesquare" unicode="&#x2717;&#x20de;" 
d="M860 862l209 207l138 -138l-207 -208l207 -208l-138 -139l-209 207l-209 -208l-138 138l209 210l-208 208l138 139zM367 1475h979c72.667 0 134.5 -25.167 185.5 -75.5s76.5 -111.166 76.5 -182.499v-990c0 -71.333 -25.5 -132.166 -76.5 -182.499
s-112.833 -75.5 -185.5 -75.5h-979c-72 0 -133.5 25.167 -184.5 75.5s-76.5 111.166 -76.5 182.499v990c0 71.333 25.5 132.166 76.5 182.499s112.5 75.5 184.5 75.5zM1401 1161c0 34.667 -12.333 63.834 -37 87.501s-55 35.5 -91 35.5h-833
c-35.333 0 -65.333 -11.833 -90 -35.5s-37 -52.834 -37 -87.501v-878c0 -34 12.5 -63 37.5 -87s54.833 -36 89.5 -36h833c35.333 0 65.5 12 90.5 36s37.5 53 37.5 87v878z" />
    <glyph glyph-name="uni2713.whitesquare" unicode="&#x2713;&#x20de;" 
d="M1287 890l-541 -528l-323 318l144 141l183 -182l397 397zM367 1475h979c72.667 0 134.5 -25.167 185.5 -75.5s76.5 -111.166 76.5 -182.499v-990c0 -71.333 -25.5 -132.166 -76.5 -182.499s-112.833 -75.5 -185.5 -75.5h-979c-72 0 -133.5 25.167 -184.5 75.5
s-76.5 111.166 -76.5 182.499v990c0 71.333 25.5 132.166 76.5 182.499s112.5 75.5 184.5 75.5zM1401 1161c0 34.667 -12.333 63.834 -37 87.501s-55 35.5 -91 35.5h-833c-35.333 0 -65.333 -11.833 -90 -35.5s-37 -52.834 -37 -87.501v-878c0 -34 12.5 -63 37.5 -87
s54.833 -36 89.5 -36h833c35.333 0 65.5 12 90.5 36s37.5 53 37.5 87v878z" />
    <glyph glyph-name="plus.uc.blackcircle" unicode="&#x2b;&#x20dd;&#x25cf;" 
d="M969 615h217v215h-217v221h-225v-221h-217v-215h217v-222h225v222zM857 -55c-104.667 0 -205 20.667 -301 62s-178.667 96.666 -248 165.999s-124.666 152 -165.999 248s-62 196.333 -62 301s20.667 205 62 301s96.666 178.667 165.999 248s152 124.5 248 165.5
s196.333 61.5 301 61.5c70 0 138.5 -9.33301 205.5 -28s128.833 -44.667 185.5 -78s109 -74 157 -122s88.667 -100.333 122 -157s59.333 -118.5 78 -185.5s28 -135.5 28 -205.5c0 -104.667 -20.5 -205 -61.5 -301s-96.167 -178.667 -165.5 -248s-152 -124.666 -248 -165.999
s-196.333 -62 -301 -62z" />
    <glyph glyph-name="minus.uc.blackcircle" unicode="&#x2212;&#x20dd;&#x25cf;" 
d="M1148 610v223h-583v-223h583zM857 -55c-104.667 0 -205 20.667 -301 62s-178.667 96.666 -248 165.999s-124.666 152 -165.999 248s-62 196.333 -62 301s20.667 205 62 301s96.666 178.667 165.999 248s152 124.5 248 165.5s196.333 61.5 301 61.5
c70 0 138.5 -9.33301 205.5 -28s128.833 -44.667 185.5 -78s109 -74 157 -122s88.667 -100.333 122 -157s59.333 -118.5 78 -185.5s28 -135.5 28 -205.5c0 -104.667 -20.5 -205 -61.5 -301s-96.167 -178.667 -165.5 -248s-152 -124.666 -248 -165.999s-196.333 -62 -301 -62
z" />
    <glyph glyph-name="multiply.uc.blackcircle" unicode="&#xd7;&#x20dd;&#x25cf;" 
d="M856 881l-170 168l-159 -158l170 -168l-170 -168l159 -158l170 168l170 -168l159 158l-170 168l170 168l-159 158zM857 -55c-104.667 0 -205 20.667 -301 62s-178.667 96.666 -248 165.999s-124.666 152 -165.999 248s-62 196.333 -62 301s20.667 205 62 301
s96.666 178.667 165.999 248s152 124.5 248 165.5s196.333 61.5 301 61.5c70 0 138.5 -9.33301 205.5 -28s128.833 -44.667 185.5 -78s109 -74 157 -122s88.667 -100.333 122 -157s59.333 -118.5 78 -185.5s28 -135.5 28 -205.5c0 -104.667 -20.5 -205 -61.5 -301
s-96.167 -178.667 -165.5 -248s-152 -124.666 -248 -165.999s-196.333 -62 -301 -62z" />
    <glyph glyph-name="divide.uc.blackcircle" unicode="&#xf7;&#x20dd;&#x25cf;" 
d="M740 971c0 -29.333 11.167 -53.5 33.5 -72.5s50.166 -28.5 83.499 -28.5s61 9.5 83 28.5s33 43.167 33 72.5c0 30 -11 54.667 -33 74s-49.667 29 -83 29s-61.166 -9.66699 -83.499 -29s-33.5 -44 -33.5 -74zM1148 637v170h-583v-170h583zM740 474
c0 -29.333 11.167 -53.666 33.5 -72.999s50.166 -29 83.499 -29s61 9.66699 83 29s33 43.666 33 72.999c0 30 -11 54.667 -33 74s-49.667 29 -83 29s-61.166 -9.66699 -83.499 -29s-33.5 -44 -33.5 -74zM857 -55c-104.667 0 -205 20.667 -301 62
s-178.667 96.666 -248 165.999s-124.666 152 -165.999 248s-62 196.333 -62 301s20.667 205 62 301s96.666 178.667 165.999 248s152 124.5 248 165.5s196.333 61.5 301 61.5c70 0 138.5 -9.33301 205.5 -28s128.833 -44.667 185.5 -78s109 -74 157 -122
s88.667 -100.333 122 -157s59.333 -118.5 78 -185.5s28 -135.5 28 -205.5c0 -104.667 -20.5 -205 -61.5 -301s-96.167 -178.667 -165.5 -248s-152 -124.666 -248 -165.999s-196.333 -62 -301 -62z" />
    <glyph glyph-name="equal.uc.blackcircle" unicode="&#x3d;&#x20dd;&#x25cf;" 
d="M1168 778v191h-623v-191h623zM1168 473v190h-623v-190h623zM857 -55c-104.667 0 -205 20.667 -301 62s-178.667 96.666 -248 165.999s-124.666 152 -165.999 248s-62 196.333 -62 301s20.667 205 62 301s96.666 178.667 165.999 248s152 124.5 248 165.5
s196.333 61.5 301 61.5c70 0 138.5 -9.33301 205.5 -28s128.833 -44.667 185.5 -78s109 -74 157 -122s88.667 -100.333 122 -157s59.333 -118.5 78 -185.5s28 -135.5 28 -205.5c0 -104.667 -20.5 -205 -61.5 -301s-96.167 -178.667 -165.5 -248s-152 -124.666 -248 -165.999
s-196.333 -62 -301 -62z" />
    <glyph glyph-name="greater.uc.blackcircle" unicode="&#x3e;&#x20dd;&#x25cf;" 
d="M1173 788l-586 280v-229l275 -114l1 -4l-276 -124v-220l586 276v135zM857 -55c-104.667 0 -205 20.667 -301 62s-178.667 96.666 -248 165.999s-124.666 152 -165.999 248s-62 196.333 -62 301s20.667 205 62 301s96.666 178.667 165.999 248s152 124.5 248 165.5
s196.333 61.5 301 61.5c70 0 138.5 -9.33301 205.5 -28s128.833 -44.667 185.5 -78s109 -74 157 -122s88.667 -100.333 122 -157s59.333 -118.5 78 -185.5s28 -135.5 28 -205.5c0 -104.667 -20.5 -205 -61.5 -301s-96.167 -178.667 -165.5 -248s-152 -124.666 -248 -165.999
s-196.333 -62 -301 -62z" />
    <glyph glyph-name="less.uc.blackcircle" unicode="&#x3c;&#x20dd;&#x25cf;" 
d="M539 653l586 -276v220l-276 124v4l276 114v229l-586 -280v-135zM857 -55c-104.667 0 -205 20.667 -301 62s-178.667 96.666 -248 165.999s-124.666 152 -165.999 248s-62 196.333 -62 301s20.667 205 62 301s96.666 178.667 165.999 248s152 124.5 248 165.5
s196.333 61.5 301 61.5c70 0 138.5 -9.33301 205.5 -28s128.833 -44.667 185.5 -78s109 -74 157 -122s88.667 -100.333 122 -157s59.333 -118.5 78 -185.5s28 -135.5 28 -205.5c0 -104.667 -20.5 -205 -61.5 -301s-96.167 -178.667 -165.5 -248s-152 -124.666 -248 -165.999
s-196.333 -62 -301 -62z" />
    <glyph glyph-name="numbersign.blackcircle" unicode="&#x23;&#x20dd;&#x25cf;" 
d="M803 794h129l-27 -139h-130zM1175 767l32.999 167h-101l32 164h-181l-30 -164h-72l34 164h-180l-32 -164h-100l-32 -167h102l-16 -74h-98l-34 -168h98l-34 -174h178l36 174h69l-34 -174h179l35 174h104l33 168h-102c1.33301 5.33301 3.83301 18 7.5 38
s5.83398 32 6.50098 36h99zM856.999 -55c-104.667 0 -205 20.667 -301 62s-178.667 96.666 -248 165.999s-124.666 152 -165.999 248s-62 196.333 -62 301s20.667 205 62 301s96.666 178.667 165.999 248s152 124.5 248 165.5s196.333 61.5 301 61.5
c70 0 138.5 -9.33301 205.5 -28s128.833 -44.667 185.5 -78s109 -74 157 -122s88.667 -100.333 122 -157s59.333 -118.5 78 -185.5s28 -135.5 28 -205.5c0 -104.667 -20.5 -205 -61.5 -301s-96.167 -178.667 -165.5 -248s-152 -124.666 -248 -165.999s-196.333 -62 -301 -62
z" />
    <glyph glyph-name="uni25BC.blackcircle" unicode="&#x25bc;&#x20dd;&#x25cf;" 
d="M1208 982h-702l351 -608zM857 -55c-104.667 0 -205 20.667 -301 62s-178.667 96.666 -248 165.999s-124.666 152 -165.999 248s-62 196.333 -62 301s20.667 205 62 301s96.666 178.667 165.999 248s152 124.5 248 165.5s196.333 61.5 301 61.5
c70 0 138.5 -9.33301 205.5 -28s128.833 -44.667 185.5 -78s109 -74 157 -122s88.667 -100.333 122 -157s59.333 -118.5 78 -185.5s28 -135.5 28 -205.5c0 -104.667 -20.5 -205 -61.5 -301s-96.167 -178.667 -165.5 -248s-152 -124.666 -248 -165.999s-196.333 -62 -301 -62
z" />
    <glyph glyph-name="uni25B2.blackcircle" unicode="&#x25b2;&#x20dd;&#x25cf;" 
d="M1208 485l-351 608l-351 -608h702zM857 -55c-104.667 0 -205 20.667 -301 62s-178.667 96.666 -248 165.999s-124.666 152 -165.999 248s-62 196.333 -62 301s20.667 205 62 301s96.666 178.667 165.999 248s152 124.5 248 165.5s196.333 61.5 301 61.5
c70 0 138.5 -9.33301 205.5 -28s128.833 -44.667 185.5 -78s109 -74 157 -122s88.667 -100.333 122 -157s59.333 -118.5 78 -185.5s28 -135.5 28 -205.5c0 -104.667 -20.5 -205 -61.5 -301s-96.167 -178.667 -165.5 -248s-152 -124.666 -248 -165.999s-196.333 -62 -301 -62
z" />
    <glyph glyph-name="uni25C0.blackcircle" unicode="&#x25c0;&#x20dd;&#x25cf;" 
d="M1090 384v699l-608 -349zM857 -55c-104.667 0 -205 20.667 -301 62s-178.667 96.666 -248 165.999s-124.666 152 -165.999 248s-62 196.333 -62 301s20.667 205 62 301s96.666 178.667 165.999 248s152 124.5 248 165.5s196.333 61.5 301 61.5
c70 0 138.5 -9.33301 205.5 -28s128.833 -44.667 185.5 -78s109 -74 157 -122s88.667 -100.333 122 -157s59.333 -118.5 78 -185.5s28 -135.5 28 -205.5c0 -104.667 -20.5 -205 -61.5 -301s-96.167 -178.667 -165.5 -248s-152 -124.666 -248 -165.999s-196.333 -62 -301 -62
z" />
    <glyph glyph-name="uni25B6.blackcircle" unicode="&#x25b6;&#x20dd;&#x25cf;" 
d="M624 384l608 350l-608 349v-699zM857 -55c-104.667 0 -205 20.667 -301 62s-178.667 96.666 -248 165.999s-124.666 152 -165.999 248s-62 196.333 -62 301s20.667 205 62 301s96.666 178.667 165.999 248s152 124.5 248 165.5s196.333 61.5 301 61.5
c70 0 138.5 -9.33301 205.5 -28s128.833 -44.667 185.5 -78s109 -74 157 -122s88.667 -100.333 122 -157s59.333 -118.5 78 -185.5s28 -135.5 28 -205.5c0 -104.667 -20.5 -205 -61.5 -301s-96.167 -178.667 -165.5 -248s-152 -124.666 -248 -165.999s-196.333 -62 -301 -62
z" />
    <glyph glyph-name="question.blackcircle" unicode="&#x3f;&#x20dd;&#x25cf;" 
d="M707 429c0 -34.667 12 -61.333 36 -80s58.667 -28 104 -28c44 0 78.167 9.5 102.5 28.5s36.5 45.5 36.5 79.5c0 33.333 -12.333 59.5 -37 78.5s-58.667 28.5 -102 28.5c-45.333 0 -80 -9.16699 -104 -27.5s-36 -44.833 -36 -79.5zM728 592.001l218 0.00195312v8
c0 19.333 4.83301 34.333 14.5 45s32.5 26.667 68.5 48c49.333 31.333 82.5 59.166 99.5 83.499s25.5 59.833 25.5 106.5c0 68 -26 122.667 -78 164s-119.333 62 -202 62c-96 0 -170.333 -20.667 -223 -62s-79 -102.333 -79 -183v-1l231 5c0 20 4.5 35.833 13.5 47.5
s21.833 17.5 38.5 17.5c35.333 0 53 -18.333 53 -55c0 -16.667 -6.83301 -31 -20.5 -43s-32.167 -25.5 -55.5 -40.5s-41.333 -29.833 -54 -44.5c-36.667 -34.667 -54.667 -75.334 -54 -122.001c0 -16 1.33301 -28 4 -36zM857 -54.9971c-104.667 0 -205 20.667 -301 62
s-178.667 96.666 -248 165.999s-124.666 152 -165.999 248s-62 196.333 -62 301s20.667 205 62 301s96.666 178.667 165.999 248s152 124.5 248 165.5s196.333 61.5 301 61.5c70 0 138.5 -9.33301 205.5 -28s128.833 -44.667 185.5 -78s109 -74 157 -122
s88.667 -100.333 122 -157s59.333 -118.5 78 -185.5s28 -135.5 28 -205.5c0 -104.667 -20.5 -205 -61.5 -301s-96.167 -178.667 -165.5 -248s-152 -124.666 -248 -165.999s-196.333 -62 -301 -62z" />
    <glyph glyph-name="exclam.blackcircle" unicode="&#x21;&#x20dd;&#x25cf;" 
d="M722 1100l28 -498h218l30 498h-276zM720 429c0 -34 12.333 -60.333 37 -79s59.334 -28 104.001 -28s79 9.33301 103 28s36 45 36 79c0 33.333 -12.167 59.5 -36.5 78.5s-58.5 28.5 -102.5 28.5c-44.667 0 -79.334 -9.33301 -104.001 -28s-37 -45 -37 -79zM857 -55
c-104.667 0 -205 20.667 -301 62s-178.667 96.666 -248 165.999s-124.666 152 -165.999 248s-62 196.333 -62 301s20.667 205 62 301s96.666 178.667 165.999 248s152 124.5 248 165.5s196.333 61.5 301 61.5c70 0 138.5 -9.33301 205.5 -28s128.833 -44.667 185.5 -78
s109 -74 157 -122s88.667 -100.333 122 -157s59.333 -118.5 78 -185.5s28 -135.5 28 -205.5c0 -104.667 -20.5 -205 -61.5 -301s-96.167 -178.667 -165.5 -248s-152 -124.666 -248 -165.999s-196.333 -62 -301 -62z" />
    <glyph glyph-name="uni2717.blackcircle" unicode="&#x2717;&#x20dd;&#x25cf;" 
d="M856 870l-222 223l-150 -150l223 -223l-224 -225l150 -150l223 224l223 -222l151 151l-223 222l223 223l-151 150zM857 -55c-104.667 0 -205 20.667 -301 62s-178.667 96.666 -248 165.999s-124.666 152 -165.999 248s-62 196.333 -62 301s20.667 205 62 301
s96.666 178.667 165.999 248s152 124.5 248 165.5s196.333 61.5 301 61.5c70 0 138.5 -9.33301 205.5 -28s128.833 -44.667 185.5 -78s109 -74 157 -122s88.667 -100.333 122 -157s59.333 -118.5 78 -185.5s28 -135.5 28 -205.5c0 -104.667 -20.5 -205 -61.5 -301
s-96.167 -178.667 -165.5 -248s-152 -124.666 -248 -165.999s-196.333 -62 -301 -62z" />
    <glyph glyph-name="uni2713.blackcircle" unicode="&#x2713;&#x20dd;&#x25cf;" horiz-adv-x="1772" 
d="M733 351l589 575l-155 161l-430 -431l-199 198l-158 -156zM857 -55c-104.667 0 -205 20.667 -301 62s-178.667 96.666 -248 165.999s-124.666 152 -165.999 248s-62 196.333 -62 301s20.667 205 62 301s96.666 178.667 165.999 248s152 124.5 248 165.5
s196.333 61.5 301 61.5c70 0 138.5 -9.33301 205.5 -28s128.833 -44.667 185.5 -78s109 -74 157 -122s88.667 -100.333 122 -157s59.333 -118.5 78 -185.5s28 -135.5 28 -205.5c0 -104.667 -20.5 -205 -61.5 -301s-96.167 -178.667 -165.5 -248s-152 -124.666 -248 -165.999
s-196.333 -62 -301 -62z" />
    <glyph glyph-name="zero.blacksquare" unicode="&#x30;&#x20de;&#x25a0;" 
d="M856 524c-54.667 0 -82 66.667 -82 200c0 132.667 27.333 199 82 199s82 -66.333 82 -199c0 -133.333 -27.333 -200 -82 -200zM853 338c100.667 0 181.167 34.333 241.5 103s90.5 163 90.5 283c0 119.333 -30.167 213.333 -90.5 282s-140.833 103 -241.5 103
s-180.167 -34.167 -238.5 -102.5s-87.5 -162.5 -87.5 -282.5c0 -120.667 29.167 -215.167 87.5 -283.5s137.833 -102.5 238.5 -102.5zM367 1475h979c72.667 0 134.5 -25.167 185.5 -75.5s76.5 -111.166 76.5 -182.499v-990c0 -71.333 -25.5 -132.166 -76.5 -182.499
s-112.833 -75.5 -185.5 -75.5h-979c-72 0 -133.5 25.167 -184.5 75.5s-76.5 111.166 -76.5 182.499v990c0 71.333 25.5 132.166 76.5 182.499s112.5 75.5 184.5 75.5z" />
    <glyph glyph-name="one.blacksquare" unicode="&#x31;&#x20de;&#x25a0;" 
d="M1027 351v746h-260l-178 -116v-224l169 113h7v-519h262zM367 1475h979c72.667 0 134.5 -25.167 185.5 -75.5s76.5 -111.166 76.5 -182.499v-990c0 -71.333 -25.5 -132.166 -76.5 -182.499s-112.833 -75.5 -185.5 -75.5h-979c-72 0 -133.5 25.167 -184.5 75.5
s-76.5 111.166 -76.5 182.499v990c0 71.333 25.5 132.166 76.5 182.499s112.5 75.5 184.5 75.5z" />
    <glyph glyph-name="two.blacksquare" unicode="&#x32;&#x20de;&#x25a0;" 
d="M774 834l-0.000976562 2.99902c0 26.667 6.16699 47.667 18.5 63s29.5 23 51.5 23c19.333 0 34.833 -5.16699 46.5 -15.5s17.5 -24.166 17.5 -41.499c0 -20.667 -7.16699 -40.834 -21.5 -60.501s-40.5 -46.5 -78.5 -80.5l-247 -216v-160h602v203h-268v4l105 94
c52 44 89.5 83.833 112.5 119.5s34.5 74.5 34.5 116.5c0 62.667 -27.167 115.334 -81.5 158.001s-122.166 64 -203.499 64c-97.333 0 -174.5 -25 -231.5 -75s-85.5 -115.333 -85.5 -196v-3h229zM366.999 1475h979c72.667 0 134.5 -25.167 185.5 -75.5
s76.5 -111.166 76.5 -182.499v-990c0 -71.333 -25.5 -132.166 -76.5 -182.499s-112.833 -75.5 -185.5 -75.5h-979c-72 0 -133.5 25.167 -184.5 75.5s-76.5 111.166 -76.5 182.499v990c0 71.333 25.5 132.166 76.5 182.499s112.5 75.5 184.5 75.5z" />
    <glyph glyph-name="three.blacksquare" unicode="&#x33;&#x20de;&#x25a0;" 
d="M773 644h76.002c26 0 46.667 -5.5 62 -16.5s23 -25.833 23 -44.5s-7.5 -33.5 -22.5 -44.5s-35.5 -16.5 -61.5 -16.5c-26.667 0 -48.167 6.5 -64.5 19.5s-24.833 30.5 -25.5 52.5h-233c0.666992 -74.667 30.667 -135.834 90 -183.501s137 -71.5 233 -71.5
c98.667 0 178 20.5 238 61.5s90 96.167 90 165.5c-0.666992 46.667 -16.334 86.334 -47.001 119.001s-67.334 51 -110.001 55v8c36.667 5.33301 68.834 22.833 96.501 52.5s41.5 64.167 41.5 103.5c-0.666992 61.333 -29.167 110.833 -85.5 148.5s-130.5 56.5 -222.5 56.5
c-102 -0.666992 -180 -22.667 -234 -66s-83 -106 -87 -188h235c0 22.667 7.16699 40.667 21.5 54s34.5 20 60.5 20c20.667 0 37.667 -5.5 51 -16.5s20.333 -24.5 21 -40.5c0 -18 -6.83301 -32.333 -20.5 -43s-31.834 -16 -54.501 -16h-71v-169zM367.002 1475h979
c72.667 0 134.5 -25.167 185.5 -75.5s76.5 -111.166 76.5 -182.499v-990c0 -71.333 -25.5 -132.166 -76.5 -182.499s-112.833 -75.5 -185.5 -75.5h-979c-72 0 -133.5 25.167 -184.5 75.5s-76.5 111.166 -76.5 182.499v990c0 71.333 25.5 132.166 76.5 182.499
s112.5 75.5 184.5 75.5z" />
    <glyph glyph-name="four.blacksquare" unicode="&#x34;&#x20de;&#x25a0;" 
d="M745 1097c-99.333 -174 -178 -322.333 -236 -445v-191h367v-110h212v110h103v191h-103v445h-343zM729 652v1c41.333 94 88 188 140 282h7v-283h-147zM367 1475h979c72.667 0 134.5 -25.167 185.5 -75.5s76.5 -111.166 76.5 -182.499v-990
c0 -71.333 -25.5 -132.166 -76.5 -182.499s-112.833 -75.5 -185.5 -75.5h-979c-72 0 -133.5 25.167 -184.5 75.5s-76.5 111.166 -76.5 182.499v990c0 71.333 25.5 132.166 76.5 182.499s112.5 75.5 184.5 75.5z" />
    <glyph glyph-name="five.blacksquare" unicode="&#x35;&#x20de;&#x25a0;" 
d="M549 593c0.666992 -73.333 29.999 -132.834 87.999 -178.501s134 -68.5 228 -68.5c100 0 179.167 24.833 237.5 74.5s87.5 117.834 87.5 204.501c0 73.333 -22.5 131.666 -67.5 174.999s-104.5 65 -178.5 65c-38.667 0 -72.667 -6.66699 -102 -20
s-49.666 -30.666 -60.999 -51.999h-8c0.666992 5.33301 2.33398 28.5 5.00098 69.5s4 64.167 4 69.5h355v174h-547l-27 -452h220c6.66699 14.667 17.5 26.834 32.5 36.501s31.833 14.5 50.5 14.5c26 0 47.167 -8.16699 63.5 -24.5s24.5 -37.833 24.5 -64.5
s-8.5 -48.334 -25.5 -65.001s-37.833 -25 -62.5 -25c-22.667 0 -42.334 6.16699 -59.001 18.5s-26.667 28.5 -30 48.5h-228zM366.999 1475h979c72.667 0 134.5 -25.167 185.5 -75.5s76.5 -111.166 76.5 -182.499v-990c0 -71.333 -25.5 -132.166 -76.5 -182.499
s-112.833 -75.5 -185.5 -75.5h-979c-72 0 -133.5 25.167 -184.5 75.5s-76.5 111.166 -76.5 182.499v990c0 71.333 25.5 132.166 76.5 182.499s112.5 75.5 184.5 75.5z" />
    <glyph glyph-name="six.blacksquare" unicode="&#x36;&#x20de;&#x25a0;" 
d="M1183 611c0 72 -21.001 127.499 -63.001 166.499s-99 58.5 -171 58.5c-41.333 0 -77.833 -8.16699 -109.5 -24.5s-56.167 -38.5 -73.5 -66.5l-6 -1c-3.33301 14.667 -5 25.667 -5 33c0 46.667 10 84.334 30 113.001s46.333 43 79 43c34.667 0 61 -14.667 79 -44h224
c-7.33301 62.667 -39 115.167 -95 157.5s-125 63.5 -207 63.5c-106 0 -190 -33.833 -252 -101.5s-93 -161.167 -93 -280.5c0 -98 20 -180.333 60 -247c62.667 -95.333 157.334 -143 284.001 -143c94.667 0 171.5 25 230.5 75s88.5 116 88.5 198zM771.999 605.999
c0 26.667 8.16699 48.166 24.5 64.499s37.833 24.5 64.5 24.5c26 0 47.667 -8.16699 65 -24.5s26 -38.166 26 -65.499c0 -28 -8.33301 -50 -25 -66s-38.667 -24 -66 -24c-26.667 0 -48.167 8.16699 -64.5 24.5s-24.5 38.5 -24.5 66.5zM366.999 1475h979
c72.667 0 134.5 -25.167 185.5 -75.5s76.5 -111.166 76.5 -182.499v-990c0 -71.333 -25.5 -132.166 -76.5 -182.499s-112.833 -75.5 -185.5 -75.5h-979c-72 0 -133.5 25.167 -184.5 75.5s-76.5 111.166 -76.5 182.499v990c0 71.333 25.5 132.166 76.5 182.499
s112.5 75.5 184.5 75.5z" />
    <glyph glyph-name="seven.blacksquare" unicode="&#x37;&#x20de;&#x25a0;" 
d="M548 1097v-202h352v-3l-297 -541h279l281 545v201h-615zM367 1475h979c72.667 0 134.5 -25.167 185.5 -75.5s76.5 -111.166 76.5 -182.499v-990c0 -71.333 -25.5 -132.166 -76.5 -182.499s-112.833 -75.5 -185.5 -75.5h-979c-72 0 -133.5 25.167 -184.5 75.5
s-76.5 111.166 -76.5 182.499v990c0 71.333 25.5 132.166 76.5 182.499s112.5 75.5 184.5 75.5z" />
    <glyph glyph-name="eight.blacksquare" unicode="&#x38;&#x20de;&#x25a0;" 
d="M856 800c-23.333 0 -42.333 7 -57 21s-22 32.333 -22 55c0 23.333 7.33301 42.166 22 56.499s33.667 21.5 57 21.5s42.333 -7.16699 57 -21.5s22 -33.166 22 -56.499c0 -22.667 -7.33301 -41 -22 -55s-33.667 -21 -57 -21zM856 495c-28 0 -50.5 8.16699 -67.5 24.5
s-25.5 37.833 -25.5 64.5c0 26 8.5 47.333 25.5 64s39.5 25 67.5 25c27.333 0 49.833 -8.33301 67.5 -25s26.5 -38 26.5 -64c0 -26.667 -8.83301 -48.167 -26.5 -64.5s-40.167 -24.5 -67.5 -24.5zM856 338c107.333 0 192.001 20.167 254.001 60.5s93 95.833 93 166.5
c0 47.333 -15.167 86.833 -45.5 118.5s-71.833 51.167 -124.5 58.5v4c92 26.667 138 79.334 138 158.001c0 62.667 -28.333 112.5 -85 149.5s-133.334 55.5 -230.001 55.5s-173.167 -18.333 -229.5 -55s-84.5 -86.667 -84.5 -150c0 -40.667 11 -73.834 33 -99.501
s57 -45.167 105 -58.5v-4c-52.667 -7.33301 -94.167 -26.833 -124.5 -58.5s-45.5 -71.167 -45.5 -118.5c0 -70.667 31 -126.167 93 -166.5s146.333 -60.5 253 -60.5zM367.001 1475h979c72.667 0 134.5 -25.167 185.5 -75.5s76.5 -111.166 76.5 -182.499v-990
c0 -71.333 -25.5 -132.166 -76.5 -182.499s-112.833 -75.5 -185.5 -75.5h-979c-72 0 -133.5 25.167 -184.5 75.5s-76.5 111.166 -76.5 182.499v990c0 71.333 25.5 132.166 76.5 182.499s112.5 75.5 184.5 75.5z" />
    <glyph glyph-name="nine.blacksquare" unicode="&#x39;&#x20de;&#x25a0;" 
d="M522 838c0 -72.667 21.168 -128.833 63.501 -168.5s100.166 -59.5 173.499 -59.5c40.667 0 77 8.5 109 25.5s55.667 38.833 71 65.5h6c6.66699 -52 0.5 -96 -18.5 -132s-47.167 -54 -84.5 -54c-35.333 0 -61.333 14 -78 42h-225
c7.33301 -63.333 38.833 -115.666 94.5 -156.999s124.5 -62 206.5 -62c108 0 192.667 33.5 254 100.5s92 159.833 92 278.5c0 125.333 -31.333 222.166 -94 290.499s-146 102.5 -250 102.5c-94.667 0 -171.667 -25 -231 -75s-89 -115.667 -89 -197zM933.001 841.001
c0 -27.333 -8.16699 -48.999 -24.5 -64.999s-37.833 -24 -64.5 -24c-26 0 -47.667 8.16699 -65 24.5s-26 38.166 -26 65.499s8.5 49.333 25.5 66s38.833 25 65.5 25s48.167 -8.33301 64.5 -25s24.5 -39 24.5 -67zM367.001 1475h979c72.667 0 134.5 -25.167 185.5 -75.5
s76.5 -111.166 76.5 -182.499v-990c0 -71.333 -25.5 -132.166 -76.5 -182.499s-112.833 -75.5 -185.5 -75.5h-979c-72 0 -133.5 25.167 -184.5 75.5s-76.5 111.166 -76.5 182.499v990c0 71.333 25.5 132.166 76.5 182.499s112.5 75.5 184.5 75.5z" />
    <glyph glyph-name="plus.uc.blacksquare" unicode="&#x2b;&#x20de;&#x25a0;" 
d="M969 615h217v215h-217v221h-225v-221h-217v-215h217v-222h225v222zM367 1475h979c72.667 0 134.5 -25.167 185.5 -75.5s76.5 -111.166 76.5 -182.499v-990c0 -71.333 -25.5 -132.166 -76.5 -182.499s-112.833 -75.5 -185.5 -75.5h-979c-72 0 -133.5 25.167 -184.5 75.5
s-76.5 111.166 -76.5 182.499v990c0 71.333 25.5 132.166 76.5 182.499s112.5 75.5 184.5 75.5z" />
    <glyph glyph-name="minus.uc.blacksquare" unicode="&#x2212;&#x20de;&#x25a0;" 
d="M1148 610v223h-583v-223h583zM367 1475h979c72.667 0 134.5 -25.167 185.5 -75.5s76.5 -111.166 76.5 -182.499v-990c0 -71.333 -25.5 -132.166 -76.5 -182.499s-112.833 -75.5 -185.5 -75.5h-979c-72 0 -133.5 25.167 -184.5 75.5s-76.5 111.166 -76.5 182.499v990
c0 71.333 25.5 132.166 76.5 182.499s112.5 75.5 184.5 75.5z" />
    <glyph glyph-name="multiply.uc.blacksquare" unicode="&#xd7;&#x20de;&#x25a0;" 
d="M856 881l-170 168l-159 -158l170 -168l-170 -168l159 -158l170 168l170 -168l159 158l-170 168l170 168l-159 158zM367 1475h979c72.667 0 134.5 -25.167 185.5 -75.5s76.5 -111.166 76.5 -182.499v-990c0 -71.333 -25.5 -132.166 -76.5 -182.499
s-112.833 -75.5 -185.5 -75.5h-979c-72 0 -133.5 25.167 -184.5 75.5s-76.5 111.166 -76.5 182.499v990c0 71.333 25.5 132.166 76.5 182.499s112.5 75.5 184.5 75.5z" />
    <glyph glyph-name="divide.uc.blacksquare" unicode="&#xf7;&#x20de;&#x25a0;" 
d="M740 971c0 -29.333 11.167 -53.5 33.5 -72.5s50.166 -28.5 83.499 -28.5s61 9.5 83 28.5s33 43.167 33 72.5c0 30 -11 54.667 -33 74s-49.667 29 -83 29s-61.166 -9.66699 -83.499 -29s-33.5 -44 -33.5 -74zM1148 637v170h-583v-170h583zM740 474
c0 -29.333 11.167 -53.666 33.5 -72.999s50.166 -29 83.499 -29s61 9.66699 83 29s33 43.666 33 72.999c0 30 -11 54.667 -33 74s-49.667 29 -83 29s-61.166 -9.66699 -83.499 -29s-33.5 -44 -33.5 -74zM367 1475h979c72.667 0 134.5 -25.167 185.5 -75.5
s76.5 -111.166 76.5 -182.499v-990c0 -71.333 -25.5 -132.166 -76.5 -182.499s-112.833 -75.5 -185.5 -75.5h-979c-72 0 -133.5 25.167 -184.5 75.5s-76.5 111.166 -76.5 182.499v990c0 71.333 25.5 132.166 76.5 182.499s112.5 75.5 184.5 75.5z" />
    <glyph glyph-name="equal.uc.blacksquare" unicode="&#x3d;&#x20de;&#x25a0;" 
d="M1168 778v191h-623v-191h623zM1168 473v190h-623v-190h623zM367 1475h979c72.667 0 134.5 -25.167 185.5 -75.5s76.5 -111.166 76.5 -182.499v-990c0 -71.333 -25.5 -132.166 -76.5 -182.499s-112.833 -75.5 -185.5 -75.5h-979c-72 0 -133.5 25.167 -184.5 75.5
s-76.5 111.166 -76.5 182.499v990c0 71.333 25.5 132.166 76.5 182.499s112.5 75.5 184.5 75.5z" />
    <glyph glyph-name="greater.uc.blacksquare" unicode="&#x3e;&#x20de;&#x25a0;" 
d="M1173 788l-586 280v-229l275 -114l1 -4l-276 -124v-220l586 276v135zM367 1475h979c72.667 0 134.5 -25.167 185.5 -75.5s76.5 -111.166 76.5 -182.499v-990c0 -71.333 -25.5 -132.166 -76.5 -182.499s-112.833 -75.5 -185.5 -75.5h-979c-72 0 -133.5 25.167 -184.5 75.5
s-76.5 111.166 -76.5 182.499v990c0 71.333 25.5 132.166 76.5 182.499s112.5 75.5 184.5 75.5z" />
    <glyph glyph-name="less.uc.blacksquare" unicode="&#x3c;&#x20de;&#x25a0;" 
d="M539 653l585.999 -276.001v220l-138.5 62c-82.333 36.667 -128.166 57.334 -137.499 62.001v4l276 114v229l-586 -280v-135zM366.999 1475h979c72.667 0 134.5 -25.167 185.5 -75.5s76.5 -111.166 76.5 -182.499v-990c0 -71.333 -25.5 -132.166 -76.5 -182.499
s-112.833 -75.5 -185.5 -75.5h-979c-72 0 -133.5 25.167 -184.5 75.5s-76.5 111.166 -76.5 182.499v990c0 71.333 25.5 132.166 76.5 182.499s112.5 75.5 184.5 75.5z" />
    <glyph glyph-name="numbersign.blacksquare" unicode="&#x23;&#x20de;&#x25a0;" 
d="M803 794h129l-27 -139h-130zM1175 767l32.999 167h-101l32 164h-181l-30 -164h-72l34 164h-180l-32 -164h-100l-32 -167h102l-16 -74h-98l-34 -168h98l-34 -174h178l36 174h69l-34 -174h179l35 174h104l33 168h-102c1.33301 5.33301 3.83301 18 7.5 38
s5.83398 32 6.50098 36h99zM366.999 1475h979c72.667 0 134.5 -25.167 185.5 -75.5s76.5 -111.166 76.5 -182.499v-990c0 -71.333 -25.5 -132.166 -76.5 -182.499s-112.833 -75.5 -185.5 -75.5h-979c-72 0 -133.5 25.167 -184.5 75.5s-76.5 111.166 -76.5 182.499v990
c0 71.333 25.5 132.166 76.5 182.499s112.5 75.5 184.5 75.5z" />
    <glyph glyph-name="uni25BC.blacksquare" unicode="&#x25bc;&#x20de;&#x25a0;" 
d="M1208 980h-702l351 -607zM367 1475h979c72.667 0 134.5 -25.167 185.5 -75.5s76.5 -111.166 76.5 -182.499v-990c0 -71.333 -25.5 -132.166 -76.5 -182.499s-112.833 -75.5 -185.5 -75.5h-979c-72 0 -133.5 25.167 -184.5 75.5s-76.5 111.166 -76.5 182.499v990
c0 71.333 25.5 132.166 76.5 182.499s112.5 75.5 184.5 75.5z" />
    <glyph glyph-name="uni25B2.blacksquare" unicode="&#x25b2;&#x20de;&#x25a0;" 
d="M1208 485l-351 608l-351 -608h702zM367 1475h979c72.667 0 134.5 -25.167 185.5 -75.5s76.5 -111.166 76.5 -182.499v-990c0 -71.333 -25.5 -132.166 -76.5 -182.499s-112.833 -75.5 -185.5 -75.5h-979c-72 0 -133.5 25.167 -184.5 75.5s-76.5 111.166 -76.5 182.499v990
c0 71.333 25.5 132.166 76.5 182.499s112.5 75.5 184.5 75.5z" />
    <glyph glyph-name="uni25C0.blacksquare" unicode="&#x25c0;&#x20de;&#x25a0;" 
d="M1090 384v699l-608 -349zM367 1475h979c72.667 0 134.5 -25.167 185.5 -75.5s76.5 -111.166 76.5 -182.499v-990c0 -71.333 -25.5 -132.166 -76.5 -182.499s-112.833 -75.5 -185.5 -75.5h-979c-72 0 -133.5 25.167 -184.5 75.5s-76.5 111.166 -76.5 182.499v990
c0 71.333 25.5 132.166 76.5 182.499s112.5 75.5 184.5 75.5z" />
    <glyph glyph-name="uni25B6.blacksquare" unicode="&#x25b6;&#x20de;&#x25a0;" 
d="M624 384l608 350l-608 349v-699zM367 1475h979c72.667 0 134.5 -25.167 185.5 -75.5s76.5 -111.166 76.5 -182.499v-990c0 -71.333 -25.5 -132.166 -76.5 -182.499s-112.833 -75.5 -185.5 -75.5h-979c-72 0 -133.5 25.167 -184.5 75.5s-76.5 111.166 -76.5 182.499v990
c0 71.333 25.5 132.166 76.5 182.499s112.5 75.5 184.5 75.5z" />
    <glyph glyph-name="question.blacksquare" unicode="&#x3f;&#x20de;&#x25a0;" 
d="M707 429c0 -34.667 12 -61.333 36 -80s58.667 -28 104 -28c44 0 78.167 9.5 102.5 28.5s36.5 45.5 36.5 79.5c0 33.333 -12.333 59.5 -37 78.5s-58.667 28.5 -102 28.5c-45.333 0 -80 -9.16699 -104 -27.5s-36 -44.833 -36 -79.5zM874 1109
c-96 0 -170.333 -20.665 -223 -61.998s-79 -102.333 -79 -183v-1l231 5c0 20 4.5 35.833 13.5 47.5s21.833 17.5 38.5 17.5c35.333 0 53 -18.333 53 -55c0 -16.667 -6.83301 -31 -20.5 -43s-32.167 -25.5 -55.5 -40.5s-41.333 -29.833 -54 -44.5
c-36.667 -34.667 -54.667 -75.334 -54 -122.001c0 -16 1.33301 -28 4 -36h218v8c0 19.333 4.83301 34.333 14.5 45s32.5 26.667 68.5 48c49.333 31.333 82.5 59.166 99.5 83.499s25.5 59.833 25.5 106.5c0 68 -26 122.667 -78 164s-119.333 62 -202 62zM367 1475h979
c72.667 0 134.5 -25.167 185.5 -75.5s76.5 -111.166 76.5 -182.499v-990c0 -71.333 -25.5 -132.166 -76.5 -182.499s-112.833 -75.5 -185.5 -75.5h-979c-72 0 -133.5 25.167 -184.5 75.5s-76.5 111.166 -76.5 182.499v990c0 71.333 25.5 132.166 76.5 182.499
s112.5 75.5 184.5 75.5z" />
    <glyph glyph-name="exclam.blacksquare" unicode="&#x21;&#x20de;&#x25a0;" 
d="M722 1100l28 -498h218l30 498h-276zM720 429c0 -34 12.333 -60.333 37 -79s59.334 -28 104.001 -28s79 9.33301 103 28s36 45 36 79c0 33.333 -12.167 59.5 -36.5 78.5s-58.5 28.5 -102.5 28.5c-44.667 0 -79.334 -9.33301 -104.001 -28s-37 -45 -37 -79zM367 1475h979
c72.667 0 134.5 -25.167 185.5 -75.5s76.5 -111.166 76.5 -182.499v-990c0 -71.333 -25.5 -132.166 -76.5 -182.499s-112.833 -75.5 -185.5 -75.5h-979c-72 0 -133.5 25.167 -184.5 75.5s-76.5 111.166 -76.5 182.499v990c0 71.333 25.5 132.166 76.5 182.499
s112.5 75.5 184.5 75.5z" />
    <glyph glyph-name="uni2717.blacksquare" unicode="&#x2717;&#x20de;&#x25a0;" 
d="M484 943l223 -223l-224 -225l150 -150l223 224l223 -222l151 151l-223 222l223 223l-151 150l-223 -223l-222 223zM367 1475h979c72.667 0 134.5 -25.167 185.5 -75.5s76.5 -111.166 76.5 -182.499v-990c0 -71.333 -25.5 -132.166 -76.5 -182.499
s-112.833 -75.5 -185.5 -75.5h-979c-72 0 -133.5 25.167 -184.5 75.5s-76.5 111.166 -76.5 182.499v990c0 71.333 25.5 132.166 76.5 182.499s112.5 75.5 184.5 75.5z" />
    <glyph glyph-name="uni2713.blacksquare" unicode="&#x2713;&#x20de;&#x25a0;" 
d="M733 351l589 575l-155 161l-430 -431l-199 198l-158 -156zM367 1475h979c72.667 0 134.5 -25.167 185.5 -75.5s76.5 -111.166 76.5 -182.499v-990c0 -71.333 -25.5 -132.166 -76.5 -182.499s-112.833 -75.5 -185.5 -75.5h-979c-72 0 -133.5 25.167 -184.5 75.5
s-76.5 111.166 -76.5 182.499v990c0 71.333 25.5 132.166 76.5 182.499s112.5 75.5 184.5 75.5z" />
    <glyph glyph-name=".notdef" horiz-adv-x="2048" 
d="M100 -494v165h1848v-165h-1848zM100 -38v165h1848v-165h-1848zM100 418v165h1848v-165h-1848zM100 873v165h1848v-165h-1848zM100 1329v165h1848v-165h-1848zM100 1785v165h1848v-165h-1848z" />
    <glyph glyph-name="space" unicode=" " horiz-adv-x="397" 
 />
    <glyph glyph-name="exclam" unicode="!" horiz-adv-x="701" 
d="M169 1443h364l-31 -970h-302zM351 -33c-52.667 0 -97.5 17.5 -134.5 52.5s-55.5 77.5 -55.5 127.5s18.5 92.333 55.5 127s81.833 52 134.5 52c52 0 96.5 -17.333 133.5 -52s55.5 -77 55.5 -127s-18.5 -92.5 -55.5 -127.5s-81.5 -52.5 -133.5 -52.5z" />
    <glyph glyph-name="quotedbl" unicode="&#x22;" horiz-adv-x="993" 
d="M391 851h-297v592h297v-592zM899 851h-298v592h298v-592z" />
    <glyph glyph-name="numbersign" unicode="#" horiz-adv-x="1343" 
d="M633 0l74 368h-224l-73 -368h-262l72 368h-220l48 253h222l44 221h-222l48 251h223l70 351h262l-68 -351h222l70 351h264l-70 -351h230l-48 -251h-232l-44 -221h231l-48 -253h-233l-72 -368h-264zM506 594h264l57 274h-266z" />
    <glyph glyph-name="dollar" unicode="$" horiz-adv-x="1372" 
d="M768 -136l-144 -0.00488281v124c-168.667 8.66699 -300 50.834 -394 126.501s-141.333 177.5 -142 305.5h347c2.66699 -44 21.5 -81.667 56.5 -113s79.167 -49.666 132.5 -54.999v322l-119 26c-128 28 -225 77.5 -291 148.5s-99 161.167 -99 270.5
c0 129.333 44.5 232.833 133.5 310.5s214.167 122.5 375.5 134.5v136h144v-137c148.667 -14 266.834 -60 354.501 -138s132.167 -176.667 133.5 -296h-336c-1.33301 40 -16.333 75.333 -45 106s-64.334 49.334 -107.001 56.001v-311l119 -22
c264.667 -51.333 397 -189.666 397 -414.999c0 -132 -44.5 -237.167 -133.5 -315.5s-216.5 -124.166 -382.5 -137.499v-126zM942 401.995c0 76.667 -58.001 125.999 -174.001 147.999v-298c54.667 4 97.334 19.333 128.001 46s46 61.334 46 104.001zM465.999 1052.99
c0 -74.667 52.667 -122.666 158 -143.999v284c-46.667 -3.33301 -84.667 -17.833 -114 -43.5s-44 -57.834 -44 -96.501z" />
    <glyph glyph-name="percent" unicode="%" horiz-adv-x="1760" 
d="M728 1094c0 -118 -30.833 -211.167 -92.5 -279.5s-145.167 -102.5 -250.5 -102.5s-188.833 34.167 -250.5 102.5s-92.5 161.5 -92.5 279.5c0 117.333 30.833 210.333 92.5 279s145.167 103 250.5 103s188.833 -34.333 250.5 -103s92.5 -161.667 92.5 -279zM385 918
c26.667 0 47.5 15.667 62.5 47s22.5 75 22.5 131s-7.5 99.667 -22.5 131s-35.833 47 -62.5 47s-47.5 -15.667 -62.5 -47s-22.5 -75 -22.5 -131s7.5 -99.667 22.5 -131s35.833 -47 62.5 -47zM493 0h-278l562 770l490 673h278l-546 -749zM1718 359
c0 -118 -30.833 -211.167 -92.5 -279.5s-145.167 -102.5 -250.5 -102.5s-188.833 34.167 -250.5 102.5s-92.5 161.5 -92.5 279.5c0 117.333 30.833 210.166 92.5 278.499s145.167 102.5 250.5 102.5s188.833 -34.167 250.5 -102.5s92.5 -161.166 92.5 -278.499zM1375 183
c26.667 0 47.5 15.667 62.5 47s22.5 75 22.5 131s-7.5 99.667 -22.5 131s-35.833 47 -62.5 47s-47.5 -15.667 -62.5 -47s-22.5 -75 -22.5 -131s7.5 -99.667 22.5 -131s35.833 -47 62.5 -47z" />
    <glyph glyph-name="ampersand" unicode="&#x26;" horiz-adv-x="1472" 
d="M1112 0l-100.001 105.998c-49.333 -42 -112.5 -74.667 -189.5 -98s-159.833 -35 -248.5 -35c-158.667 0 -284 35.833 -376 107.5s-138 169.5 -138 293.5c0 80.667 20.667 150.834 62 210.501s107 114.834 197 165.501c2 0.666992 8.83301 4.33398 20.5 11.001l33 18.5
c10.333 5.66699 15.833 8.5 16.5 8.5c-65.333 66 -111.5 123.833 -138.5 173.5s-40.5 101.167 -40.5 154.5c0 98.667 40.833 180.5 122.5 245.5s184.834 97.5 309.501 97.5c125.333 0 227 -31 305 -93s117 -142.333 117 -241c0 -147.333 -94.333 -273.333 -283 -378
l231 -249c28 49.333 42 120.666 42 213.999v94h285v-119c0 -76 -11 -149.167 -33 -219.5s-52.333 -130.5 -91 -180.5l277 -287h-380zM507.999 592.998c-44.667 -28.667 -76.667 -57.667 -96 -87s-29 -63.333 -29 -102c0 -56 21 -101 63 -135s97 -51 165 -51
c46 0 89.167 7.33301 129.5 22s71.5 34.667 93.5 60l-290 311c-11.333 -4 -23.333 -10 -36 -18zM625.999 901.998c54 28.667 93.502 58.668 118.502 90.001s37.5 66.666 37.5 105.999c0 40.667 -12.833 74 -38.5 100s-58.834 39 -99.501 39s-74.334 -13.167 -101.001 -39.5
s-40 -59.5 -40 -99.5c0 -30 9 -59.333 27 -88s50 -64.667 96 -108z" />
    <glyph glyph-name="quotesingle" unicode="'" horiz-adv-x="485" 
d="M391 851h-297v592h297v-592z" />
    <glyph glyph-name="parenleft" unicode="(" horiz-adv-x="846" 
d="M178 566c0 178.667 24.501 339.33 73.501 481.997s125.5 274.334 229.5 395.001h333c-76.667 -90 -140.834 -217.167 -192.501 -381.5s-77.5 -329.166 -77.5 -494.499c0 -164.667 25.833 -329.5 77.5 -494.5s115.834 -293.167 192.501 -384.5h-333
c-104.667 122.667 -181.334 255.334 -230.001 398.001s-73 302.667 -73 480z" />
    <glyph glyph-name="parenright" unicode=")" horiz-adv-x="846" 
d="M669 566c0 -184 -25.333 -346.833 -76 -488.5s-126.334 -271.5 -227.001 -389.5h-334c73.333 88 136.666 213.167 189.999 375.5s80 330.166 80 503.499c0 174 -26.667 341.833 -80 503.5s-116.666 285.834 -189.999 372.501h334
c100.667 -116 176.334 -244.833 227.001 -386.5s76 -305.167 76 -490.5z" />
    <glyph glyph-name="asterisk" unicode="*" horiz-adv-x="997" 
d="M797 818l-225 166l33 -277h-209l33 276l-226 -165l-104 182l252 109l-252 110l105 184l222 -163l-31 273h212l-32 -271l222 161l106 -184l-255 -111l255 -107z" />
    <glyph glyph-name="plus" unicode="+" horiz-adv-x="1372" 
d="M843 431v-425h-314v425h-399v305h399v423h314v-423h399v-305h-399z" />
    <glyph glyph-name="comma" unicode="," horiz-adv-x="595" 
d="M350 -331h-257l63 592h327z" />
    <glyph glyph-name="hyphen" unicode="&#x2011;" horiz-adv-x="918" 
d="M788 435h-658v304h658v-304z" />
    <glyph glyph-name="hyphen" unicode="-" horiz-adv-x="918" 
d="M788 435h-658v304h658v-304z" />
    <glyph glyph-name="period" unicode="." horiz-adv-x="595" 
d="M297 -13c-51.333 0 -95 18.167 -131 54.5s-54 80.166 -54 131.499s18 95.166 54 131.499s79.667 54.5 131 54.5s95.166 -18.167 131.499 -54.5s54.5 -80.166 54.5 -131.499s-18.167 -95.166 -54.5 -131.499s-80.166 -54.5 -131.499 -54.5z" />
    <glyph glyph-name="slash" unicode="/" horiz-adv-x="846" 
d="M333 -312h-333l513 1755h333z" />
    <glyph glyph-name="zero" unicode="0" horiz-adv-x="1380" 
d="M691 -36c-189.333 0 -338.668 67.667 -448.001 203s-164 321 -164 557s54.833 421 164.5 555s258.834 201 447.501 201c188 0 336.667 -67 446 -201s164 -318.667 164 -554s-54.5 -421 -163.5 -557s-257.833 -204 -446.5 -204zM690.998 250
c73.333 0 131.166 40.832 173.499 122.499s63.5 198.834 63.5 351.501s-21.167 269.167 -63.5 349.5s-100.166 120.5 -173.499 120.5s-131.5 -40.333 -174.5 -121s-64.5 -196.667 -64.5 -348c0 -152.667 21.5 -270 64.5 -352s101.167 -123 174.5 -123z" />
    <glyph glyph-name="one" unicode="1" horiz-adv-x="1023" 
d="M451 0v1121h-7l-361 -244v316l367 250h366v-1443h-365z" />
    <glyph glyph-name="two" unicode="2" horiz-adv-x="1275" 
d="M73 999c0 142.667 51.666 258.33 154.999 346.997s239 133 407 133c162.667 0 293.5 -39.667 392.5 -119s148.5 -182.666 148.5 -309.999c0 -36 -5.66699 -72.167 -17 -108.5s-24.666 -68.333 -39.999 -96s-36.166 -57.667 -62.499 -90s-48.833 -58 -67.5 -77l-73 -71.5
l-345 -318v-7h623v-282h-1100v245l563 518c60.667 58 103.167 107.167 127.5 147.5s36.5 82.833 36.5 127.5c0 46.667 -18.333 85.834 -55 117.501s-84.334 47.5 -143.001 47.5c-62 0 -113.167 -19.167 -153.5 -57.5s-60.5 -87.166 -60.5 -146.499v-7h-336v7z" />
    <glyph glyph-name="three" unicode="3" horiz-adv-x="1330" 
d="M475 611l-0.000976562 253h175c62 0 111.667 15.833 149 47.5s56 73.5 56 125.5c0 52.667 -18.333 94 -55 124s-87.667 45 -153 45c-62.667 0 -113.667 -17.333 -153 -52s-60 -80 -62 -136h-332c2.66699 139.333 55.334 251 158.001 335s237.667 126 405 126
c160.667 0 289.5 -35.667 386.5 -107s145.5 -166.333 145.5 -285c0 -86 -27.667 -159 -83 -219s-127.666 -98 -216.999 -114v-8c108 -10 193.833 -45.667 257.5 -107s95.5 -141 95.5 -239c0 -132 -54.833 -237.667 -164.5 -317s-254.5 -119 -434.5 -119
c-168.667 0 -305.167 42.333 -409.5 127s-160.166 197.334 -167.499 338.001h350c3.33301 -54.667 25.666 -97.834 66.999 -129.501s96.666 -47.5 165.999 -47.5c65.333 0 118.5 16.5 159.5 49.5s61.5 76.167 61.5 129.5c0 56 -20 100 -60 132s-95 48 -165 48h-176z" />
    <glyph glyph-name="four" unicode="4" horiz-adv-x="1373" 
d="M782 0l-0.00195312 233.999h-713v307c64.667 124.667 138.834 255.834 222.501 393.501s192.834 307.167 327.501 508.5h510v-923h180v-286h-180v-234h-347zM379.998 516.999v-9.99902h412v688h-7c-96.667 -144 -174.5 -264.833 -233.5 -362.5
s-116.167 -202.834 -171.5 -315.501z" />
    <glyph glyph-name="five" unicode="5" horiz-adv-x="1323" 
d="M679 -36c-163.333 0 -297.832 42.667 -403.499 128s-159.834 195.333 -162.501 330h333c8.66699 -52 34.834 -94.333 78.501 -127s96.167 -49 157.5 -49c68.667 0 124.5 21.667 167.5 65s64.5 99.333 64.5 168c0 71.333 -21.333 129.166 -64 173.499
s-98.334 66.5 -167.001 66.5c-47.333 0 -90.5 -10.333 -129.5 -31s-70.167 -49.667 -93.5 -87h-324l68 842h966v-282h-682l-27 -356h7c28 52.667 69.667 93.834 125 123.501s120.333 44.5 195 44.5c137.333 0 250.333 -45.667 339 -137s133 -207.333 133 -348
c0 -156.667 -53.5 -283.167 -160.5 -379.5s-247.167 -144.5 -420.5 -144.5z" />
    <glyph glyph-name="six" unicode="6" horiz-adv-x="1364" 
d="M707 -36c-101.333 0 -193.332 20 -275.999 60s-150.334 97.667 -203.001 173c-98.667 130 -148 303 -148 519c0 236.667 56.5 423 169.5 559s265.833 204 458.5 204c145.333 0 269.833 -38.333 373.5 -115s165.167 -175.667 184.5 -297h-357
c-12 39.333 -36.5 71 -73.5 95s-79.833 36 -128.5 36c-91.333 0 -162.666 -42.833 -213.999 -128.5s-73.333 -201.5 -66 -347.5h7c28 72 74.667 129.167 140 171.5s143.666 63.5 234.999 63.5c136 0 249.167 -45 339.5 -135s135.5 -203.333 135.5 -340
c0 -152 -54 -276.333 -162 -373s-246.333 -145 -415 -145zM703.001 247c64 0 118.169 21.667 162.502 65s66.5 96.333 66.5 159c0 63.333 -21.833 116.333 -65.5 159s-97.834 64 -162.501 64s-118.834 -21.333 -162.501 -64s-65.5 -95.334 -65.5 -158.001
c0 -63.333 22 -116.666 66 -159.999s97.667 -65 161 -65z" />
    <glyph glyph-name="seven" unicode="7" horiz-adv-x="1199" 
d="M165 0l604 1154v7h-712v282h1073v-283l-581 -1160h-384z" />
    <glyph glyph-name="eight" unicode="8" horiz-adv-x="1394" 
d="M696 -36c-186 0 -335.331 39.166 -447.998 117.499s-169 181.5 -169 309.5c0 97.333 32.833 179.833 98.5 247.5s151.167 108.167 256.5 121.5v7c-88 17.333 -159.5 56.333 -214.5 117s-82.5 131.667 -82.5 213c0 111.333 52.167 202.833 156.5 274.5
s238.5 107.5 402.5 107.5c164.667 0 299 -36 403 -108s156 -163.667 156 -275c0 -80 -27.333 -150.5 -82 -211.5s-125.667 -100.167 -213 -117.5v-7c105.333 -14 190.666 -54.833 255.999 -122.5s98 -150.167 98 -247.5c0 -127.333 -56.833 -230.166 -170.5 -308.499
s-262.834 -117.5 -447.501 -117.5zM696.002 215.999c68.667 0 124.667 19.167 168 57.5s65 86.5 65 144.5s-21.667 106 -65 144s-99.333 57 -168 57c-68 0 -123.667 -19 -167 -57s-65 -86 -65 -144s21.667 -106.167 65 -144.5s99 -57.5 167 -57.5zM696.002 870.999
c57.333 0 104.666 17 141.999 51s56 76.333 56 127c0 51.333 -18.667 94 -56 128s-84.666 51 -141.999 51c-56.667 0 -103.667 -17 -141 -51s-56 -76.667 -56 -128c0 -50.667 18.667 -93 56 -127s84.333 -51 141 -51z" />
    <glyph glyph-name="nine" unicode="9" horiz-adv-x="1370" 
d="M660 -36c-146.667 0 -272.166 38.499 -376.499 115.499s-165.833 176.167 -184.5 297.5h358c12 -39.333 37.167 -71.166 75.5 -95.499s82.833 -36.5 133.5 -36.5c90 0 160.167 42.333 210.5 127s71.5 201.667 63.5 351h-3h-2h-1
c-24.667 -72 -69.834 -129.333 -135.501 -172s-145.5 -64 -239.5 -64c-136 0 -249.833 45 -341.5 135s-137.5 203.333 -137.5 340c0 150.667 54.667 274.5 164 371.5s248 145.5 416 145.5c102.667 0 195.5 -19.833 278.5 -59.5s151.167 -97.167 204.5 -172.5
c98.667 -130 148 -303 148 -519c0 -237.333 -56 -424 -168 -560s-266.333 -204 -463 -204zM664.001 750.999c64 0 117.833 21.167 161.5 63.5s65.5 94.833 65.5 157.5c0 63.333 -21.833 116.833 -65.5 160.5s-97.167 65.5 -160.5 65.5c-64 0 -118.333 -21.833 -163 -65.5
s-67 -96.834 -67 -159.501c0 -63.333 22 -116.166 66 -158.499s98.333 -63.5 163 -63.5z" />
    <glyph glyph-name="colon" unicode=":" horiz-adv-x="595" 
d="M297 -13c-51.333 0 -95 18.167 -131 54.5s-54 80.166 -54 131.499s18 95.166 54 131.499s79.667 54.5 131 54.5s95.166 -18.167 131.499 -54.5s54.5 -80.166 54.5 -131.499s-18.167 -95.166 -54.5 -131.499s-80.166 -54.5 -131.499 -54.5zM297 691
c-51.333 0 -95 18.167 -131 54.5s-54 80.166 -54 131.499s18 95 54 131s79.667 54 131 54s95.166 -18 131.499 -54s54.5 -79.667 54.5 -131s-18.167 -95.166 -54.5 -131.499s-80.166 -54.5 -131.499 -54.5z" />
    <glyph glyph-name="semicolon" unicode=";" horiz-adv-x="595" 
d="M297 691c-51.333 0 -95 18.167 -131 54.5s-54 80.166 -54 131.499s18 95 54 131s79.667 54 131 54s95.166 -18 131.499 -54s54.5 -79.667 54.5 -131s-18.167 -95.166 -54.5 -131.499s-80.166 -54.5 -131.499 -54.5zM341 -331h-257l63 592h327z" />
    <glyph glyph-name="less" unicode="&#x3c;" horiz-adv-x="1372" 
d="M1182 867l-630 -277v-11l630 -271v-346l-992 486v270l992 495v-346z" />
    <glyph glyph-name="equal" unicode="=" horiz-adv-x="1372" 
d="M1229 176h-1086v303h1086v-303zM1229 688h-1086v303h1086v-303z" />
    <glyph glyph-name="greater" unicode="&#x3e;" horiz-adv-x="1372" 
d="M190 867v346l992 -495v-269l-992 -487v346l630 272v10z" />
    <glyph glyph-name="question" unicode="?" horiz-adv-x="1141" 
d="M52 1023c1.33301 132 47.499 237.168 138.499 315.501s215.833 117.5 374.5 117.5c151.333 0 272.833 -36.667 364.5 -110s137.5 -170 137.5 -290c0 -73.333 -17.5 -136.833 -52.5 -190.5s-89.5 -101.834 -163.5 -144.501c-68.667 -40 -115 -74.667 -139 -104
s-36 -67.333 -36 -114v-47h-312l-3 40c-9.33301 84.667 -1 152.5 25 203.5s74.333 96.833 145 137.5c68 40 113.5 74 136.5 102s34.5 64 34.5 108c0 40.667 -14.833 73.667 -44.5 99s-68.167 38 -115.5 38c-48 0 -87.167 -14.667 -117.5 -44s-46.166 -68.333 -47.499 -117
h-325zM525.999 -32.999c-52.667 0 -97.334 17.332 -134.001 51.999s-55 77.334 -55 128.001c0 50 18.333 92.333 55 127s81.334 52 134.001 52c52 0 96.5 -17.333 133.5 -52s55.5 -77 55.5 -127s-18.5 -92.5 -55.5 -127.5s-81.5 -52.5 -133.5 -52.5z" />
    <glyph glyph-name="at" unicode="@" horiz-adv-x="1819" 
d="M895 822c-45.333 0 -81.001 -18.5 -107.001 -55.5s-39 -87.833 -39 -152.5c0 -65.333 12.833 -116.333 38.5 -153s61.5 -55 107.5 -55s82 18.5 108 55.5s39 87.833 39 152.5s-13.167 115.5 -39.5 152.5s-62.166 55.5 -107.499 55.5zM925.999 1456
c118.667 0 228.164 -17.998 328.497 -53.998s185.833 -86.333 256.5 -151s125.834 -143.5 165.501 -236.5s59.5 -194.5 59.5 -304.5c0 -156.667 -36 -280.834 -108 -372.501s-170 -137.5 -294 -137.5c-64.667 0 -119 13.167 -163 39.5s-72.667 63.5 -86 111.5h-17
c-41.333 -101.333 -119.666 -152 -234.999 -152c-104 0 -187.667 38.667 -251 116s-95 179.333 -95 306c0 121.333 30.333 219.5 91 294.5s140.334 112.5 239.001 112.5c54.667 0 102.667 -12.5 144 -37.5s72 -59.833 92 -104.5h17v118h229v-508c0 -35.333 7.5 -63 22.5 -83
s36.5 -30 64.5 -30c44 0 79 27 105 81s39 128 39 222c0 181.333 -55 325.666 -165 432.999s-257.333 161 -442 161c-192 0 -347.833 -61.333 -467.5 -184s-179.5 -282.334 -179.5 -479.001c0 -200.667 62.167 -358.667 186.5 -474s291.5 -173 501.5 -173
c99.333 0 179.333 9.33301 240 28v-178c-76 -20 -163 -30 -261 -30c-128 0 -246 19.833 -354 59.5s-200.167 95.167 -276.5 166.5s-135.833 159 -178.5 263s-64 218.333 -64 343c0 162.667 36 307.334 108 434.001s173 225 303 295s278.333 105 445 105z" />
    <glyph glyph-name="A" unicode="A" horiz-adv-x="1477" 
d="M1058 0l-91 317h-472l-92 -317h-374l485 1443h449l485 -1443h-390zM727 1137l-161 -556h329l-160 556h-8z" />
    <glyph glyph-name="B" unicode="B" horiz-adv-x="1348" 
d="M798 0l-688.999 -0.000976562v1443h671c142 0 253.333 -32 334 -96s121 -152 121 -264c0 -80 -26.833 -149.333 -80.5 -208s-120.834 -93.667 -201.501 -105v-8c98.667 -4.66699 181.5 -39.667 248.5 -105s100.5 -145.666 100.5 -240.999
c0 -126.667 -45.5 -227.667 -136.5 -303s-213.5 -113 -367.5 -113zM476.001 1183l-0.00195312 -328h189c66.667 0 118.834 14.833 156.501 44.5s56.5 70.5 56.5 122.5c0 50.667 -17.167 90.167 -51.5 118.5s-82.166 42.5 -143.499 42.5h-207zM475.999 259.999h217.999
c76 0 134.167 16.167 174.5 48.5s60.5 78.833 60.5 139.5c0 58.667 -20.667 104 -62 136s-99.666 48 -174.999 48h-216v-372z" />
    <glyph glyph-name="C" unicode="C" horiz-adv-x="1488" 
d="M770 -25c-217.333 0 -388.496 65.8311 -513.496 197.498s-187.5 314.834 -187.5 549.501c0 234 62.667 416.833 188 548.5s296.333 197.5 513 197.5c120.667 0 230 -24.167 328 -72.5s175.833 -116.333 233.5 -204s88.167 -187.5 91.5 -299.5h-353
c-8.66699 84.667 -40.667 152.834 -96 204.501s-123.333 77.5 -204 77.5c-100.667 0 -180.334 -40.333 -239.001 -121s-88 -190.667 -88 -330c0 -141.333 29.333 -252.333 88 -333s138.667 -121 240 -121c80.667 0 148.167 24.667 202.5 74s87.166 116.333 98.499 201h353
c-8.66699 -170.667 -73.334 -308.167 -194.001 -412.5s-274.334 -156.5 -461.001 -156.5z" />
    <glyph glyph-name="D" unicode="D" horiz-adv-x="1456" 
d="M109 1443h586c219.333 0 389.5 -61.667 510.5 -185s181.5 -299.333 181.5 -528c0 -230 -60.833 -409.167 -182.5 -537.5s-291.5 -192.5 -509.5 -192.5h-586v1443zM476 1147v-851h171c120 0 211.167 36.333 273.5 109s93.5 180.667 93.5 324c0 134.667 -32 238 -96 310
s-154.333 108 -271 108h-171z" />
    <glyph glyph-name="E" unicode="E" horiz-adv-x="1196" 
d="M1098 296v-296h-989v1443h989v-296h-622v-287h585v-270h-585v-294h622z" />
    <glyph glyph-name="F" unicode="F" horiz-adv-x="1144" 
d="M476 0h-367v1443h982v-296h-615v-328h559v-281h-559v-538z" />
    <glyph glyph-name="G" unicode="G" horiz-adv-x="1510" 
d="M1437 610c0 -197.333 -57.998 -352.501 -173.998 -465.501s-276.333 -169.5 -481 -169.5c-223.333 0 -398 65.833 -524 197.5s-189 315.5 -189 551.5c0 233.333 62.667 415.666 188 546.999s297.333 197 516 197c174 0 321 -46.667 441 -140
s189.333 -213.666 208 -360.999h-363c-18 64 -52.333 114.333 -103 151s-111.334 55 -182.001 55c-104 0 -185.167 -39 -243.5 -117s-87.5 -187 -87.5 -327c0 -142 31.333 -254 94 -336s147 -123 253 -123c82.667 0 150.667 22.333 204 67s82.666 103.334 87.999 176.001
l1 22h-264v252h618v-177z" />
    <glyph glyph-name="H" unicode="H" horiz-adv-x="1527" 
d="M1417 0h-366v581h-575v-581h-367v1443h367v-566h575v566h366v-1443z" />
    <glyph glyph-name="I" unicode="I" horiz-adv-x="585" 
d="M476 0h-367v1443h367v-1443z" />
    <glyph glyph-name="J" unicode="J" horiz-adv-x="1210" 
d="M25 470h353c0.666992 -57.333 16.5 -102.833 47.5 -136.5s72.833 -50.5 125.5 -50.5c54 0 95.333 16.833 124 50.5s43 82.5 43 146.5v963h366v-965c0 -161.333 -46.5 -285.833 -139.5 -373.5s-222.833 -131.5 -389.5 -131.5c-162 0 -290.833 44.667 -386.5 134
s-143.5 210.333 -143.5 363z" />
    <glyph glyph-name="K" unicode="K" horiz-adv-x="1401" 
d="M476 0h-367v1443h367v-634h8l491 634h394l-503 -641l532 -802h-431l-368 564l-123 -156v-408z" />
    <glyph glyph-name="L" unicode="L" horiz-adv-x="1132" 
d="M1073 296v-296h-964v1443h367v-1147h597z" />
    <glyph glyph-name="M" unicode="M" horiz-adv-x="1802" 
d="M1693 0h-323v901h-7l-357 -886h-210l-356 886h-8v-901h-323v1443h424l364 -927h8l364 927h424v-1443z" />
    <glyph glyph-name="N" unicode="N" horiz-adv-x="1479" 
d="M457 0h-348v1443h293l612 -839h8v839h348v-1443h-290l-615 847h-8v-847z" />
    <glyph glyph-name="O" unicode="O" horiz-adv-x="1564" 
d="M782 1468c218.667 0 392 -67 520 -201s192 -316 192 -546s-64 -411.833 -192 -545.5s-301.333 -200.5 -520 -200.5c-219.333 0 -393 66.833 -521 200.5s-192 315.5 -192 545.5s64.167 412 192.5 546s301.833 201 520.5 201zM782 1170
c-102.667 0 -184.832 -40.5 -246.499 -121.5s-92.5 -190.167 -92.5 -327.5c0 -136.667 30.667 -245.5 92 -326.5s143.666 -121.5 246.999 -121.5c102.667 0 184.834 40.5 246.501 121.5s92.5 189.833 92.5 326.5c0 137.333 -30.833 246.5 -92.5 327.5
s-143.834 121.5 -246.501 121.5z" />
    <glyph glyph-name="P" unicode="P" horiz-adv-x="1308" 
d="M109 1443h625c155.333 0 280.833 -46.5 376.5 -139.5s143.5 -216.833 143.5 -371.5c0 -153.333 -50 -276.5 -150 -369.5s-230.667 -139.5 -392 -139.5h-236v-423h-367v1443zM476 1162v-463.001h159c78.667 0 139.667 20 183 60s65 97.333 65 172
s-21.5 131.834 -64.5 171.501s-103.5 59.5 -181.5 59.5h-161z" />
    <glyph glyph-name="Q" unicode="Q" horiz-adv-x="1563" 
d="M782 -25c-220 0 -393.834 66.333 -521.501 199s-191.5 315 -191.5 547c0 229.333 64.167 411.166 192.5 545.499s301.833 201.5 520.5 201.5c218 0 391 -67.167 519 -201.5s192 -316.166 192 -545.499c0 -121.333 -18.167 -230 -54.5 -326
s-89.166 -174.333 -158.499 -235l179 -281h-341l-87 133c-76 -24.667 -159 -37 -249 -37zM781.999 268c28.667 0 54 3.33203 76 9.99902l-146 229h311l32 -43c43.333 70 65 155.667 65 257c0 137.333 -30.667 247.333 -92 330s-143.333 124 -246 124
s-184.834 -41.333 -246.501 -124s-92.5 -192.667 -92.5 -330s30.833 -247.166 92.5 -329.499s143.834 -123.5 246.501 -123.5z" />
    <glyph glyph-name="R" unicode="R" horiz-adv-x="1355" 
d="M476 1166l-0.000976562 -410.001h215c67.333 0 120 18.333 158 55s57 86.334 57 149.001c0 62 -19.667 111.833 -59 149.5s-91.666 56.5 -156.999 56.5h-214zM475.999 504.999v-504.999h-367v1443h618c178.667 0 315.667 -41.667 411 -125s143 -200.333 143 -351
c0 -90.667 -21.833 -172.834 -65.5 -246.501s-104.167 -127.5 -181.5 -161.5l289 -559h-412l-248 505h-187z" />
    <glyph glyph-name="S" unicode="S" horiz-adv-x="1334" 
d="M63 418l348.999 0.00390625c6.66699 -48.667 34.5 -88.334 83.5 -119.001s107.833 -46 176.5 -46c70.667 0 127.667 14.167 171 42.5s65 64.5 65 108.5c0 40 -16.833 71.167 -50.5 93.5s-91.834 42.166 -174.501 59.499l-189 37
c-132.667 25.333 -233 73.166 -301 143.499s-102 160.5 -102 270.5c0 138.667 53.5 250 160.5 334s244.833 126 413.5 126c178.667 0 319.167 -40.167 421.5 -120.5s154.5 -188.833 156.5 -325.5h-338c-3.33301 52 -26.666 93 -69.999 123s-98.666 45 -165.999 45
c-64 0 -115.5 -13.333 -154.5 -40s-58.5 -62 -58.5 -106c0 -38.667 16.833 -69.834 50.5 -93.501s88.5 -43.167 164.5 -58.5l187 -35c142 -27.333 246.333 -74.333 313 -141s100 -157 100 -271c0 -143.333 -55 -257.5 -165 -342.5s-258 -127.5 -444 -127.5
c-184.667 0 -330.167 39 -436.5 117s-160.5 186.667 -162.5 326z" />
    <glyph glyph-name="T" unicode="T" horiz-adv-x="1254" 
d="M810 0h-366v1147h-398v296h1162v-296h-398v-1147z" />
    <glyph glyph-name="U" unicode="U" horiz-adv-x="1461" 
d="M476 1443v-892c0 -84.667 22.167 -150.5 66.5 -197.5s107.166 -70.5 188.499 -70.5s144 23.5 188 70.5s66 112.833 66 197.5v892h367v-931c0 -162 -56.667 -292 -170 -390s-263.666 -147 -450.999 -147c-188 0 -338.667 49 -452 147s-170 228 -170 390v931h367z" />
    <glyph glyph-name="V" unicode="V" horiz-adv-x="1440" 
d="M951 0h-462l-460 1443h417l278 -1084h8l277 1084h402z" />
    <glyph glyph-name="W" unicode="W" horiz-adv-x="2022" 
d="M1007 901l-243 -901h-346l-377 1443h379l195 -975h8l241 975h294l241 -975h8l195 975h379l-377 -1443h-346l-243 901h-8z" />
    <glyph glyph-name="X" unicode="X" horiz-adv-x="1458" 
d="M42 0l441 723v8l-440 712h428l265 -488h7l267 488h407l-459 -716v-7l455 -720h-412l-280 468h-8l-281 -468h-390z" />
    <glyph glyph-name="Y" unicode="Y" horiz-adv-x="1419" 
d="M893 0h-367v496l-497 947h394l287 -600h7l286 600h387l-497 -947v-496z" />
    <glyph glyph-name="Z" unicode="Z" horiz-adv-x="1307" 
d="M84 0v233l686 907v7h-675v296h1106v-233l-683 -907v-7h705v-296h-1139z" />
    <glyph glyph-name="bracketleft" unicode="[" horiz-adv-x="846" 
d="M201 1443h618v-257h-278v-1241h278v-257h-618v1755z" />
    <glyph glyph-name="backslash" unicode="\" horiz-adv-x="846" 
d="M506 -312l-506 1755h341l505 -1755h-340z" />
    <glyph glyph-name="bracketright" unicode="]" horiz-adv-x="846" 
d="M645 1443v-1755h-617v257h277v1241h-277v257h617z" />
    <glyph glyph-name="asciicircum" unicode="^" horiz-adv-x="1021" 
d="M501 1141l-167 -333h-295l325 604h297l321 -604h-305l-158 333h-18z" />
    <glyph glyph-name="underscore" unicode="_" horiz-adv-x="872" 
d="M914 -373h-956v266h956v-266z" />
    <glyph glyph-name="grave" unicode="`" horiz-adv-x="1013" 
d="M775 1278h-276l-260 316h309z" />
    <glyph glyph-name="a" unicode="a" horiz-adv-x="1169" 
d="M536 228c55.333 0 102.832 15.332 142.499 45.999s59.5 69.667 59.5 117v75l-198 -13c-46 -3.33301 -81.667 -15.166 -107 -35.499s-38 -46.5 -38 -78.5c0 -34 12.833 -61 38.5 -81s59.834 -30 102.501 -30zM409.999 -16.001c-102.667 0 -189.332 30.998 -259.999 92.998
s-106 141.333 -106 238c0 101.333 37.667 180.333 113 237s184 89.334 326 98.001l255 15v62c0 42.667 -14 75.834 -42 99.501s-65.667 35.5 -113 35.5c-46.667 0 -84.834 -10.833 -114.501 -32.5s-47.167 -49.834 -52.5 -84.501h-319c5.33301 112.667 53 202.5 143 269.5
s210.333 100.5 361 100.5c145.333 0 262.333 -33.833 351 -101.5s133 -156.5 133 -266.5v-747h-345v155h-7c-28.667 -53.333 -72.667 -95.166 -132 -125.499s-123 -45.5 -191 -45.5z" />
    <glyph glyph-name="b" unicode="b" horiz-adv-x="1269" 
d="M785 -16c-79.333 0 -147.833 17.833 -205.5 53.5s-100.5 85.5 -128.5 149.5h-7v-187h-353v1443h355v-547h7c28 66 70.5 117.333 127.5 154s124.167 55 201.5 55c137.333 0 244 -49 320 -147s114 -236 114 -414c0 -177.333 -37.667 -315 -113 -413
s-181.333 -147 -318 -147zM649 828c-61.333 0 -110.667 -25.833 -148 -77.5s-56.333 -120.5 -57 -206.5c0.666992 -86.667 19.5 -155.5 56.5 -206.5s86.5 -76.5 148.5 -76.5c62.667 0 112.5 25.5 149.5 76.5s55.5 119.833 55.5 206.5s-18.5 155.667 -55.5 207
s-86.833 77 -149.5 77z" />
    <glyph glyph-name="c" unicode="c" horiz-adv-x="1163" 
d="M1118 659l-326.001 -0.000976562c-6 57.333 -25.167 102.666 -57.5 135.999s-74.166 50 -125.499 50c-62.667 0 -111.334 -26 -146.001 -78s-52 -126 -52 -222c0 -96.667 17.333 -171.167 52 -223.5s83.334 -78.5 146.001 -78.5c52 0 94 15.833 126 47.5
s51.333 75.834 58 132.501h325c-4.66699 -138.667 -53 -248.167 -145 -328.5s-214.667 -120.5 -368 -120.5c-171.333 0 -306.333 50.667 -405 152s-148 241 -148 419c0 176 49.333 315 148 417s233 153 403 153c152.667 0 275.5 -41.667 368.5 -125
s141.833 -193.666 146.5 -330.999z" />
    <glyph glyph-name="d" unicode="d" horiz-adv-x="1265" 
d="M486 -16c-135.333 0 -241.5 49.833 -318.5 149.5s-115.5 237.5 -115.5 413.5c0 174 39 310.5 117 409.5s185 148.5 321 148.5c77.333 0 144.833 -19 202.5 -57s98.834 -88.333 123.501 -151h7v546h354v-1443h-352v187h-7c-22.667 -59.333 -63.834 -108 -123.501 -146
s-129.167 -57 -208.5 -57zM619 828c-63.333 0 -113.167 -25.333 -149.5 -76s-54.5 -120 -54.5 -208s18 -157.167 54 -207.5s86 -75.5 150 -75.5s114.167 25 150.5 75s54.5 119.333 54.5 208c0 87.333 -18.333 156.5 -55 207.5s-86.667 76.5 -150 76.5z" />
    <glyph glyph-name="e" unicode="e" horiz-adv-x="1183" 
d="M600 863c-54 0 -99.5 -18.167 -136.5 -54.5s-57.833 -82.833 -62.5 -139.5h396c-3.33301 58 -23 104.833 -59 140.5s-82 53.5 -138 53.5zM805 344h319.998c-17.333 -112.667 -72.666 -202.5 -165.999 -269.5s-211 -100.5 -353 -100.5c-173.333 0 -309 50.167 -407 150.5
s-147 238.5 -147 414.5s48.833 316 146.5 420s229.5 156 395.5 156c164 0 294.5 -49.667 391.5 -149s145.5 -232.333 145.5 -399v-100h-735v-22c0 -65.333 19.833 -118.333 59.5 -159s91.5 -61 155.5 -61c47.333 0 88.333 10.667 123 32s58.334 50.333 71.001 87z" />
    <glyph glyph-name="f" unicode="f" horiz-adv-x="785" 
d="M174 0v828h-145v253h145v63c0 109.333 29.833 189 89.5 239s159.5 75 299.5 75c66 0 123.333 -5 172 -15v-220c-26.667 4 -52.667 6 -78 6c-92 0 -138 -33.667 -138 -101v-47h212v-253h-202v-828h-355z" />
    <glyph glyph-name="g" unicode="g" horiz-adv-x="1263" 
d="M619 271c64 0 114.165 23.833 150.498 71.5s54.5 115.167 54.5 202.5c0 86.667 -18.333 155.5 -55 206.5s-86.667 76.5 -150 76.5s-113.166 -25.333 -149.499 -76s-54.5 -119.667 -54.5 -207s17.833 -154.833 53.5 -202.5s85.834 -71.5 150.501 -71.5zM607.998 -410
c-152.667 0 -276.17 31.332 -370.503 93.999s-146.5 144.334 -156.5 245.001h343c8.66699 -32 30.334 -57.833 65.001 -77.5s77 -29.5 127 -29.5c66.667 0 117.834 16.333 153.501 49s53.5 76.667 53.5 132v200h-7c-22 -58 -62.833 -104.833 -122.5 -140.5
s-129.167 -53.5 -208.5 -53.5c-132 0 -237.167 47.667 -315.5 143s-117.5 227.333 -117.5 396c0 174 38.833 310.333 116.5 409s184.834 148 321.501 148c77.333 0 145 -19.167 203 -57.5s99.667 -88.833 125 -151.5h7v193h352v-1077
c0 -128.667 -52.167 -231.167 -156.5 -307.5s-241.833 -114.5 -412.5 -114.5z" />
    <glyph glyph-name="h" unicode="h" horiz-adv-x="1245" 
d="M91 0v1443h347v-559h7c28 73.333 71.167 129.333 129.5 168s128.833 58 211.5 58c120.667 0 213.834 -36.167 279.501 -108.5s98.5 -173.166 98.5 -302.499v-699h-354v622c0 62.667 -15.333 111.5 -46 146.5s-74.667 52.5 -132 52.5c-58.667 0 -104.334 -19 -137.001 -57
s-49 -88 -49 -150v-614h-355z" />
    <glyph glyph-name="i" unicode="i" horiz-adv-x="530" 
d="M88 0v1089h354v-1089h-354zM265 1177c-51.333 0 -94.5 16.667 -129.5 50s-52.5 74.666 -52.5 123.999c0 48.667 17.5 89.667 52.5 123s78.167 50 129.5 50s94.333 -16.5 129 -49.5s52 -74.167 52 -123.5s-17.333 -90.666 -52 -123.999s-77.667 -50 -129 -50z" />
    <glyph glyph-name="j" unicode="j" horiz-adv-x="530" 
d="M442 1089v-1138c0 -110 -36 -194.667 -108 -254s-175 -89 -309 -89c-44 0 -78.667 1.33301 -104 4v252c13.333 -1.33301 27.333 -2 42 -2c44 0 75.833 8 95.5 24s29.5 42.333 29.5 79v1124h354zM265 1177c-51.333 0 -94.5 16.667 -129.5 50s-52.5 74.666 -52.5 123.999
c0 48.667 17.5 89.667 52.5 123s78.167 50 129.5 50s94.333 -16.5 129 -49.5s52 -74.167 52 -123.5s-17.333 -90.666 -52 -123.999s-77.667 -50 -129 -50z" />
    <glyph glyph-name="k" unicode="k" horiz-adv-x="1158" 
d="M452 675l313 414h395l-387 -466l410 -623h-408l-265 411l-64 -77v-334h-355v1443h355v-768h6z" />
    <glyph glyph-name="l" unicode="l" horiz-adv-x="537" 
d="M91 0v1443h355v-1443h-355z" />
    <glyph glyph-name="m" unicode="m" horiz-adv-x="1833" 
d="M85 0v1089h345v-210h7c21.333 70.667 60 126.834 116 168.501s121 62.5 195 62.5c81.333 0 148.333 -20.167 201 -60.5s86.667 -97.5 102 -171.5h7c21.333 70 62.5 126.167 123.5 168.5s131.833 63.5 212.5 63.5c106.667 0 193 -34.167 259 -102.5s99 -157.833 99 -268.5
v-739h-355v649c0 115.333 -51 173 -153 173c-48 0 -86 -16 -114 -48s-42 -74.667 -42 -128v-646h-339v653c0 54.667 -13 96.5 -39 125.5s-63.333 43.5 -112 43.5c-48 0 -86.333 -16.333 -115 -49s-43 -75.667 -43 -129v-644h-355z" />
    <glyph glyph-name="n" unicode="n" horiz-adv-x="1233" 
d="M85 0l-0.000976562 1089h345v-205h7c28 73.333 70.5 129.333 127.5 168s126.833 58 209.5 58c120.667 0 213.834 -36 279.501 -108s98.5 -173 98.5 -303v-699h-354v623c0 62.667 -14.833 111.334 -44.5 146.001s-73.167 52 -130.5 52c-56 0 -100.5 -19 -133.5 -57
s-49.5 -87.333 -49.5 -148v-616h-355z" />
    <glyph glyph-name="o" unicode="o" horiz-adv-x="1218" 
d="M609 -26c-172.667 0 -308.667 50.165 -408 150.498s-149 240.5 -149 420.5c0 176.667 50.333 315.834 151 417.501s236 152.5 406 152.5c171.333 0 307 -50.667 407 -152s150 -240.666 150 -417.999c0 -180.667 -49.667 -321 -149 -421s-235.333 -150 -408 -150z
M609 233.998c61.333 0 109.668 27 145.001 81s53 130.333 53 229c0 97.333 -17.833 173.5 -53.5 228.5s-83.834 82.5 -144.501 82.5s-108.667 -27.5 -144 -82.5s-53 -131.167 -53 -228.5c0 -98.667 17.5 -175 52.5 -229s83.167 -81 144.5 -81z" />
    <glyph glyph-name="p" unicode="p" horiz-adv-x="1263" 
d="M775 1105c137.333 0 244.167 -49 320.5 -147s114.5 -236 114.5 -414c0 -177.333 -37.667 -315 -113 -413s-181 -147 -317 -147c-79.333 0 -148 17.833 -206 53.5s-100.333 85.167 -127 148.5h-7v-538h-355v1441h353v-194h7c28 66 70.5 117.5 127.5 154.5
s124.5 55.5 202.5 55.5zM643.001 261c62.667 0 112.498 25.5 149.498 76.5s55.5 119.833 55.5 206.5s-18.5 155.667 -55.5 207s-86.833 77 -149.5 77c-62 0 -111.5 -25.833 -148.5 -77.5s-55.833 -120.5 -56.5 -206.5c0.666992 -86.667 19.334 -155.5 56.001 -206.5
s86.334 -76.5 149.001 -76.5z" />
    <glyph glyph-name="q" unicode="q" horiz-adv-x="1263" 
d="M490 1105c77.333 0 144.999 -19.168 202.999 -57.501s99.667 -89.166 125 -152.499h7v194h352v-1441h-354v539h-7c-22 -60 -63 -108.833 -123 -146.5s-129.333 -56.5 -208 -56.5c-135.333 0 -241.333 49.833 -318 149.5s-115 237.5 -115 413.5
c0 174 38.833 310.5 116.5 409.5s184.834 148.5 321.501 148.5zM618.999 260.999c63.333 0 113.332 25.167 149.999 75.5s55 119.5 55 207.5c0 87.333 -18.333 156.5 -55 207.5s-86.667 76.5 -150 76.5s-113.166 -25.333 -149.499 -76s-54.5 -120 -54.5 -208
s18 -157.167 54 -207.5s86 -75.5 150 -75.5z" />
    <glyph glyph-name="r" unicode="r" horiz-adv-x="805" 
d="M85 0v1089h345v-206h7c40 148 125.333 222 256 222c35.333 0 65.333 -4.66699 90 -14v-302c-33.333 13.333 -71 20 -113 20c-74.667 0 -131.667 -20.333 -171 -61s-59 -99 -59 -175v-573h-355z" />
    <glyph glyph-name="s" unicode="s" horiz-adv-x="1108" 
d="M67 759c0 109.333 43.498 196.001 130.498 260.001s205.5 96 355.5 96c148 0 265.333 -32.833 352 -98.5s130.667 -154.834 132 -267.501h-324c-1.33301 39.333 -16.666 70.333 -45.999 93s-68.333 34 -117 34c-43.333 0 -78 -8.66699 -104 -26s-39 -40 -39 -68
c0 -44 40.667 -74.333 122 -91l228 -46c108.667 -23.333 187.5 -58.5 236.5 -105.5s73.5 -111.833 73.5 -194.5c0 -112.667 -46.667 -202.667 -140 -270s-216.333 -101 -369 -101c-156.667 0 -280.167 33 -370.5 99s-139.166 155.667 -146.499 269h344
c5.33301 -40.667 23.5 -72.334 54.5 -95.001s72.5 -34 124.5 -34c47.333 0 84.5 8.16699 111.5 24.5s40.5 38.833 40.5 67.5c0 22 -9 39.833 -27 53.5s-48.333 24.834 -91 33.501l-206 43c-106.667 22.667 -187.5 61.5 -242.5 116.5s-82.5 124.167 -82.5 207.5z" />
    <glyph glyph-name="t" unicode="t" horiz-adv-x="786" 
d="M174 1333h355.001v-244h196v-261h-196v-457c0 -75.333 41.667 -113 125 -113c29.333 0 52.666 1.66699 69.999 5v-252c-42 -8.66699 -93.667 -13 -155 -13c-141.333 0 -242.5 23.333 -303.5 70s-91.5 123.667 -91.5 231v529h-148v261h148v244z" />
    <glyph glyph-name="u" unicode="u" horiz-adv-x="1233" 
d="M1147 1089v-1089h-344v206h-7c-52 -151.333 -157.667 -227 -317 -227c-118.667 0 -214.834 36.667 -288.501 110s-110.5 173.333 -110.5 300v700h355v-623c0 -64 15.667 -113 47 -147s75 -51 131 -51c54.667 0 98.334 18.667 131.001 56s49 87 49 149v616h354z" />
    <glyph glyph-name="v" unicode="v" horiz-adv-x="1129" 
d="M1132 1089l-361 -1089h-409l-365 1089h381l190 -792h7l186 792h371z" />
    <glyph glyph-name="w" unicode="w" horiz-adv-x="1699" 
d="M1685 1089l-281 -1089h-382l-173 733h-7l-170 -733h-376l-283 1089h358l139 -769h7l166 769h339l168 -769h7l138 769h350z" />
    <glyph glyph-name="x" unicode="x" horiz-adv-x="1144" 
d="M565 359h-7l-175 -359h-368l327 541l-326 548h400l163 -348h7l160 348h383l-327 -540l326 -549h-383z" />
    <glyph glyph-name="y" unicode="y" horiz-adv-x="1174" 
d="M249 -401c-82.667 0 -125.668 0.333008 -129.001 1v268c6.66699 -1.33301 32.334 -2 77.001 -2c56 0 97.667 7.5 125 22.5s43.333 38.833 48 71.5l2 18c0.666992 12 0.666992 19.333 0 22l-367 1089h391l197 -823h6l196 823h374l-348 -1086
c-46.667 -146 -113.667 -249.833 -201 -311.5s-211 -92.5 -371 -92.5z" />
    <glyph glyph-name="z" unicode="z" horiz-adv-x="1075" 
d="M66 0v188l512 628v7h-500v266h914v-216l-465 -600v-7h482v-266h-943z" />
    <glyph glyph-name="braceleft" unicode="{" horiz-adv-x="846" 
d="M327 548c91.333 -10 161.5 -37.1689 210.5 -81.502s73.5 -102.833 73.5 -175.5v-175c0 -65.333 12.167 -111.333 36.5 -138s66.166 -40 125.499 -40h46v-250h-84c-164 0 -282.167 31 -354.5 93s-108.5 163 -108.5 303v121c0 70 -18.833 120.5 -56.5 151.5
s-100.167 46.833 -187.5 47.5v325c87.333 0.666992 149.833 16.334 187.5 47.001s56.5 81.334 56.5 152.001v127c0 137.333 36 236.333 108 297s190.333 91 355 91h84v-250h-46c-59.333 0 -101.166 -13.5 -125.499 -40.5s-36.5 -73.167 -36.5 -138.5v-172
c0 -72.667 -24.5 -131.167 -73.5 -175.5s-119.167 -71.5 -210.5 -81.5v-37z" />
    <glyph glyph-name="bar" unicode="|" horiz-adv-x="846" 
d="M593 -312h-340v1755h340v-1755z" />
    <glyph glyph-name="braceright" unicode="}" horiz-adv-x="846" 
d="M520 548v37.002c-91.333 10 -161.666 37.167 -210.999 81.5s-74 102.833 -74 175.5v172c0 66 -12 112.333 -36 139s-65.667 40 -125 40h-46v250h84c164 0 282 -30.167 354 -90.5s108 -159.5 108 -297.5v-127c0 -70.667 19 -121.334 57 -152.001
s100.667 -46.334 188 -47.001v-325c-88 -0.666992 -150.833 -16.5 -188.5 -47.5s-56.5 -81.5 -56.5 -151.5v-119c0 -140.667 -36 -242.167 -108 -304.5s-190 -93.5 -354 -93.5h-84v250h46c58.667 0 100.167 13.333 124.5 40s36.5 72.667 36.5 138v175
c0 72.667 24.667 131.167 74 175.5s119.666 71.5 210.999 81.5z" />
    <glyph glyph-name="asciitilde" unicode="~" horiz-adv-x="1372" 
d="M638 617c-27.333 27.333 -50.332 46.333 -68.999 57s-39 16 -61 16c-66.667 0 -101 -59.333 -103 -178h-263c-8.66699 142.667 16.666 256 75.999 340s143.666 126 252.999 126c46.667 0 91.167 -10.5 133.5 -31.5s86.833 -54.833 133.5 -101.5
c26 -26.667 48.167 -45.167 66.5 -55.5s38.166 -15.5 59.499 -15.5c66.667 0 101 59.333 103 178h263c8.66699 -142.667 -16.666 -256 -75.999 -340s-143.666 -126 -252.999 -126c-46 0 -89.667 10.333 -131 31s-85.333 54 -132 100z" />
    <glyph glyph-name="nonbreakingspace" unicode="&#xa0;" horiz-adv-x="397" 
 />
    <glyph glyph-name="exclamdown" unicode="&#xa1;" horiz-adv-x="701" 
d="M169 -314l31 970h302l31 -970h-364zM351 805c-52.667 0 -97.5 17.333 -134.5 52s-55.5 77 -55.5 127s18.5 92.333 55.5 127s81.833 52 134.5 52c52 0 96.5 -17.333 133.5 -52s55.5 -77 55.5 -127s-18.5 -92.333 -55.5 -127s-81.5 -52 -133.5 -52z" />
    </font>
</defs>
</svg>
